<svg width="400" height="400" viewBox="0 0 400 400" fill="none" xmlns="http://www.w3.org/2000/svg">
<path d="M65.3333 16.0001V32.0001H51.3333C32.5333 32.0001 24.9333 34.8001 13.8666 45.8668C7.06664 52.6668 5.33331 55.4668 2.93331 63.3335L-0.133362 72.6668L0.266638 218.667L0.666638 364.667L4.53331 372.533C9.46664 382.667 17.3333 390.533 27.4666 395.467L35.3333 399.333H200H364.667L372.533 395.467C382.667 390.533 390.533 382.667 395.467 372.533L399.333 364.667V216V67.3335L395.467 58.9335C390.533 48.4001 380.267 38.6668 370 34.8001C364.267 32.6668 359.467 32.0001 348.667 32.0001H334.667V16.0001V0.000141934H319.333H304.133L303.733 15.6001L303.333 31.3335H200H96.6666L96.2666 15.6001L95.8666 0.000141934H80.6666H65.3333V16.0001ZM65.3333 78.0001V93.3335H80.6666H96V78.0001V62.6668H200H304V78.0001V93.3335H319.333H334.667V78.0001V62.6668H346.533C357.333 62.6668 358.8 62.9335 362.533 66.1335C368.133 70.8001 369.333 76.4001 369.333 97.6001V116H200H30.6666V97.6001C30.6666 76.4001 31.8666 70.8001 37.4666 66.1335C41.2 62.9335 42.6666 62.6668 53.4666 62.6668H65.3333V78.0001ZM369.067 252.267C368.667 365.867 368.933 361.6 361.733 366.4C358.4 368.533 348.4 368.667 200 368.667C29.8666 368.667 38.5333 369.067 33.6 361.733C31.4666 358.4 31.3333 350.533 30.9333 252.4L30.5333 146.667H200H369.467L369.067 252.267Z" fill="#0E79BF"/>
<path d="M60 195.334V210.667H75.3333H90.6667V195.334V180H75.3333H60V195.334Z" fill="#0E79BF"/>
<path d="M122.667 195.334V210.667H138H153.333V195.334V180H138H122.667V195.334Z" fill="#0E79BF"/>
<path d="M184 195.334V210.667H200H216V195.334V180H200H184V195.334Z" fill="#0E79BF"/>
<path d="M246.667 195.334V210.667H262H277.333V195.334V180H262H246.667V195.334Z" fill="#0E79BF"/>
<path d="M309.333 195.334V210.667H324.667H340V195.334V180H324.667H309.333V195.334Z" fill="#0E79BF"/>
<path d="M60 258V273.333H75.3333H90.6667V258V242.667H75.3333H60V258Z" fill="#0E79BF"/>
<path d="M122.667 258V273.333H138H153.333V258V242.667H138H122.667V258Z" fill="#0E79BF"/>
<path d="M184 258V273.333H200H216V258V242.667H200H184V258Z" fill="#0E79BF"/>
<path d="M246.667 258V273.333H262H277.333V258V242.667H262H246.667V258Z" fill="#0E79BF"/>
<path d="M309.333 258V273.333H324.667H340V258V242.667H324.667H309.333V258Z" fill="#0E79BF"/>
<path d="M60 320.667V336H75.3333H90.6667V320.667V305.333H75.3333H60V320.667Z" fill="#0E79BF"/>
<path d="M122.667 320.667V336H138H153.333V320.667V305.333H138H122.667V320.667Z" fill="#0E79BF"/>
<path d="M184.267 320.267L184.667 335.333H200H215.333L215.733 320.267L216.133 305.333H200H183.867L184.267 320.267Z" fill="#0E79BF"/>
<path d="M246.667 320.667V336H262H277.333V320.667V305.333H262H246.667V320.667Z" fill="#0E79BF"/>
</svg>
