<svg width="343" height="354" viewBox="0 0 343 354" fill="none" xmlns="http://www.w3.org/2000/svg">
<path d="M175.713 0.20537C174.401 0.343495 170.05 0.826933 166.044 1.24131C84.965 9.80507 20.9439 69.337 4.09268 151.66C0.294234 170.237 -1.08702 196.757 0.915797 213.54C4.50705 243.789 14.8664 270.585 31.6486 292.962C36.7593 299.73 48.638 312.092 55.4062 317.617C77.9206 336.126 105.131 347.59 137.038 352.148C145.395 353.322 177.302 353.322 187.799 352.148C203.476 350.353 219.154 347.038 231.309 342.894C240.494 339.786 250.991 335.366 250.991 334.606C250.991 333.847 242.704 307.119 242.29 306.291C242.082 306.014 239.596 306.912 236.695 308.224C218.532 316.512 198.02 320.794 173.296 321.415C157.066 321.83 146.845 320.932 134.068 318.1C113.488 313.542 94.4956 304.081 79.4399 290.959C50.5718 265.682 35.5852 222.932 38.9693 175.624C41.939 135.016 56.4421 100.277 81.3046 74.5167C103.267 51.8642 129.441 38.1207 161.555 32.5266C170.257 31.0073 195.603 30.731 205.41 32.1123C243.809 37.5682 272.884 55.8007 289.805 85.2214C301.2 105.042 306.172 127.004 305.344 153.662C304.515 178.939 299.542 197.379 289.252 212.918C281.517 224.659 269.845 232.808 259.555 233.706C248.436 234.604 243.533 229.838 242.013 216.717C240.908 206.979 240.977 206.702 252.373 136.397C255.826 115.402 258.588 97.6527 258.588 97.0311C258.588 93.3708 234.416 86.1883 214.941 84.1164C151.058 77.1411 98.1559 112.501 83.2384 172.102C80.1306 184.602 78.8874 202.213 80.4068 213.885C82.6859 231.151 90.49 246.621 101.609 255.668C106.582 259.743 116.596 264.508 123.226 266.027C133.516 268.375 148.641 267.339 160.519 263.472C174.539 258.914 189.18 247.38 198.573 233.43C200.438 230.667 202.302 228.388 202.648 228.388C203.062 228.388 203.338 229.217 203.338 230.253C203.338 231.358 203.96 234.466 204.719 237.297C208.656 252.491 217.91 261.814 232.966 265.751C242.428 268.306 258.174 267.616 270.881 264.163C298.23 256.773 320.952 235.156 332.692 205.114C337.734 192.199 340.358 181.426 342.223 165.886C343.259 157.046 343.259 135.154 342.223 127.557C336.215 83.4258 315.289 48.8254 280.619 25.8276C261.213 12.9819 240.218 5.17786 214.734 1.44848C208.173 0.481601 180.893 -0.416194 175.713 0.20537ZM200.507 124.173C202.993 124.587 205.272 125.14 205.548 125.416C206.17 125.968 198.987 174.796 197.468 180.735C193.669 195.445 186.694 207.877 177.233 216.717C171.846 221.827 167.288 224.452 161.279 226.04C151.403 228.526 140.629 224.382 135.381 216.026C127.093 202.904 129.925 173.552 141.251 154.353C154.718 131.424 176.887 120.167 200.507 124.173Z" fill="#FBE91D"/>
</svg>
