<svg width="227" height="227" viewBox="0 0 227 227" fill="none" xmlns="http://www.w3.org/2000/svg">
<path d="M107.975 0.716524C96.4042 3.82634 89.2242 15.854 92.151 27.1957C95.2151 38.9032 107.197 46.1747 118.676 43.202C130.383 40.138 137.655 28.156 134.682 16.7686C131.618 4.92392 119.453 -2.39329 107.975 0.716524Z" fill="#0E79BF"/>
<path d="M93.3401 48.2784C85.6113 50.3363 79.5746 56.5102 77.5166 64.3305C77.0136 66.2055 76.8307 69.4068 76.8307 75.535V84.087L78.5685 85.276C80.6722 86.7394 87.4863 88.9346 92.6084 89.8493C106.557 92.2731 127.457 91.77 139.438 88.7059C143.554 87.6541 146.756 86.3736 148.676 85.0016L150.003 84.087V75.4892C150.003 69.4068 149.82 66.2055 149.317 64.3305C147.259 56.4188 141.176 50.2906 133.31 48.2327C129.469 47.2723 97.0444 47.2723 93.3401 48.2784Z" fill="#0E79BF"/>
<path d="M109.758 121.496L109.712 140.612L92.5627 150.856C83.1418 156.482 75.3672 161.238 75.2758 161.375C75.0014 161.787 78.3856 167.366 78.8886 167.366C79.163 167.366 86.8918 162.838 96.0383 157.305C105.231 151.771 112.959 147.244 113.279 147.244C113.645 147.244 133.036 158.677 147.716 167.595C147.853 167.686 148.859 166.36 149.866 164.622L151.786 161.421L134.454 151.039L117.075 140.612V121.542V102.426H113.417H109.758V121.496Z" fill="#0E79BF"/>
<path d="M31.1439 136.085C19.5735 139.195 12.3935 151.222 15.3204 162.564C18.3845 174.271 30.3664 181.543 41.8453 178.57C53.5528 175.506 60.8243 163.524 57.8517 152.137C54.7876 140.292 42.6227 132.975 31.1439 136.085Z" fill="#0E79BF"/>
<path d="M184.805 136.085C173.235 139.195 166.055 151.222 168.982 162.564C172.046 174.271 184.028 181.543 195.507 178.57C207.214 175.506 214.486 163.524 211.513 152.137C208.449 140.292 196.284 132.975 184.805 136.085Z" fill="#0E79BF"/>
<path d="M16.5094 183.647C8.78065 185.705 2.74395 191.879 0.685988 199.699C0.18293 201.574 0 204.775 0 210.903V219.455L1.73784 220.644C3.84153 222.108 10.6557 224.303 15.7777 225.218C29.7261 227.641 50.6259 227.138 62.6078 224.074C66.7238 223.022 69.925 221.742 71.8458 220.37L73.1721 219.455V210.858C73.1721 204.775 72.9891 201.574 72.4861 199.699C70.4281 191.787 64.3457 185.659 56.4797 183.601C52.6381 182.641 20.2138 182.641 16.5094 183.647Z" fill="#0E79BF"/>
<path d="M170.171 183.647C162.442 185.705 156.405 191.879 154.347 199.699C153.844 201.574 153.661 204.775 153.661 210.903V219.455L155.399 220.644C157.503 222.108 164.317 224.303 169.439 225.218C183.387 227.641 204.287 227.138 216.269 224.074C220.385 223.022 223.586 221.742 225.507 220.37L226.833 219.455V210.858C226.833 204.775 226.65 201.574 226.147 199.699C224.089 191.787 218.007 185.659 210.141 183.601C206.299 182.641 173.875 182.641 170.171 183.647Z" fill="#0E79BF"/>
</svg>
