<svg width="404" height="391" viewBox="0 0 404 391" fill="none" xmlns="http://www.w3.org/2000/svg">
<path d="M189.88 20.1999V40.3999H202H214.12V20.1999V-9.75728e-05H202H189.88V20.1999Z" fill="#FBE91D"/>
<path d="M139.784 11.1769C134.667 14.2743 130.627 17.3716 130.627 17.9103C130.627 18.5836 135.609 27.2023 141.535 37.1676C152.039 54.5396 152.712 55.213 155.405 53.4623C157.021 52.385 161.465 49.557 165.371 47.133C169.276 44.709 172.373 42.4196 172.104 41.8809C170.488 38.3796 150.019 5.38628 149.48 5.52094C149.076 5.52094 144.767 8.07961 139.784 11.1769Z" fill="#FBE91D"/>
<path d="M243.073 23.0278C237.148 32.8585 232.165 41.2078 231.896 41.7465C231.627 42.2852 236.071 45.5172 241.457 48.8838L251.557 54.9438L262.465 37.0332C268.525 27.2025 273.373 18.5838 273.373 17.9105C273.373 16.9678 255.867 5.38651 254.385 5.38651C254.116 5.38651 248.999 13.3318 243.073 23.0278Z" fill="#FBE91D"/>
<path d="M52.7893 96.0172L0 148.807L19.9307 168.737L39.8613 188.668L42.1507 198.229C45.1133 210.484 51.4427 226.105 57.368 235.801C59.792 239.976 61.9467 244.016 61.9467 244.689C61.9467 245.497 60.6 247.113 59.1187 248.595C51.4427 255.463 48.7493 272.7 53.732 283.608C57.368 291.688 65.1787 298.556 73.528 301.249C79.0493 303 80.8 304.077 80.8 306.097C80.8 307.579 82.416 311.619 84.436 315.255C88.072 321.988 96.96 329.26 103.693 330.876C108.541 331.953 110.023 333.435 110.965 338.148C112.851 347.844 127.125 360.907 135.744 360.907C137.764 360.907 138.707 362.253 139.784 366.563C143.42 380.837 156.348 390.533 171.7 390.533C180.857 390.533 186.513 388.244 193.651 381.915L199.037 376.932L205.367 380.972C216.409 387.975 229.741 388.917 240.245 383.531C247.921 379.625 255.463 369.795 257.079 361.58C257.887 358.079 258.964 357.271 264.62 355.52C274.047 352.692 283.608 343.4 286.84 333.973C289.129 327.105 289.668 326.567 295.728 324.547C307.444 320.641 319.025 307.444 319.16 297.883C319.16 296.267 319.968 294.92 320.911 294.92C329.799 294.92 343.131 285.224 347.575 275.393C351.211 267.583 350.941 255.597 346.901 246.979L343.669 240.111L352.827 219.507L361.984 198.903L382.992 177.895L404 156.887L347.709 100.596L291.553 44.4399L271.219 64.7745L250.749 85.2439L224.355 90.4959L197.825 95.7479L188.399 92.2465C183.147 90.3612 171.565 87.3985 162.543 85.5132L146.248 82.2812L126.587 62.6199C115.813 51.8465 106.791 43.0932 106.387 43.0932C105.983 43.0932 81.8773 66.9292 52.7893 96.0172ZM114.736 84.4359C119.045 88.7452 122.547 92.7852 122.547 93.5932C122.547 94.2665 106.521 110.965 86.86 130.627L51.1733 166.313L42.42 157.56L33.6667 148.807L69.6227 112.716C89.284 92.9199 105.848 76.7599 106.252 76.7599C106.656 76.7599 110.427 80.2612 114.736 84.4359ZM331.549 117.295L370.737 156.483L361.715 165.371L352.827 174.393L313.504 135.071L274.047 95.6132L282.8 86.8599C287.513 82.0119 291.688 78.1065 291.957 78.1065C292.227 78.1065 310.003 95.7479 331.549 117.295ZM159.445 109.08C166.044 110.561 171.835 112.043 172.239 112.447C172.643 112.851 157.964 128.203 139.649 146.517L106.252 179.915L118.776 192.035C125.644 198.633 133.589 205.097 136.283 206.444C147.864 211.831 161.196 211.831 171.969 206.175C174.797 204.693 184.897 195.671 194.593 185.975L212.1 168.333H224.893H237.687L281.723 212.369C305.828 236.744 326.028 257.887 326.432 259.368C328.587 266.371 319.833 273.777 313.369 270.545C311.753 269.737 298.691 257.483 284.551 243.343L258.56 217.487L250.211 225.836L241.727 234.32L269.064 261.657C284.012 276.74 296.267 290.072 296.267 291.419C296.267 294.247 293.708 299.229 291.688 300.576C290.88 301.115 288.187 301.653 285.628 301.653C281.319 301.653 278.625 299.364 254.251 275.124L227.587 248.46L219.372 256.675L211.157 264.889L238.225 291.957C260.176 313.908 265.293 319.699 265.293 322.661C265.293 327.779 260.445 332.627 255.328 332.627C251.827 332.627 248.46 329.933 234.051 315.524L216.813 298.287L208.464 306.636L200.115 315.12L217.217 332.357C235.801 351.211 237.283 354.173 231.357 360.503C226.913 365.351 221.527 364.543 215.332 358.348C211.157 354.173 210.08 352.153 210.08 348.248C210.08 342.861 206.04 333.839 201.461 328.856C199.98 327.105 195.805 324.143 192.304 322.392C186.379 319.429 185.84 318.621 185.84 314.447C185.84 301.653 174.124 288.456 159.984 284.955C157.425 284.416 156.213 283.204 156.213 281.319C156.213 277.279 151.635 269.199 146.517 264.485C140.861 258.964 135.475 256.405 127.933 255.328C122.412 254.52 121.604 253.847 118.237 247.787C116.083 244.151 112.043 239.303 109.08 237.148C103.02 232.839 91.9773 229.741 86.7253 231.088C82.6853 232.165 81.204 230.549 74.8747 218.16C70.0267 208.868 64.64 192.843 64.64 188.129C64.64 184.628 142.073 106.387 145.44 106.387C146.517 106.387 152.847 107.599 159.445 109.08ZM296.132 151.365L338.283 193.516L331.953 208.06L325.489 222.469L286.301 183.281L247.113 144.093H224.893H202.673L181.8 164.967C165.775 180.992 159.984 185.975 156.483 186.648C151.635 187.591 145.44 185.571 142.208 181.935C140.323 179.915 142.612 177.221 170.353 149.48L200.653 119.18L225.297 114.197C238.764 111.504 250.749 109.349 251.827 109.215C252.904 109.08 272.835 128.068 296.132 151.365ZM95.6133 257.213C100.057 261.657 99.1147 266.64 92.516 273.104C86.052 279.433 81.0693 280.376 76.76 276.067C72.5853 271.892 73.528 268.525 80.2613 261.253C87.264 253.847 91.1693 252.769 95.6133 257.213ZM130.223 281.723C135.34 286.571 134.263 290.341 124.836 299.903C115.409 309.195 111.235 310.541 106.387 305.693C101.539 300.845 102.885 296.671 112.177 287.244C121.604 277.952 125.105 276.875 130.223 281.723ZM160.119 311.888C161.735 313.908 162.947 316.736 162.947 318.083C162.947 321.584 146.517 338.013 143.016 338.013C141.669 338.013 138.841 336.801 136.821 335.185C131.031 330.607 132.108 326.567 141.669 316.871C151.365 307.175 155.54 305.963 160.119 311.888ZM185.436 346.901C188.399 351.48 186.783 355.655 179.645 362.119C174.528 366.832 172.912 367.775 169.949 366.967C162.273 365.216 160.657 357.405 166.717 350.537C173.989 342.053 181.261 340.707 185.436 346.901Z" fill="#FBE91D"/>
<path d="M21.816 320.911L8.07996 334.647L16.564 343.131L24.9133 351.48L38.784 337.609C46.3253 330.068 52.52 323.2 52.52 322.257C52.52 320.776 38.2453 307.04 36.6293 307.04C36.0906 307.04 29.492 313.235 21.816 320.911Z" fill="#FBE91D"/>
<path d="M348.113 315.12L340.168 323.2L353.5 337.205C360.907 344.881 367.236 351.211 367.64 351.211C368.044 351.345 372.084 347.844 376.663 343.535L385.147 335.859L371.545 321.449C364.004 313.504 357.54 307.04 357.001 307.04C356.463 307.04 352.557 310.676 348.113 315.12Z" fill="#FBE91D"/>
<path d="M55.752 354.982L42.5547 369.122L50.904 377.336L59.1187 385.686L73.2587 370.872L87.3987 356.194L79.4534 348.383C75.0094 344.208 70.8347 340.707 70.1614 340.707C69.488 340.707 63.024 347.171 55.752 354.982Z" fill="#FBE91D"/>
<path d="M314.716 348.518C310.541 352.827 307.04 356.867 307.04 357.54C307.04 358.348 313.1 364.947 320.507 372.219L333.839 385.686L340.976 379.087C344.881 375.451 348.652 371.546 349.325 370.603C350.133 369.122 346.767 364.947 336.532 354.712L322.527 340.707L314.716 348.518Z" fill="#FBE91D"/>
</svg>
