<svg><defs/><symbol id="calendar" viewBox="0 0 400 400">
<path d="M65.3333 16.0001V32.0001H51.3333C32.5333 32.0001 24.9333 34.8001 13.8666 45.8668C7.06664 52.6668 5.33331 55.4668 2.93331 63.3335L-0.133362 72.6668L0.266638 218.667L0.666638 364.667L4.53331 372.533C9.46664 382.667 17.3333 390.533 27.4666 395.467L35.3333 399.333H200H364.667L372.533 395.467C382.667 390.533 390.533 382.667 395.467 372.533L399.333 364.667V216V67.3335L395.467 58.9335C390.533 48.4001 380.267 38.6668 370 34.8001C364.267 32.6668 359.467 32.0001 348.667 32.0001H334.667V16.0001V0.000141934H319.333H304.133L303.733 15.6001L303.333 31.3335H200H96.6666L96.2666 15.6001L95.8666 0.000141934H80.6666H65.3333V16.0001ZM65.3333 78.0001V93.3335H80.6666H96V78.0001V62.6668H200H304V78.0001V93.3335H319.333H334.667V78.0001V62.6668H346.533C357.333 62.6668 358.8 62.9335 362.533 66.1335C368.133 70.8001 369.333 76.4001 369.333 97.6001V116H200H30.6666V97.6001C30.6666 76.4001 31.8666 70.8001 37.4666 66.1335C41.2 62.9335 42.6666 62.6668 53.4666 62.6668H65.3333V78.0001ZM369.067 252.267C368.667 365.867 368.933 361.6 361.733 366.4C358.4 368.533 348.4 368.667 200 368.667C29.8666 368.667 38.5333 369.067 33.6 361.733C31.4666 358.4 31.3333 350.533 30.9333 252.4L30.5333 146.667H200H369.467L369.067 252.267Z" fill="#0E79BF"/>
<path d="M60 195.334V210.667H75.3333H90.6667V195.334V180H75.3333H60V195.334Z" fill="#0E79BF"/>
<path d="M122.667 195.334V210.667H138H153.333V195.334V180H138H122.667V195.334Z" fill="#0E79BF"/>
<path d="M184 195.334V210.667H200H216V195.334V180H200H184V195.334Z" fill="#0E79BF"/>
<path d="M246.667 195.334V210.667H262H277.333V195.334V180H262H246.667V195.334Z" fill="#0E79BF"/>
<path d="M309.333 195.334V210.667H324.667H340V195.334V180H324.667H309.333V195.334Z" fill="#0E79BF"/>
<path d="M60 258V273.333H75.3333H90.6667V258V242.667H75.3333H60V258Z" fill="#0E79BF"/>
<path d="M122.667 258V273.333H138H153.333V258V242.667H138H122.667V258Z" fill="#0E79BF"/>
<path d="M184 258V273.333H200H216V258V242.667H200H184V258Z" fill="#0E79BF"/>
<path d="M246.667 258V273.333H262H277.333V258V242.667H262H246.667V258Z" fill="#0E79BF"/>
<path d="M309.333 258V273.333H324.667H340V258V242.667H324.667H309.333V258Z" fill="#0E79BF"/>
<path d="M60 320.667V336H75.3333H90.6667V320.667V305.333H75.3333H60V320.667Z" fill="#0E79BF"/>
<path d="M122.667 320.667V336H138H153.333V320.667V305.333H138H122.667V320.667Z" fill="#0E79BF"/>
<path d="M184.267 320.267L184.667 335.333H200H215.333L215.733 320.267L216.133 305.333H200H183.867L184.267 320.267Z" fill="#0E79BF"/>
<path d="M246.667 320.667V336H262H277.333V320.667V305.333H262H246.667V320.667Z" fill="#0E79BF"/>
</symbol><symbol id="email-ph-grey50" viewBox="0 0 250 257">
<path d="M127.716 0.14929C126.762 0.249686 123.6 0.601069 120.688 0.902255C61.7562 7.12676 15.223 50.3971 2.97473 110.233C0.213862 123.736 -0.790091 143.012 0.665641 155.21C3.27592 177.196 10.8056 196.673 23.0036 212.937C26.7182 217.857 35.3522 226.842 40.2716 230.858C56.636 244.311 76.4139 252.643 99.6052 255.957C105.679 256.81 128.87 256.81 136.501 255.957C147.895 254.651 159.29 252.242 168.125 249.23C174.801 246.971 182.431 243.759 182.431 243.206C182.431 242.654 176.408 223.228 176.106 222.625C175.956 222.425 174.149 223.077 172.04 224.031C158.838 230.055 143.93 233.167 125.959 233.619C114.163 233.92 106.733 233.267 97.4467 231.209C82.4878 227.896 68.6835 221.019 57.7404 211.481C36.7578 193.109 25.8649 162.037 28.3245 127.651C30.483 98.1351 41.0246 72.8857 59.0957 54.162C75.0586 37.6971 94.0835 27.7078 117.425 23.6418C123.75 22.5374 142.173 22.3366 149.301 23.3406C177.211 27.3062 198.344 40.5584 210.642 61.9426C218.925 76.3493 222.539 92.3122 221.937 111.688C221.335 130.061 217.72 143.464 210.241 154.758C204.619 163.292 196.135 169.215 188.656 169.868C180.574 170.52 177.01 167.056 175.906 157.519C175.103 150.441 175.153 150.24 183.435 99.1391C185.945 83.879 187.953 70.9782 187.953 70.5264C187.953 67.8659 170.384 62.6454 156.228 61.1394C109.795 56.0695 71.3439 81.7707 60.5012 125.091C58.2423 134.177 57.3388 146.977 58.4431 155.461C60.0997 168.01 65.772 179.255 73.8538 185.83C77.4681 188.792 84.7467 192.256 89.5657 193.36C97.0451 195.067 108.038 194.314 116.672 191.503C126.863 188.19 137.504 179.807 144.331 169.667C145.687 167.659 147.042 166.002 147.293 166.002C147.594 166.002 147.795 166.605 147.795 167.358C147.795 168.161 148.247 170.42 148.799 172.478C151.66 183.521 158.387 190.298 169.33 193.159C176.207 195.017 187.652 194.515 196.888 192.005C216.767 186.634 233.282 170.922 241.815 149.086C245.48 139.699 247.387 131.868 248.742 120.573C249.495 114.148 249.495 98.2355 248.742 92.7138C244.375 60.6375 229.165 35.4884 203.966 18.7726C189.861 9.43586 174.601 3.76351 156.078 1.05283C151.309 0.350067 131.481 -0.302489 127.716 0.14929ZM145.737 90.2541C147.544 90.5553 149.201 90.9568 149.401 91.1576C149.853 91.5592 144.633 127.049 143.528 131.366C140.767 142.058 135.697 151.094 128.82 157.519C124.905 161.234 121.592 163.141 117.225 164.296C110.046 166.103 102.216 163.091 98.4005 157.017C92.3768 147.479 94.4349 126.145 102.667 112.19C112.456 95.5248 128.569 87.3426 145.737 90.2541Z" fill="#E0D9D9"/>
</symbol><symbol id="email-ph" viewBox="0 0 250 257">
<path d="M127.716 0.14929C126.762 0.249686 123.6 0.601069 120.688 0.902255C61.7562 7.12676 15.223 50.3971 2.97473 110.233C0.213862 123.736 -0.790091 143.012 0.665641 155.21C3.27592 177.196 10.8056 196.673 23.0036 212.937C26.7182 217.857 35.3522 226.842 40.2716 230.858C56.636 244.311 76.4139 252.643 99.6052 255.957C105.679 256.81 128.87 256.81 136.501 255.957C147.895 254.651 159.29 252.242 168.125 249.23C174.801 246.971 182.431 243.759 182.431 243.206C182.431 242.654 176.408 223.228 176.106 222.625C175.956 222.425 174.149 223.077 172.04 224.031C158.838 230.055 143.93 233.167 125.959 233.619C114.163 233.92 106.733 233.267 97.4467 231.209C82.4878 227.896 68.6835 221.019 57.7404 211.481C36.7578 193.109 25.8649 162.037 28.3245 127.651C30.483 98.1351 41.0246 72.8857 59.0957 54.162C75.0586 37.6971 94.0835 27.7078 117.425 23.6418C123.75 22.5374 142.173 22.3366 149.301 23.3406C177.211 27.3062 198.344 40.5584 210.642 61.9426C218.925 76.3493 222.539 92.3122 221.937 111.688C221.335 130.061 217.72 143.464 210.241 154.758C204.619 163.292 196.135 169.215 188.656 169.868C180.574 170.52 177.01 167.056 175.906 157.519C175.103 150.441 175.153 150.24 183.435 99.1391C185.945 83.879 187.953 70.9782 187.953 70.5264C187.953 67.8659 170.384 62.6454 156.228 61.1394C109.795 56.0695 71.3439 81.7707 60.5012 125.091C58.2423 134.177 57.3388 146.977 58.4431 155.461C60.0997 168.01 65.772 179.255 73.8538 185.83C77.4681 188.792 84.7467 192.256 89.5657 193.36C97.0451 195.067 108.038 194.314 116.672 191.503C126.863 188.19 137.504 179.807 144.331 169.667C145.687 167.659 147.042 166.002 147.293 166.002C147.594 166.002 147.795 166.605 147.795 167.358C147.795 168.161 148.247 170.42 148.799 172.478C151.66 183.521 158.387 190.298 169.33 193.159C176.207 195.017 187.652 194.515 196.888 192.005C216.767 186.634 233.282 170.922 241.815 149.086C245.48 139.699 247.387 131.868 248.742 120.573C249.495 114.148 249.495 98.2355 248.742 92.7138C244.375 60.6375 229.165 35.4884 203.966 18.7726C189.861 9.43586 174.601 3.76351 156.078 1.05283C151.309 0.350067 131.481 -0.302489 127.716 0.14929ZM145.737 90.2541C147.544 90.5553 149.201 90.9568 149.401 91.1576C149.853 91.5592 144.633 127.049 143.528 131.366C140.767 142.058 135.697 151.094 128.82 157.519C124.905 161.234 121.592 163.141 117.225 164.296C110.046 166.103 102.216 163.091 98.4005 157.017C92.3768 147.479 94.4349 126.145 102.667 112.19C112.456 95.5248 128.569 87.3426 145.737 90.2541Z" fill="#0E79BF"/>
</symbol><symbol id="email-yellow" viewBox="0 0 343 354">
<path d="M175.713 0.20537C174.401 0.343495 170.05 0.826933 166.044 1.24131C84.965 9.80507 20.9439 69.337 4.09268 151.66C0.294234 170.237 -1.08702 196.757 0.915797 213.54C4.50705 243.789 14.8664 270.585 31.6486 292.962C36.7593 299.73 48.638 312.092 55.4062 317.617C77.9206 336.126 105.131 347.59 137.038 352.148C145.395 353.322 177.302 353.322 187.799 352.148C203.476 350.353 219.154 347.038 231.309 342.894C240.494 339.786 250.991 335.366 250.991 334.606C250.991 333.847 242.704 307.119 242.29 306.291C242.082 306.014 239.596 306.912 236.695 308.224C218.532 316.512 198.02 320.794 173.296 321.415C157.066 321.83 146.845 320.932 134.068 318.1C113.488 313.542 94.4956 304.081 79.4399 290.959C50.5718 265.682 35.5852 222.932 38.9693 175.624C41.939 135.016 56.4421 100.277 81.3046 74.5167C103.267 51.8642 129.441 38.1207 161.555 32.5266C170.257 31.0073 195.603 30.731 205.41 32.1123C243.809 37.5682 272.884 55.8007 289.805 85.2214C301.2 105.042 306.172 127.004 305.344 153.662C304.515 178.939 299.542 197.379 289.252 212.918C281.517 224.659 269.845 232.808 259.555 233.706C248.436 234.604 243.533 229.838 242.013 216.717C240.908 206.979 240.977 206.702 252.373 136.397C255.826 115.402 258.588 97.6527 258.588 97.0311C258.588 93.3708 234.416 86.1883 214.941 84.1164C151.058 77.1411 98.1559 112.501 83.2384 172.102C80.1306 184.602 78.8874 202.213 80.4068 213.885C82.6859 231.151 90.49 246.621 101.609 255.668C106.582 259.743 116.596 264.508 123.226 266.027C133.516 268.375 148.641 267.339 160.519 263.472C174.539 258.914 189.18 247.38 198.573 233.43C200.438 230.667 202.302 228.388 202.648 228.388C203.062 228.388 203.338 229.217 203.338 230.253C203.338 231.358 203.96 234.466 204.719 237.297C208.656 252.491 217.91 261.814 232.966 265.751C242.428 268.306 258.174 267.616 270.881 264.163C298.23 256.773 320.952 235.156 332.692 205.114C337.734 192.199 340.358 181.426 342.223 165.886C343.259 157.046 343.259 135.154 342.223 127.557C336.215 83.4258 315.289 48.8254 280.619 25.8276C261.213 12.9819 240.218 5.17786 214.734 1.44848C208.173 0.481601 180.893 -0.416194 175.713 0.20537ZM200.507 124.173C202.993 124.587 205.272 125.14 205.548 125.416C206.17 125.968 198.987 174.796 197.468 180.735C193.669 195.445 186.694 207.877 177.233 216.717C171.846 221.827 167.288 224.452 161.279 226.04C151.403 228.526 140.629 224.382 135.381 216.026C127.093 202.904 129.925 173.552 141.251 154.353C154.718 131.424 176.887 120.167 200.507 124.173Z" fill="#FBE91D"/>
</symbol><symbol id="facebook-blue" viewBox="0 0 56 56">
<g clip-path="url(#clip0_1388_138)">
<path d="M28 0C12.5362 0 0 12.5362 0 28C0 41.1309 9.04064 52.1494 21.2363 55.1757V36.5568H15.4627V28H21.2363V24.313C21.2363 14.7829 25.5494 10.3656 34.9059 10.3656C36.68 10.3656 39.741 10.7139 40.9931 11.0611V18.8171C40.3323 18.7477 39.1843 18.713 37.7586 18.713C33.1677 18.713 31.3936 20.4523 31.3936 24.9738V28H40.5395L38.9682 36.5568H31.3936V55.795C45.2581 54.1206 56.0011 42.3158 56.0011 28C56 12.5362 43.4638 0 28 0Z" fill="#0E79BF"/>
</g>
</symbol><symbol id="facebook" viewBox="0 0 1536.000000 1536.000000">
<metadata>
Created by potrace 1.10, written by Peter Selinger 2001-2011
</metadata>
<g transform="translate(0.000000,1536.000000) scale(0.100000,-0.100000)" fill="#000000" stroke="none">
<path d="M6297 15346 c-4 -10 -33 -16 -104 -20 -237 -15 -786 -97 -978 -147
-22 -6 -67 -17 -100 -25 -209 -52 -560 -160 -725 -224 -30 -12 -66 -25 -80
-30 -30 -10 -291 -120 -375 -158 -93 -42 -424 -211 -466 -238 -21 -13 -41 -24
-43 -24 -6 0 -197 -113 -264 -157 -31 -20 -88 -57 -127 -82 -259 -167 -607
-437 -850 -660 -78 -72 -355 -349 -426 -426 -217 -237 -431 -509 -621 -790
-93 -138 -260 -407 -279 -449 -5 -11 -25 -48 -44 -81 -103 -178 -287 -576
-392 -850 -8 -22 -20 -51 -25 -65 -17 -44 -76 -221 -108 -330 -62 -205 -78
-263 -104 -365 -8 -33 -19 -78 -25 -100 -56 -218 -121 -653 -151 -1005 -13
-162 -13 -878 0 -1040 30 -352 95 -787 151 -1005 6 -22 17 -67 25 -100 17 -67
39 -148 59 -215 71 -240 123 -402 165 -510 12 -30 25 -66 30 -80 48 -145 316
-716 394 -838 14 -23 26 -44 26 -47 0 -10 157 -266 245 -400 451 -683 1045
-1300 1705 -1772 116 -83 156 -110 338 -226 85 -55 271 -167 278 -167 2 0 21
-11 42 -24 41 -26 361 -188 462 -234 52 -24 252 -109 355 -151 11 -5 34 -14
50 -21 17 -7 41 -16 55 -20 14 -5 63 -22 110 -39 47 -17 162 -54 255 -82 228
-69 263 -79 310 -88 22 -5 85 -20 140 -34 150 -38 182 -44 410 -81 407 -66
776 -99 1055 -94 l185 3 0 2620 0 2620 -711 3 c-584 2 -714 5 -723 16 -8 9
-10 240 -9 842 l3 829 712 5 c455 3 716 9 722 15 6 6 11 292 14 780 4 802 6
829 51 1047 96 461 313 862 609 1120 129 113 260 201 397 269 69 33 133 65
142 70 90 46 368 118 571 149 247 36 953 26 1516 -21 116 -10 148 -16 163 -31
17 -17 18 -55 18 -742 0 -645 -2 -726 -16 -740 -14 -14 -73 -16 -507 -16 -607
0 -702 -10 -867 -88 -128 -61 -242 -194 -286 -332 -44 -137 -46 -170 -51 -818
-3 -476 -2 -626 7 -638 11 -12 128 -14 826 -14 733 0 814 -2 829 -16 8 -9 14
-24 11 -33 -5 -16 -12 -67 -41 -289 -28 -215 -46 -347 -56 -417 -6 -38 -14
-106 -19 -150 -5 -44 -19 -152 -30 -240 -24 -180 -48 -371 -58 -460 -4 -33
-11 -66 -15 -72 -7 -10 -159 -13 -707 -13 -430 0 -709 -4 -724 -10 l-26 -10 0
-2480 c0 -2209 2 -2481 15 -2486 14 -6 101 18 280 77 110 36 244 87 370 140
11 4 81 33 155 64 118 49 537 253 565 275 6 4 33 20 60 35 44 24 293 173 360
215 55 35 208 141 315 219 399 290 817 677 1145 1061 211 246 393 489 545 726
36 56 191 314 215 359 15 28 31 55 35 60 11 14 181 354 220 440 18 39 57 129
87 200 30 72 58 139 62 150 5 11 16 40 26 65 9 25 22 56 27 70 26 65 113 341
154 485 36 127 44 154 59 220 9 39 22 95 30 125 20 80 71 358 89 485 102 719
102 1303 0 2015 -23 161 -72 425 -95 515 -6 22 -17 67 -26 100 -37 149 -111
400 -168 570 -18 55 -38 111 -43 125 -5 14 -18 45 -27 70 -21 54 -19 51 -90
220 -87 207 -250 545 -314 650 -11 19 -24 42 -28 50 -10 21 -120 205 -161 270
-107 166 -135 207 -229 340 -144 204 -324 427 -507 630 -91 101 -412 415 -527
516 -245 215 -579 469 -794 604 -61 39 -342 207 -355 213 -8 4 -42 23 -75 42
-89 52 -543 275 -559 275 -4 0 -25 8 -49 19 -49 22 -184 77 -242 98 -22 8 -53
21 -70 28 -36 14 -384 125 -470 149 -33 9 -82 23 -110 31 -27 7 -77 21 -110
29 -33 8 -78 19 -101 25 -198 52 -731 132 -977 147 -71 4 -100 10 -104 20 -8
21 -878 21 -886 0z"/>
</g>
</symbol><symbol id="follow-ph" viewBox="0 0 227 227">
<path d="M107.975 0.716524C96.4042 3.82634 89.2242 15.854 92.151 27.1957C95.2151 38.9032 107.197 46.1747 118.676 43.202C130.383 40.138 137.655 28.156 134.682 16.7686C131.618 4.92392 119.453 -2.39329 107.975 0.716524Z" fill="#0E79BF"/>
<path d="M93.3401 48.2784C85.6113 50.3363 79.5746 56.5102 77.5166 64.3305C77.0136 66.2055 76.8307 69.4068 76.8307 75.535V84.087L78.5685 85.276C80.6722 86.7394 87.4863 88.9346 92.6084 89.8493C106.557 92.2731 127.457 91.77 139.438 88.7059C143.554 87.6541 146.756 86.3736 148.676 85.0016L150.003 84.087V75.4892C150.003 69.4068 149.82 66.2055 149.317 64.3305C147.259 56.4188 141.176 50.2906 133.31 48.2327C129.469 47.2723 97.0444 47.2723 93.3401 48.2784Z" fill="#0E79BF"/>
<path d="M109.758 121.496L109.712 140.612L92.5627 150.856C83.1418 156.482 75.3672 161.238 75.2758 161.375C75.0014 161.787 78.3856 167.366 78.8886 167.366C79.163 167.366 86.8918 162.838 96.0383 157.305C105.231 151.771 112.959 147.244 113.279 147.244C113.645 147.244 133.036 158.677 147.716 167.595C147.853 167.686 148.859 166.36 149.866 164.622L151.786 161.421L134.454 151.039L117.075 140.612V121.542V102.426H113.417H109.758V121.496Z" fill="#0E79BF"/>
<path d="M31.1439 136.085C19.5735 139.195 12.3935 151.222 15.3204 162.564C18.3845 174.271 30.3664 181.543 41.8453 178.57C53.5528 175.506 60.8243 163.524 57.8517 152.137C54.7876 140.292 42.6227 132.975 31.1439 136.085Z" fill="#0E79BF"/>
<path d="M184.805 136.085C173.235 139.195 166.055 151.222 168.982 162.564C172.046 174.271 184.028 181.543 195.507 178.57C207.214 175.506 214.486 163.524 211.513 152.137C208.449 140.292 196.284 132.975 184.805 136.085Z" fill="#0E79BF"/>
<path d="M16.5094 183.647C8.78065 185.705 2.74395 191.879 0.685988 199.699C0.18293 201.574 0 204.775 0 210.903V219.455L1.73784 220.644C3.84153 222.108 10.6557 224.303 15.7777 225.218C29.7261 227.641 50.6259 227.138 62.6078 224.074C66.7238 223.022 69.925 221.742 71.8458 220.37L73.1721 219.455V210.858C73.1721 204.775 72.9891 201.574 72.4861 199.699C70.4281 191.787 64.3457 185.659 56.4797 183.601C52.6381 182.641 20.2138 182.641 16.5094 183.647Z" fill="#0E79BF"/>
<path d="M170.171 183.647C162.442 185.705 156.405 191.879 154.347 199.699C153.844 201.574 153.661 204.775 153.661 210.903V219.455L155.399 220.644C157.503 222.108 164.317 224.303 169.439 225.218C183.387 227.641 204.287 227.138 216.269 224.074C220.385 223.022 223.586 221.742 225.507 220.37L226.833 219.455V210.858C226.833 204.775 226.65 201.574 226.147 199.699C224.089 191.787 218.007 185.659 210.141 183.601C206.299 182.641 173.875 182.641 170.171 183.647Z" fill="#0E79BF"/>
</symbol><symbol id="fussballfeld-ph" viewBox="0 0 683 683">
<path d="M55.3333 151.2C49.8666 153.6 44.2666 160.4 43.3333 165.733C42.9333 168.133 42.8 248.667 42.9333 344.933C43.3333 519.2 43.3333 519.867 46.1333 523.467C47.6 525.467 50.5333 528.4 52.5333 529.867L56.1333 532.667H341.333H626.533L630.133 529.867C632.133 528.4 635.067 525.467 636.533 523.467C639.333 519.867 639.333 519.467 639.333 341.333C639.333 163.2 639.333 162.8 636.533 159.2C635.067 157.2 632.133 154.267 630.133 152.8L626.533 150L342.933 149.733C109.2 149.467 58.6666 149.733 55.3333 151.2ZM320 225.067V258.267L311.067 261.733C290.8 269.733 275.067 284 265.467 303.067C242.667 348.267 263.467 402.267 310.8 420.8L320 424.4V457.6V490.667H202.667H85.3333V469.333V448H99.7333C118 448 129.867 445.467 144 438.533C166.533 427.467 184.933 403.867 190 379.333C192.667 366.4 192.667 316.267 190 303.333C184.933 278.8 166.533 255.2 144 244.133C129.867 237.2 118 234.667 99.7333 234.667H85.3333V213.333V192H202.667H320V225.067ZM597.333 213.333V234.667H583.067C564.667 234.667 552.8 237.2 538.667 244.133C516.133 255.2 497.733 278.8 492.667 303.333C490 316.267 490 366.4 492.667 379.333C497.733 403.867 516.133 427.467 538.667 438.533C552.8 445.467 564.667 448 583.067 448H597.333V469.333V490.667H480H362.667V457.467V424.267L368.8 422.133C386.533 416.133 405.333 400.533 415.067 384C434.267 351.067 428.933 309.067 402.133 282C392.533 272.267 380.4 264.4 368.8 260.533L362.667 258.4V225.2V192H480H597.333V213.333ZM122.933 280.933C131.733 284.933 140.667 293.733 144.933 302.533L148.667 310V341.333V372.667L144.933 380.133C140.667 389.067 131.6 397.733 122.933 401.733C118.133 403.867 113.067 404.667 101.067 405.067L85.3333 405.6V341.333V277.067L101.067 277.6C113.333 278 118 278.667 122.933 280.933ZM597.333 341.467V405.6L581.733 405.067C569.6 404.667 564.533 403.867 559.733 401.733C551.067 397.733 542 389.067 537.733 380.133C534 372.8 534 372.133 533.6 344.4C533.067 312.267 534.267 305.6 541.733 295.867C552.267 282.133 562.8 277.467 583.733 277.333H597.333V341.467ZM320 341.333C320 361.067 319.6 377.333 318.933 377.333C316.133 377.333 308 368.533 303.867 361.067C299.733 353.333 299.333 351.733 299.467 341.333C299.467 332.133 300.133 328.8 302.667 323.333C305.867 316.667 316 305.333 318.667 305.333C319.6 305.333 320 317.6 320 341.333ZM369.467 309.2C372 311.333 376.267 316.933 378.8 321.6C382.933 329.333 383.333 330.933 383.333 341.333C383.333 351.733 382.933 353.333 378.8 361.067C374.667 368.533 366.533 377.333 363.733 377.333C363.067 377.333 362.667 361.067 362.667 341.333C362.667 321.467 363.067 305.333 363.733 305.333C364.267 305.333 366.8 307.067 369.467 309.2Z" fill="#0E79BF"/>
</symbol><symbol id="Gemeinschaft" viewBox="0 0 657 440">
<path d="M149.467 0.950485C121.6 4.15048 94.2667 19.3505 76.6667 41.3505C42.1334 84.6838 44.5334 146.15 82.4 186.15C113.6 219.217 160.533 229.617 203.467 212.95C208.933 210.817 216.4 207.217 220.133 204.817L226.8 200.55L224.133 196.95C210.8 179.75 202.133 162.95 197.2 144.817C194.533 134.817 194.133 130.55 194.267 109.484C194.267 87.2171 194.533 84.6838 198 73.4838C202.667 58.0171 210.667 42.0171 219.467 30.2838C227.333 20.0172 227.467 20.6838 216.8 14.5505C197.467 3.35048 172.667 -1.71618 149.467 0.950485Z" fill="#0E79BF"/>
<path d="M313.733 0.817225C242.4 10.6839 199.333 83.8839 225.333 150.817C238.533 184.951 269.733 211.217 305.733 218.684C366.8 231.351 426.133 190.684 436.933 128.684C441.867 100.417 434.933 70.5506 418.133 46.8172C411.6 37.6172 398.4 24.6839 389.067 18.2839C368.933 4.55056 338.267 -2.51611 313.733 0.817225Z" fill="#0E79BF"/>
<path d="M480.133 0.817257C464.133 2.68392 445.2 9.75059 430.933 19.3506C429.467 20.2839 430.667 22.4173 436.133 29.6173C444.933 41.3506 455.2 62.2839 459.067 76.8173C461.733 86.5506 462.133 91.3506 462.133 110.817C462.133 130.417 461.733 135.084 459.067 144.817C454 163.084 444 182.684 433.2 195.217C431.067 197.617 429.733 200.151 430.133 200.817C431.6 203.084 447.733 211.484 457.067 214.817C462.133 216.551 470.4 218.684 475.333 219.617C488.4 221.884 514.133 220.417 526.8 216.817C563.067 206.417 592.4 176.817 603.067 139.884C605.733 131.084 606.133 126.417 606 109.484C606 90.5506 605.733 88.8173 601.6 76.8173C591.467 46.9506 573.067 25.6173 546.133 12.1506C526.133 2.15059 503.2 -1.84941 480.133 0.817257Z" fill="#0E79BF"/>
<path d="M63.4667 220.417C51.2 228.684 31.6 248.284 23.4667 260.684C15.6 272.551 8.26667 289.484 4 304.817C1.06667 315.751 0.933333 318.284 0.4 377.884L0 439.484L70.4 439.217L140.8 438.817L141.467 374.817L142.267 310.817L145.733 298.151C150 282.951 156.933 266.151 163.467 255.084C166.133 250.684 168 246.951 167.867 246.817C167.6 246.684 160.533 245.884 152.133 245.084C143.733 244.151 132.267 242.284 126.8 240.817C114.4 237.351 92.4 226.684 83.0667 219.617C79.2 216.551 75.3333 214.151 74.4 214.151C73.6 214.151 68.6667 217.084 63.4667 220.417Z" fill="#0E79BF"/>
<path d="M228.667 220.951C216.267 229.084 198.933 246.017 190.933 257.751C178.4 276.551 169.867 298.417 166.933 320.017C166.133 326.017 165.467 353.351 165.467 384.951V439.484H328.267H490.933L490.533 378.417L490 317.484L486.4 304.417C479.467 278.417 463.733 252.017 445.333 234.951C437.067 227.217 418.667 214.151 416.267 214.151C415.467 214.151 411.733 216.551 407.867 219.617C398.533 226.684 376.667 237.351 364.4 240.684C331.867 249.617 299.333 246.417 268.8 231.484C261.467 227.884 252.267 222.551 248.4 219.617C244.533 216.551 240.933 214.151 240.267 214.151C239.6 214.151 234.4 217.217 228.667 220.951Z" fill="#0E79BF"/>
<path d="M573.333 219.617C554.8 233.484 526.4 243.751 501.067 245.617C493.867 246.151 488.133 246.684 488.133 246.951C488.133 247.217 490.267 250.951 492.8 255.351C498.267 264.684 501.867 272.684 506.4 285.484C513.733 306.684 513.867 307.751 514.667 375.484L515.467 438.817L585.867 439.217L656.133 439.484V384.284C656.133 352.551 655.467 324.551 654.667 318.551C650.533 288.151 633.867 256.551 610.4 234.684C602.267 227.084 584.267 214.151 581.867 214.151C581.2 214.151 577.333 216.551 573.333 219.617Z" fill="#0E79BF"/>
</symbol><symbol id="gesundheit" viewBox="0 0 682 638">
<path d="M187.035 0.681103C106.635 11.2144 42.768 60.0144 13.8346 133.348C-6.83205 185.748 -4.16538 250.281 20.6346 299.748L27.0346 312.414L77.7013 312.814L128.368 313.081L181.035 221.881C209.968 171.614 234.101 130.948 234.501 131.481C234.901 132.014 250.501 178.814 269.168 235.481C295.035 314.414 303.301 338.014 304.368 336.548C305.168 335.481 322.635 304.814 343.035 268.414C375.168 211.481 380.501 202.681 381.968 204.548C382.901 205.881 397.568 230.681 414.635 259.881L445.568 312.948L480.368 313.348C518.768 313.748 520.501 314.148 526.501 322.681C531.168 329.214 531.701 341.614 527.435 347.614C525.835 350.148 522.635 353.481 520.635 354.948C516.901 357.614 515.435 357.748 468.101 357.748H419.435L400.635 326.014C390.368 308.681 381.435 294.814 380.901 295.348C380.235 296.014 360.101 331.081 335.835 373.481L291.968 450.548L257.035 345.614C234.501 278.281 221.568 241.348 220.901 242.548C220.368 243.614 205.168 269.881 187.301 301.081L154.768 357.748L108.501 358.414L62.368 359.081L201.701 498.414L341.035 637.748L488.101 490.414C629.435 348.814 635.568 342.548 645.301 327.748C656.635 310.548 664.235 295.881 669.568 281.081C697.701 202.948 677.168 115.081 617.568 58.4144C556.501 0.414436 468.101 -15.7189 390.235 16.9478C377.568 22.2811 358.635 33.0811 348.768 40.5478L341.301 46.4144L332.901 40.1478C297.035 13.7478 252.901 -0.518897 208.368 0.0144361C198.901 0.0144361 189.301 0.414436 187.035 0.681103Z" fill="#0E79BF"/>
</symbol><symbol id="handschlag-yellow" viewBox="0 0 404 391">
<path d="M189.88 20.1999V40.3999H202H214.12V20.1999V-9.75728e-05H202H189.88V20.1999Z" fill="#FBE91D"/>
<path d="M139.784 11.1769C134.667 14.2743 130.627 17.3716 130.627 17.9103C130.627 18.5836 135.609 27.2023 141.535 37.1676C152.039 54.5396 152.712 55.213 155.405 53.4623C157.021 52.385 161.465 49.557 165.371 47.133C169.276 44.709 172.373 42.4196 172.104 41.8809C170.488 38.3796 150.019 5.38628 149.48 5.52094C149.076 5.52094 144.767 8.07961 139.784 11.1769Z" fill="#FBE91D"/>
<path d="M243.073 23.0278C237.148 32.8585 232.165 41.2078 231.896 41.7465C231.627 42.2852 236.071 45.5172 241.457 48.8838L251.557 54.9438L262.465 37.0332C268.525 27.2025 273.373 18.5838 273.373 17.9105C273.373 16.9678 255.867 5.38651 254.385 5.38651C254.116 5.38651 248.999 13.3318 243.073 23.0278Z" fill="#FBE91D"/>
<path d="M52.7893 96.0172L0 148.807L19.9307 168.737L39.8613 188.668L42.1507 198.229C45.1133 210.484 51.4427 226.105 57.368 235.801C59.792 239.976 61.9467 244.016 61.9467 244.689C61.9467 245.497 60.6 247.113 59.1187 248.595C51.4427 255.463 48.7493 272.7 53.732 283.608C57.368 291.688 65.1787 298.556 73.528 301.249C79.0493 303 80.8 304.077 80.8 306.097C80.8 307.579 82.416 311.619 84.436 315.255C88.072 321.988 96.96 329.26 103.693 330.876C108.541 331.953 110.023 333.435 110.965 338.148C112.851 347.844 127.125 360.907 135.744 360.907C137.764 360.907 138.707 362.253 139.784 366.563C143.42 380.837 156.348 390.533 171.7 390.533C180.857 390.533 186.513 388.244 193.651 381.915L199.037 376.932L205.367 380.972C216.409 387.975 229.741 388.917 240.245 383.531C247.921 379.625 255.463 369.795 257.079 361.58C257.887 358.079 258.964 357.271 264.62 355.52C274.047 352.692 283.608 343.4 286.84 333.973C289.129 327.105 289.668 326.567 295.728 324.547C307.444 320.641 319.025 307.444 319.16 297.883C319.16 296.267 319.968 294.92 320.911 294.92C329.799 294.92 343.131 285.224 347.575 275.393C351.211 267.583 350.941 255.597 346.901 246.979L343.669 240.111L352.827 219.507L361.984 198.903L382.992 177.895L404 156.887L347.709 100.596L291.553 44.4399L271.219 64.7745L250.749 85.2439L224.355 90.4959L197.825 95.7479L188.399 92.2465C183.147 90.3612 171.565 87.3985 162.543 85.5132L146.248 82.2812L126.587 62.6199C115.813 51.8465 106.791 43.0932 106.387 43.0932C105.983 43.0932 81.8773 66.9292 52.7893 96.0172ZM114.736 84.4359C119.045 88.7452 122.547 92.7852 122.547 93.5932C122.547 94.2665 106.521 110.965 86.86 130.627L51.1733 166.313L42.42 157.56L33.6667 148.807L69.6227 112.716C89.284 92.9199 105.848 76.7599 106.252 76.7599C106.656 76.7599 110.427 80.2612 114.736 84.4359ZM331.549 117.295L370.737 156.483L361.715 165.371L352.827 174.393L313.504 135.071L274.047 95.6132L282.8 86.8599C287.513 82.0119 291.688 78.1065 291.957 78.1065C292.227 78.1065 310.003 95.7479 331.549 117.295ZM159.445 109.08C166.044 110.561 171.835 112.043 172.239 112.447C172.643 112.851 157.964 128.203 139.649 146.517L106.252 179.915L118.776 192.035C125.644 198.633 133.589 205.097 136.283 206.444C147.864 211.831 161.196 211.831 171.969 206.175C174.797 204.693 184.897 195.671 194.593 185.975L212.1 168.333H224.893H237.687L281.723 212.369C305.828 236.744 326.028 257.887 326.432 259.368C328.587 266.371 319.833 273.777 313.369 270.545C311.753 269.737 298.691 257.483 284.551 243.343L258.56 217.487L250.211 225.836L241.727 234.32L269.064 261.657C284.012 276.74 296.267 290.072 296.267 291.419C296.267 294.247 293.708 299.229 291.688 300.576C290.88 301.115 288.187 301.653 285.628 301.653C281.319 301.653 278.625 299.364 254.251 275.124L227.587 248.46L219.372 256.675L211.157 264.889L238.225 291.957C260.176 313.908 265.293 319.699 265.293 322.661C265.293 327.779 260.445 332.627 255.328 332.627C251.827 332.627 248.46 329.933 234.051 315.524L216.813 298.287L208.464 306.636L200.115 315.12L217.217 332.357C235.801 351.211 237.283 354.173 231.357 360.503C226.913 365.351 221.527 364.543 215.332 358.348C211.157 354.173 210.08 352.153 210.08 348.248C210.08 342.861 206.04 333.839 201.461 328.856C199.98 327.105 195.805 324.143 192.304 322.392C186.379 319.429 185.84 318.621 185.84 314.447C185.84 301.653 174.124 288.456 159.984 284.955C157.425 284.416 156.213 283.204 156.213 281.319C156.213 277.279 151.635 269.199 146.517 264.485C140.861 258.964 135.475 256.405 127.933 255.328C122.412 254.52 121.604 253.847 118.237 247.787C116.083 244.151 112.043 239.303 109.08 237.148C103.02 232.839 91.9773 229.741 86.7253 231.088C82.6853 232.165 81.204 230.549 74.8747 218.16C70.0267 208.868 64.64 192.843 64.64 188.129C64.64 184.628 142.073 106.387 145.44 106.387C146.517 106.387 152.847 107.599 159.445 109.08ZM296.132 151.365L338.283 193.516L331.953 208.06L325.489 222.469L286.301 183.281L247.113 144.093H224.893H202.673L181.8 164.967C165.775 180.992 159.984 185.975 156.483 186.648C151.635 187.591 145.44 185.571 142.208 181.935C140.323 179.915 142.612 177.221 170.353 149.48L200.653 119.18L225.297 114.197C238.764 111.504 250.749 109.349 251.827 109.215C252.904 109.08 272.835 128.068 296.132 151.365ZM95.6133 257.213C100.057 261.657 99.1147 266.64 92.516 273.104C86.052 279.433 81.0693 280.376 76.76 276.067C72.5853 271.892 73.528 268.525 80.2613 261.253C87.264 253.847 91.1693 252.769 95.6133 257.213ZM130.223 281.723C135.34 286.571 134.263 290.341 124.836 299.903C115.409 309.195 111.235 310.541 106.387 305.693C101.539 300.845 102.885 296.671 112.177 287.244C121.604 277.952 125.105 276.875 130.223 281.723ZM160.119 311.888C161.735 313.908 162.947 316.736 162.947 318.083C162.947 321.584 146.517 338.013 143.016 338.013C141.669 338.013 138.841 336.801 136.821 335.185C131.031 330.607 132.108 326.567 141.669 316.871C151.365 307.175 155.54 305.963 160.119 311.888ZM185.436 346.901C188.399 351.48 186.783 355.655 179.645 362.119C174.528 366.832 172.912 367.775 169.949 366.967C162.273 365.216 160.657 357.405 166.717 350.537C173.989 342.053 181.261 340.707 185.436 346.901Z" fill="#FBE91D"/>
<path d="M21.816 320.911L8.07996 334.647L16.564 343.131L24.9133 351.48L38.784 337.609C46.3253 330.068 52.52 323.2 52.52 322.257C52.52 320.776 38.2453 307.04 36.6293 307.04C36.0906 307.04 29.492 313.235 21.816 320.911Z" fill="#FBE91D"/>
<path d="M348.113 315.12L340.168 323.2L353.5 337.205C360.907 344.881 367.236 351.211 367.64 351.211C368.044 351.345 372.084 347.844 376.663 343.535L385.147 335.859L371.545 321.449C364.004 313.504 357.54 307.04 357.001 307.04C356.463 307.04 352.557 310.676 348.113 315.12Z" fill="#FBE91D"/>
<path d="M55.752 354.982L42.5547 369.122L50.904 377.336L59.1187 385.686L73.2587 370.872L87.3987 356.194L79.4534 348.383C75.0094 344.208 70.8347 340.707 70.1614 340.707C69.488 340.707 63.024 347.171 55.752 354.982Z" fill="#FBE91D"/>
<path d="M314.716 348.518C310.541 352.827 307.04 356.867 307.04 357.54C307.04 358.348 313.1 364.947 320.507 372.219L333.839 385.686L340.976 379.087C344.881 375.451 348.652 371.546 349.325 370.603C350.133 369.122 346.767 364.947 336.532 354.712L322.527 340.707L314.716 348.518Z" fill="#FBE91D"/>
</symbol><symbol id="icon-aboutus" viewBox="0 0 24 24"><path d="M12 2.5a5.5 5.5 0 0 1 3.096 10.047 9.005 9.005 0 0 1 5.9 8.181.75.75 0 1 1-1.499.044 7.5 7.5 0 0 0-14.993 0 .75.75 0 0 1-1.5-.045 9.005 9.005 0 0 1 5.9-8.18A5.5 5.5 0 0 1 12 2.5ZM8 8a4 4 0 1 0 8 0 4 4 0 0 0-8 0Z"/></symbol><symbol id="icon-contact" viewBox="0 0 32 32"><path fill="none" stroke="currentColor" stroke-linecap="round" stroke-linejoin="round" stroke-width="2" d="M29 9v14a2 2 0 0 1-2 2H5a2 2 0 0 1-2-2V9m26 0a2 2 0 0 0-2-2H5a2 2 0 0 0-2 2m26 0l-11.862 8.212a2 2 0 0 1-2.276 0L3 9"/></symbol><symbol id="icon-download" viewBox="0 0 300.000000 300.000000">
<metadata>
Created by potrace 1.10, written by Peter Selinger 2001-2011
</metadata>
<g transform="translate(0.000000,300.000000) scale(0.100000,-0.100000)" fill="#000000" stroke="none">
<path d="M1155 2784 c-342 -56 -605 -296 -687 -627 -20 -83 -22 -85 -54 -91
-69 -14 -178 -78 -245 -146 -187 -189 -222 -489 -84 -726 45 -79 149 -174 236
-217 115 -57 189 -67 483 -67 247 0 254 1 287 23 18 12 40 34 47 47 20 39 8
98 -27 134 l-31 31 -293 5 c-334 6 -343 8 -438 97 -88 82 -126 191 -107 311
25 162 139 274 295 289 101 10 143 48 143 132 0 142 73 303 185 409 115 110
244 162 400 162 161 0 282 -51 417 -178 101 -94 91 -92 235 -62 125 27 269
-37 343 -151 38 -58 60 -129 60 -190 0 -41 25 -86 58 -102 15 -8 53 -17 85
-20 232 -23 365 -268 267 -495 -27 -61 -110 -144 -177 -175 -45 -21 -66 -22
-340 -27 l-293 -5 -31 -31 c-35 -36 -47 -95 -27 -134 7 -13 29 -35 47 -47 33
-22 40 -23 287 -23 181 0 274 4 329 15 263 50 457 272 472 540 15 274 -137
508 -385 591 l-64 22 -26 78 c-62 182 -202 317 -387 374 -56 17 -91 21 -177
19 l-107 -3 -72 58 c-86 69 -200 128 -301 156 -72 21 -257 34 -323 24z"/>
<path d="M1422 1816 l-37 -34 -5 -606 -5 -606 -79 79 c-44 44 -92 85 -108 92
-81 33 -175 -51 -153 -139 8 -35 305 -336 360 -365 29 -15 58 -21 105 -21 47
0 76 6 105 21 55 29 352 330 360 366 21 83 -66 167 -147 142 -12 -4 -62 -46
-110 -93 l-88 -86 0 593 c0 644 2 625 -56 670 -42 33 -96 28 -142 -13z"/>
</g>
</symbol><symbol id="icon-football" viewBox="0 0 512 512"><circle cx="256" cy="256" r="192" fill="none" stroke="currentColor" stroke-linecap="round" stroke-miterlimit="10" stroke-width="32"/><path fill="none" stroke="currentColor" stroke-linecap="round" stroke-linejoin="round" stroke-width="32" d="m256 175.15l-76.09 63.83L200 320h112l20.09-81.02zm76.09 63.83l52.87-22.4l25.78-73.26M447 269.97l-62.04-53.39m-205.05 22.4l-52.87-22.4l-25.78-73.26M65 269.97l62.04-53.39M256 175.15v-57.57l64-42.64m-128-.01l64 42.65M312 320l28 48l-28 71m98.74-71H342m-142-48l-28 48l28.37 71.5M101.63 368H172"/></symbol><symbol id="icon-impressions" viewBox="0 0 249.000000 209.000000">
<metadata>
Created by potrace 1.10, written by Peter Selinger 2001-2011
</metadata>
<g transform="translate(0.000000,209.000000) scale(0.050000,-0.050000)" fill="#000000" stroke="none">
<path d="M400 3993 c-256 -119 -240 10 -240 -1893 0 -1845 -10 -1732 164
-1853 l83 -57 2061 -6 c1501 -4 2085 1 2145 17 96 27 201 120 240 213 40 96
40 3276 0 3372 -35 82 -134 177 -218 207 -93 34 -4163 34 -4235 0z m4158 -300
c16 -20 21 -333 17 -1133 l-5 -1106 -307 245 c-478 382 -583 395 -932 113 -77
-61 -147 -112 -156 -112 -8 0 -238 185 -510 412 -576 479 -572 477 -745 477
-178 0 -168 7 -850 -591 l-600 -525 -5 1096 c-4 793 1 1104 17 1124 34 40
4042 40 4076 0z m-2111 -1786 c260 -216 473 -399 473 -407 0 -9 -65 -68 -145
-133 -207 -167 -249 -254 -160 -331 105 -90 115 -84 624 323 536 429 442 427
951 21 l389 -310 1 -271 c0 -185 -8 -279 -24 -295 -35 -35 -4037 -35 -4072 0
-16 16 -24 111 -24 296 l0 273 703 613 c552 483 714 614 757 614 41 0 168 -95
527 -393z"/>
<path d="M3486 3387 c-385 -136 -497 -672 -200 -963 380 -372 998 -111 996
421 -1 406 -404 681 -796 542z m297 -268 c287 -79 262 -515 -31 -570 -349 -65
-480 469 -140 570 79 24 87 24 171 0z"/>
</g>
</symbol><symbol id="icon-member" viewBox="0 0 24 24"><path d="M4 9.5a5 5 0 1 1 7.916 4.062 7.973 7.973 0 0 1 5.018 7.166.75.75 0 1 1-1.499.044 6.469 6.469 0 0 0-12.932 0 .75.75 0 0 1-1.499-.044 7.972 7.972 0 0 1 5.059-7.181A4.994 4.994 0 0 1 4 9.5ZM9 6a3.5 3.5 0 1 0 0 7 3.5 3.5 0 0 0 0-7Zm10.25-5a.75.75 0 0 1 .75.75V4h2.25a.75.75 0 0 1 0 1.5H20v2.25a.75.75 0 0 1-1.5 0V5.5h-2.25a.75.75 0 0 1 0-1.5h2.25V1.75a.75.75 0 0 1 .75-.75Z"/></symbol><symbol id="icon-news" viewBox="0 0 2048 2048"><path fill="currentColor" d="M2048 512v896q0 53-20 99t-55 81t-82 55t-99 21H249q-51 0-96-20t-79-53t-54-79t-20-97V256h1792v256zm-128 128h-128v704q0 26-19 45t-45 19t-45-19t-19-45V384H128v1031q0 25 9 47t26 38t39 26t47 10h1543q27 0 50-10t40-27t28-41t10-50zm-384 0H256V512h1280zm0 768h-512v-128h512zm0-256h-512v-128h512zm0-256h-512V768h512zm-640 512H256V765h640zm-512-128h384V893H384z"/></symbol><symbol id="icon-tabletennis" viewBox="0 0 32 32"><path fill="currentColor" d="M7 4C5.355 4 4 5.355 4 7s1.355 3 3 3s3-1.355 3-3s-1.355-3-3-3m11.938.906A9 9 0 0 0 18 4.97c-2.469.289-4.773 1.554-6.531 3.312c-1.235 1.23-2.258 3-2.594 6.281a1 1 0 0 0-.031.094v.031a1 1 0 0 0-.063.157c-.004.023.004.035 0 .062v.125a1.1 1.1 0 0 0 .094.375c.05.899.176 1.817.5 2.688h-.031c.015.086.117.515.125.937c.004.317-.11.606-.125.688c-.61.605-1.34 1.238-2.031 1.781s-1.29 1.012-1.72 1.438h-.03A2.33 2.33 0 0 0 4.968 25c.152.7.554 1.305 1.093 1.844c.536.535 1.145.933 1.844 1.093s1.547-.046 2.094-.593c.438-.438.86-1.055 1.406-1.75c.547-.696 1.168-1.45 1.781-2.063c-.07.07.235-.093.626-.093c.316 0 .578.03.78.062c.052.008.157.027.188.031c.871.324 1.79.446 2.688.5c.011 0 .02.032.031.032q.107.027.219.03a1 1 0 0 0 .093.032H18q.094-.007.188-.031c.039-.004.054-.028.093-.032h.032c3.011-.25 5.03-1.34 6.312-2.625c1.758-1.757 3.023-4.062 3.313-6.53c.289-2.47-.481-5.106-2.657-7.282c-1.902-1.902-4.156-2.734-6.343-2.719M7 6c.563 0 1 .438 1 1s-.438 1-1 1s-1-.438-1-1s.438-1 1-1m11.938.906c1.687-.031 3.378.567 4.937 2.125c1.785 1.781 2.29 3.73 2.063 5.656s-1.239 3.864-2.72 5.344c-.995.996-2.44 1.774-4.968 2l-7.375-7.375c.293-2.82.988-3.894 2.031-4.937c1.48-1.48 3.383-2.524 5.313-2.75c.242-.028.476-.059.718-.063zM11.343 18l3.562 3.531a6.3 6.3 0 0 0-1.094-.093c-.609.003-1.382.039-2.03.687a25 25 0 0 0-1.938 2.219c-.559.71-1.055 1.367-1.281 1.593c-.118.118-.06.098-.22.063s-.484-.234-.843-.594c-.352-.351-.527-.676-.563-.843c-.035-.168-.07-.122.032-.22c.21-.21.847-.718 1.562-1.28s1.531-1.22 2.25-1.938c.692-.691.7-1.492.688-2.125c-.008-.48-.082-.762-.125-1"/></symbol><symbol id="icon-tennis" viewBox="0 0 24 24"><path fill="currentColor" fill-rule="evenodd" d="M12.45 2.76a9.2 9.2 0 0 0-5.075 1.229a9.2 9.2 0 0 0-3.602 3.78c.365.234.865.584 1.442 1.068c1.176.988 2.67 2.535 3.97 4.788c1.301 2.252 1.894 4.32 2.161 5.833c.131.74.184 1.349.204 1.782a9.2 9.2 0 0 0 5.075-1.23a9.2 9.2 0 0 0 3.603-3.78a14 14 0 0 1-1.442-1.068c-1.177-.987-2.67-2.535-3.971-4.787c-1.3-2.253-1.894-4.32-2.16-5.833a14 14 0 0 1-.204-1.783m1.515.2c.025.35.074.797.166 1.321c.242 1.37.783 3.266 1.983 5.344c1.2 2.077 2.571 3.494 3.636 4.389c.408.342.77.608 1.06.804a9.22 9.22 0 0 0-.799-7.443a9.23 9.23 0 0 0-6.046-4.414m-3.93 18.079c-.024-.35-.073-.796-.166-1.32c-.242-1.37-.783-3.267-1.982-5.344c-1.2-2.078-2.572-3.495-3.637-4.39c-.408-.342-.77-.607-1.06-.803a9.23 9.23 0 0 0 .8 7.443a9.23 9.23 0 0 0 6.045 4.414m-3.41-18.35a10.7 10.7 0 0 1 6.661-1.363a10.74 10.74 0 0 1 8.024 5.299a10.74 10.74 0 0 1 .577 9.598a10.7 10.7 0 0 1-4.512 5.087c-5.141 2.968-11.716 1.206-14.684-3.935C-.278 12.233 1.484 5.658 6.625 2.69" clip-rule="evenodd"/></symbol><symbol id="instagram-blue" viewBox="0 0 56 56">
<g clip-path="url(#clip0_1388_140)">
<path d="M28 5.04219C35.4813 5.04219 36.3672 5.075 39.3094 5.20625C42.0438 5.32656 43.5203 5.78594 44.5047 6.16875C45.8063 6.67188 46.7469 7.28437 47.7203 8.25781C48.7047 9.24219 49.3063 10.1719 49.8094 11.4734C50.1922 12.4578 50.6516 13.9453 50.7719 16.6687C50.9031 19.6219 50.9359 20.5078 50.9359 27.9781C50.9359 35.4594 50.9031 36.3453 50.7719 39.2875C50.6516 42.0219 50.1922 43.4984 49.8094 44.4828C49.3063 45.7844 48.6937 46.725 47.7203 47.6984C46.7359 48.6828 45.8063 49.2844 44.5047 49.7875C43.5203 50.1703 42.0328 50.6297 39.3094 50.75C36.3563 50.8812 35.4703 50.9141 28 50.9141C20.5188 50.9141 19.6328 50.8812 16.6906 50.75C13.9563 50.6297 12.4797 50.1703 11.4953 49.7875C10.1938 49.2844 9.25312 48.6719 8.27969 47.6984C7.29531 46.7141 6.69375 45.7844 6.19062 44.4828C5.80781 43.4984 5.34844 42.0109 5.22813 39.2875C5.09688 36.3344 5.06406 35.4484 5.06406 27.9781C5.06406 20.4969 5.09688 19.6109 5.22813 16.6687C5.34844 13.9344 5.80781 12.4578 6.19062 11.4734C6.69375 10.1719 7.30625 9.23125 8.27969 8.25781C9.26406 7.27344 10.1938 6.67188 11.4953 6.16875C12.4797 5.78594 13.9672 5.32656 16.6906 5.20625C19.6328 5.075 20.5188 5.04219 28 5.04219ZM28 0C20.3984 0 19.4469 0.0328125 16.4609 0.164062C13.4859 0.295312 11.4406 0.776562 9.66875 1.46562C7.82031 2.1875 6.25625 3.13906 4.70313 4.70312C3.13906 6.25625 2.1875 7.82031 1.46562 9.65781C0.776562 11.4406 0.295313 13.475 0.164063 16.45C0.0328125 19.4469 0 20.3984 0 28C0 35.6016 0.0328125 36.5531 0.164063 39.5391C0.295313 42.5141 0.776562 44.5594 1.46562 46.3313C2.1875 48.1797 3.13906 49.7437 4.70313 51.2969C6.25625 52.85 7.82031 53.8125 9.65781 54.5234C11.4406 55.2125 13.475 55.6937 16.45 55.825C19.4359 55.9562 20.3875 55.9891 27.9891 55.9891C35.5906 55.9891 36.5422 55.9562 39.5281 55.825C42.5031 55.6937 44.5484 55.2125 46.3203 54.5234C48.1578 53.8125 49.7219 52.85 51.275 51.2969C52.8281 49.7437 53.7906 48.1797 54.5016 46.3422C55.1906 44.5594 55.6719 42.525 55.8031 39.55C55.9344 36.5641 55.9672 35.6125 55.9672 28.0109C55.9672 20.4094 55.9344 19.4578 55.8031 16.4719C55.6719 13.4969 55.1906 11.4516 54.5016 9.67969C53.8125 7.82031 52.8609 6.25625 51.2969 4.70312C49.7438 3.15 48.1797 2.1875 46.3422 1.47656C44.5594 0.7875 42.525 0.30625 39.55 0.175C36.5531 0.0328125 35.6016 0 28 0Z" fill="#0E79BF"/>
<path d="M28 13.6172C20.0594 13.6172 13.6172 20.0594 13.6172 28C13.6172 35.9406 20.0594 42.3828 28 42.3828C35.9406 42.3828 42.3828 35.9406 42.3828 28C42.3828 20.0594 35.9406 13.6172 28 13.6172ZM28 37.3297C22.8484 37.3297 18.6703 33.1516 18.6703 28C18.6703 22.8484 22.8484 18.6703 28 18.6703C33.1516 18.6703 37.3297 22.8484 37.3297 28C37.3297 33.1516 33.1516 37.3297 28 37.3297Z" fill="#0E79BF"/>
<path d="M46.3094 13.0484C46.3094 14.9077 44.8 16.4062 42.9516 16.4062C41.0922 16.4062 39.5938 14.8968 39.5938 13.0484C39.5938 11.189 41.1031 9.69055 42.9516 9.69055C44.8 9.69055 46.3094 11.1999 46.3094 13.0484Z" fill="#0E79BF"/>
</g>
</symbol><symbol id="instagram" viewBox="0 0 300.000000 300.000000">
<metadata>
Created by potrace 1.10, written by Peter Selinger 2001-2011
</metadata>
<g transform="translate(0.000000,300.000000) scale(0.050000,-0.050000)" fill="#000000" stroke="none">
<path d="M1313 5960 c-628 -132 -1144 -652 -1274 -1283 -59 -287 -59 -3067 0
-3354 131 -637 647 -1153 1284 -1284 287 -59 3067 -59 3354 0 637 131 1153
647 1284 1284 59 287 59 3067 0 3354 -131 637 -647 1153 -1284 1284 -281 58
-3087 57 -3364 -1z m3313 -530 c380 -99 705 -424 804 -804 45 -171 45 -3081 0
-3252 -99 -380 -424 -705 -804 -804 -171 -45 -3081 -45 -3252 0 -380 99 -705
424 -804 804 -45 171 -45 3081 0 3252 98 376 421 702 795 803 160 43 3096 44
3261 1z"/>
<path d="M4520 4982 c-359 -115 -404 -573 -71 -724 347 -158 689 232 489 556
-81 131 -282 212 -418 168z"/>
<path d="M2676 4508 c-1186 -255 -1624 -1739 -766 -2598 864 -863 2352 -417
2599 780 224 1081 -753 2050 -1833 1818z m526 -517 c781 -165 1075 -1116 525
-1692 -571 -599 -1588 -279 -1728 544 -115 684 522 1293 1203 1148z"/>
</g>
</symbol><symbol id="kind" viewBox="0 0 583 683">
<path d="M272.862 1.65497C233.262 10.5883 205.395 47.655 207.662 88.3216C209.662 122.855 232.195 152.055 265.929 163.788C273.129 166.322 277.395 166.855 291.262 166.855C305.929 166.855 309.129 166.455 317.662 163.388C331.129 158.588 340.595 152.455 350.329 142.722C360.195 132.988 366.195 123.388 370.995 110.055C374.062 101.522 374.462 98.3216 374.462 83.655C374.462 69.7883 373.929 65.5216 371.395 58.3216C362.462 32.455 342.995 12.855 317.662 4.05497C305.529 -0.211695 285.529 -1.27836 272.862 1.65497Z" fill="#0E79BF"/>
<path d="M42.9955 67.655C21.2621 71.3883 4.19547 89.1216 0.462133 111.522C-1.13787 121.655 1.5288 135.788 6.7288 144.855C11.3955 152.722 44.0621 185.922 60.9955 200.055C93.2621 226.722 128.862 248.455 162.995 261.922L175.262 266.722V448.855C175.262 560.188 175.795 634.455 176.595 640.055C178.329 651.788 182.462 660.188 190.195 668.055C199.929 677.788 209.262 681.655 223.262 681.522C232.862 681.522 235.929 680.988 242.729 677.788C252.995 673.255 261.929 664.055 266.862 653.655L270.595 645.655L270.995 565.922L271.395 486.322H291.262H311.262V558.588C311.395 598.455 311.929 634.988 312.462 639.922C314.595 656.588 323.929 669.922 338.595 677.122C362.995 689.122 391.129 678.855 402.862 653.655L406.595 645.655L406.995 456.322L407.262 266.855L417.662 263.122C434.595 256.722 465.395 240.588 484.596 228.055C510.062 211.255 527.529 196.855 551.262 172.988C574.195 150.055 579.262 142.588 582.062 127.522C586.062 105.388 574.195 82.455 553.262 72.1883C545.929 68.5883 544.062 68.3216 530.596 68.3216C509.796 68.3216 505.662 70.5883 481.529 96.1883C445.262 134.455 411.395 158.188 371.262 173.788C345.395 183.788 322.862 187.655 291.262 187.655C259.662 187.655 237.129 183.788 211.262 173.788C171.129 158.188 137.262 134.455 100.995 96.1883C80.5955 74.5883 74.0621 70.1883 59.1288 67.655C54.4621 66.9883 50.3288 66.455 49.9288 66.455C49.5288 66.5883 46.4621 67.1216 42.9955 67.655Z" fill="#0E79BF"/>
</symbol><symbol id="logo-webit" viewBox="0 0 180 58.395"><path fill="none" d="M0 0h180v58.395H0z"/><path fill="#006678" d="M83.975 17.27h4.113v4.302h-4.113zM102.08 49.347V46.02c-3.313 0-4.8-1.5-4.8-3.84v-12.8h4.8v-3.55h-4.8v-8.55H93.2v24.855c0 5.07 4.273 7.212 8.88 7.212M88.046 49V25.878h-4.08V49zM75.162 37.37c0 7.912-2.832 8.8-6 8.8-3.12 0-5.474-1.54-5.474-6.61v-8.44c.962-1.31 3.025-2.308 5.762-2.308 3.41 0 5.713 1.96 5.713 8.558m4.37-.175c0-9.483-5.138-11.71-9.458-11.71a9.357 9.357 0 0 0-6.387 2.1V17.24h-4.08v22.01c0 8.128 5.09 10.1 9.555 10.1 4.56 0 10.37-2.1 10.37-12.152M51.35 35.58H40.213c.433-4.896 2.5-6.767 5.953-6.767 3.5 0 4.9 2.09 5.186 6.766m4.178 3.32v-2.577c0-7.473-4.225-10.882-9.363-10.882-5.377 0-10.37 3.54-10.37 12.15 0 8.566 5.377 11.8 11.138 11.8a10.18 10.18 0 0 0 7.6-3.223l-1.74-2.416a8.254 8.254 0 0 1-5.81 2.417c-3.792 0-6.72-1.717-6.817-7.267zm-21.3-13.067H30.2l-4.753 15.82-.72 2.884h-.144l-.72-2.884-4.753-15.82h-3.843l-4.752 15.82-.715 2.885h-.15L8.93 41.7 4.177 25.834H0L7.778 49h3.888l4.56-14.247.865-3.06h.193l.864 3.06L22.71 49h3.936zm73.288-8.61h4.08V40.34h-4.08zm-.123 27.998h4.113v4.302h-4.113z"/><path d="M173.326 10.643c-.008-.01-25.735-2.082-25.735-2.082l-21.646 5.477 25.942 2.053zM121.848 32.33l28.966 1.27s29.034-7.383 29.032-7.39L151.1 24.922zm.45-8.722h-.04v.014z" fill="#4eb1c8"/><path d="M154.06 49.987l-17.735 4.5a29.073 29.073 0 0 0 21.746 3 28.776 28.776 0 0 0 11.836-6.215zM150.827 33.6l-26.9 6.823 25.894 2.03 29.617-7.538-28.61-1.315m1.048-17.508s-29.657 7.518-29.66 7.528l28.9 1.3 26.708-6.79c0-.01-25.943-2.033-25.943-2.033m-4.3-7.532L165.548 4a29.05 29.05 0 0 0-33.962 3.314l15.987 1.25" fill="#a2bc4d"/><path d="M151.873 16.094l25.957 2.033a29.028 29.028 0 0 0-4.507-7.482zM147.5 8.587l-16-1.252a26.923 26.923 0 0 0-5.648 6.727h.024zm2.315 33.865l-25.9-2.028a29.247 29.247 0 0 0 4.52 7.454zm4.225 7.53l15.86 1.292a29.24 29.24 0 0 0 5.78-6.787zM150.806 33.6l28.63 1.314a29.252 29.252 0 0 0 .408-8.707zm.28-8.68l-28.9-1.3a28.76 28.76 0 0 0-.367 8.707z" fill="#006678"/><path d="M128.44 47.882l25.606 2.1 21.644-5.495c.006-.01-25.87-2.03-25.87-2.03z" fill="#4eb1c8"/><path fill="none" d="M0 0h180v58.395H0z"/></symbol><symbol id="magnifier-glass" viewBox="0 0 904.000000 1280.000000">
<metadata>
Created by potrace 1.15, written by Peter Selinger 2001-2017
</metadata>
<g transform="translate(0.000000,1280.000000) scale(0.100000,-0.100000)" fill="#000000" stroke="none">
<path d="M5055 12794 c-133 -31 -189 -55 -232 -96 -90 -86 -56 -196 108 -360
l88 -87 -52 -5 c-29 -3 -92 -8 -141 -11 -230 -16 -292 -52 -211 -124 34 -29
192 -111 215 -111 20 0 6 -17 -65 -80 -104 -92 -141 -146 -156 -230 -10 -58
-15 -70 -28 -64 -101 41 -428 138 -511 152 -94 16 -215 30 -371 43 -183 15
-339 -5 -339 -43 0 -7 24 -36 54 -64 102 -99 360 -204 781 -319 94 -25 179
-49 190 -52 13 -4 -40 -21 -145 -48 -183 -47 -292 -91 -310 -126 -11 -20 -10
-25 14 -45 25 -22 137 -62 279 -99 37 -10 67 -21 67 -24 0 -4 -37 -25 -82 -46
-206 -101 -210 -145 -13 -180 48 -8 89 -15 90 -15 3 0 -4 -131 -11 -198 l-5
-52 -62 55 c-130 117 -285 162 -395 115 -142 -61 -208 -241 -139 -382 45 -91
114 -138 203 -138 45 0 172 34 253 69 39 17 71 29 71 27 0 -2 -16 -28 -36 -57
-142 -211 -286 -633 -384 -1130 l-23 -116 -89 -17 c-222 -42 -478 -133 -696
-246 -326 -169 -580 -378 -861 -708 -30 -34 -51 -65 -49 -68 3 -2 83 -9 179
-15 188 -10 294 -22 404 -45 88 -18 216 -60 241 -79 17 -13 12 -14 -51 -15
-266 -1 -693 -99 -1119 -257 -297 -110 -1102 -464 -1129 -496 -40 -48 -147
-207 -180 -268 -71 -131 -59 -192 62 -294 42 -35 121 -103 176 -150 185 -158
420 -313 660 -436 83 -42 157 -79 165 -81 12 -4 7 -15 -21 -44 -47 -50 -59
-74 -59 -117 0 -72 73 -121 242 -162 57 -14 114 -25 128 -25 51 -1 63 -22 64
-110 l1 -81 -84 -56 c-97 -65 -256 -214 -344 -322 -135 -168 -281 -424 -382
-669 -182 -445 -309 -1041 -331 -1554 l-7 -156 229 -75 c208 -68 229 -77 232
-98 14 -115 37 -212 62 -263 30 -63 115 -160 150 -171 27 -8 25 -21 -2 -28
-68 -15 -276 -81 -313 -98 -23 -11 -47 -31 -53 -44 -10 -22 -8 -29 20 -60 28
-33 176 -115 206 -115 18 0 15 -7 -33 -89 -133 -229 -190 -487 -167 -760 7
-72 13 -136 14 -142 2 -8 -15 -16 -42 -21 -399 -74 -611 -145 -800 -266 -53
-33 -180 -148 -180 -162 0 -4 682 -10 1517 -13 1505 -7 1516 -7 1551 -27 l35
-21 216 21 c119 12 217 22 217 23 2 2 -68 961 -111 1527 -14 184 -25 346 -24
360 2 30 17 -124 110 -1115 40 -424 77 -772 81 -773 5 -2 6 -8 2 -13 -6 -10
2644 -13 3066 -2 l273 6 -81 79 c-199 191 -556 366 -879 429 -87 17 -113 26
-113 38 0 67 -23 313 -36 386 -34 197 -127 405 -232 518 -32 34 -29 38 93 103
106 55 125 70 125 96 0 29 -73 56 -197 74 -59 9 -109 17 -110 18 -2 1 2 40 7
87 5 46 10 132 10 191 0 103 1 108 23 113 12 3 87 18 167 34 162 33 354 74
358 76 4 3 -96 421 -148 616 -213 799 -479 1419 -822 1915 -94 135 -104 152
-96 159 3 4 46 10 95 15 131 14 193 33 250 76 133 101 67 293 -204 598 -60 68
-59 70 32 81 445 51 1108 354 1620 738 225 169 570 486 602 554 16 34 38 46
29 16 -3 -10 -30 -100 -60 -200 -31 -100 -56 -188 -56 -197 0 -21 74 -79 146
-115 102 -51 241 -56 365 -16 l46 16 40 197 c33 165 42 197 56 194 28 -5 96
37 113 70 15 30 15 87 -1 129 -3 9 7 21 31 34 51 27 71 61 98 167 16 58 31 97
42 103 47 27 119 94 136 125 25 49 32 117 19 168 -12 41 -14 44 -131 102 -124
62 -133 71 -118 125 5 17 13 70 18 119 6 50 13 92 15 94 2 3 27 0 55 -5 l50
-10 79 151 c367 700 592 1385 656 1998 8 81 15 156 15 167 0 17 -40 33 -293
116 -162 52 -296 95 -299 95 -10 0 -141 -207 -229 -360 -326 -570 -502 -1120
-525 -1643 -7 -158 10 -397 29 -409 7 -4 36 -10 65 -14 41 -5 50 -9 39 -18 -8
-6 -20 -27 -27 -46 -25 -65 -48 -78 -188 -101 -134 -22 -216 -48 -313 -101
-50 -26 -70 -31 -117 -29 -71 3 -106 -10 -147 -53 -17 -19 -47 -41 -66 -51
-115 -59 -304 -241 -464 -448 -49 -64 -93 -116 -97 -117 -14 0 -183 221 -283
370 -56 85 -195 308 -307 495 -113 187 -226 373 -251 413 l-47 72 56 198 c30
108 57 204 60 213 3 11 12 15 28 12 27 -6 73 16 101 47 l20 22 76 -83 c59 -64
80 -81 94 -75 16 6 17 15 12 94 -5 70 -36 228 -62 312 -4 14 11 15 123 12 254
-8 372 57 372 203 -1 130 -54 210 -324 495 l-205 215 62 20 c119 39 197 122
197 210 0 29 2 30 66 10 135 -41 597 -53 1002 -26 196 13 240 21 195 34 -102
29 -393 126 -485 161 -231 88 -504 243 -630 358 l-48 43 -10 349 c-16 531 -31
637 -127 864 l-35 82 -252 0 -251 1 -50 86 c-65 112 -163 214 -240 249 -57 26
-160 40 -210 28z m2822 -4540 c-3 -3 -12 -4 -19 -1 -8 3 -5 6 6 6 11 1 17 -2
13 -5z m-1504 -953 l28 -6 -45 -61 -46 -61 -139 -6 c-124 -6 -559 8 -569 17
-15 15 263 93 397 111 100 13 325 17 374 6z m-4121 -511 c-6 -62 26 -133 100
-221 l49 -59 -71 0 c-68 0 -74 2 -212 76 -79 42 -152 81 -163 87 -17 9 2 21
140 88 88 42 160 78 161 78 1 1 -1 -21 -4 -49z m1145 -4752 c-3 -8 -6 -5 -6 6
-1 11 2 17 5 13 3 -3 4 -12 1 -19z"/>
</g>
</symbol><symbol id="post-ph" viewBox="0 0 450 450">
<path d="M270.953 1.66973C268.931 2.54864 266.382 4.65801 265.24 6.24005L263.13 9.22833L262.867 41.9237L262.603 74.7069H205.298C172.339 74.7069 144.654 75.0584 140.083 75.5858C118.99 77.9588 101.411 86.4842 86.3821 101.426C74.5169 113.291 66.6946 126.914 62.9153 142.295L60.9817 150.293H39.009C17.0364 150.293 16.9485 150.293 12.3782 152.578C7.01685 155.215 3.14966 159.609 1.21607 165.146C-0.80542 171.035 -0.80542 278.965 1.21607 284.853C3.14966 290.391 7.01685 294.785 12.3782 297.422L16.9485 299.707H120.923H224.898V368.262C224.898 428.027 225.074 437.256 226.216 440.068C228.062 444.463 229.908 446.396 234.126 448.33C237.378 449.824 240.542 450 273.677 450C306.812 450 309.976 449.824 313.228 448.33C317.447 446.396 319.292 444.463 321.138 440.068C322.281 437.256 322.456 428.027 322.456 368.35V299.707L381.607 299.531L440.669 299.268L443.658 297.158C445.24 296.016 447.349 293.467 448.228 291.445C449.81 288.018 449.898 284.326 449.898 223.506C449.898 155.566 449.634 150.908 445.767 138.428C435.044 104.15 405.337 79.7166 369.478 75.5858C365.171 75.1463 342.671 74.7069 319.644 74.7069H277.632V67.2362V59.8534L310.415 59.5897L343.111 59.326L346.099 57.2166C351.636 53.2616 352.339 50.1854 352.339 29.7947C352.339 12.5682 352.251 11.5135 350.318 7.90997C348.912 5.27325 347.066 3.42755 344.429 2.02129C340.65 -0.000190735 340.386 -0.000190735 307.603 -0.000190735C277.281 -0.000190735 274.292 0.175591 270.953 1.66973ZM337.398 29.8826V44.824H307.515H277.632V29.8826V14.9412H307.515H337.398V29.8826ZM167.769 92.3729C196.333 98.9647 219.273 124.014 224.019 153.808C224.546 157.324 224.898 183.691 224.898 222.1V284.766H217.251H209.517L209.781 228.34C209.956 189.404 209.781 170.42 209.077 167.432C207.759 161.191 203.189 155.391 197.564 152.578L192.906 150.293H134.634H76.3626L76.8899 147.832C81.7239 126.738 95.9622 108.457 115.562 98.3495C131.734 89.9998 148.96 87.9784 167.769 92.3729ZM377.828 92.1092C404.019 99.0526 423.794 118.125 432.056 144.58L434.517 152.49L434.781 218.584L435.044 284.766H337.398H239.839V222.012C239.839 181.758 239.488 156.797 238.872 152.402C235.708 129.375 223.404 108.721 203.365 92.4608L199.849 89.6483L285.103 89.912C370.093 90.1756 370.357 90.1756 377.828 92.1092ZM186.226 165.586C186.226 166.553 108.531 231.68 106.861 232.119C105.806 232.383 104.048 232.383 102.993 232.119C101.324 231.68 23.6282 166.641 23.6282 165.586C23.6282 165.41 60.1907 165.234 104.927 165.234C149.663 165.234 186.226 165.41 186.226 165.586ZM45.1614 203.906C59.6634 216.123 71.7923 226.406 72.2317 226.758C72.7591 227.197 22.9251 270.264 16.4211 274.922C14.927 276.064 14.8391 274.219 14.8391 227.109V178.154L16.8606 179.912C17.9153 180.879 30.6594 191.689 45.1614 203.906ZM194.839 251.367L194.576 276.064L166.275 252.07C150.718 238.887 137.886 227.725 137.886 227.373C137.798 227.021 150.542 215.859 166.187 202.676L194.576 178.594L194.839 202.588C194.927 215.859 194.927 237.744 194.839 251.367ZM89.9856 241.699C95.8743 246.182 99.4778 247.412 106.158 247.236C111.255 247.06 114.507 245.654 120.484 241.084L125.581 237.217L153.355 260.771L181.128 284.326L142.72 284.59C121.626 284.678 87.3489 284.678 66.5188 284.59L28.7258 284.326L56.3235 260.859C71.4407 247.939 83.9212 237.392 84.097 237.392C84.1849 237.305 86.9095 239.238 89.9856 241.699ZM262.691 358.418C263.13 415.459 263.13 416.777 264.888 418.008C269.195 421.172 274.204 420.205 276.49 415.723C277.369 414.053 277.632 400.342 277.632 356.572V299.707H292.574H307.515V367.383V435.059H273.677H239.839V367.383V299.619L251.089 299.883L262.251 300.146L262.691 358.418Z" fill="#FBE91D"/>
<path d="M338.716 211.465C335.201 213.311 333.091 215.244 331.333 218.408C330.191 220.605 329.927 224.033 329.927 239.941C329.927 260.244 330.191 261.65 334.937 266.045C338.804 269.648 340.65 269.824 375.367 269.824C407.447 269.824 408.941 269.736 412.017 267.979C413.775 267.012 416.236 264.814 417.378 263.057C419.488 259.98 419.576 259.277 419.839 243.105C420.191 222.451 419.839 219.727 416.236 215.596C411.402 210.059 411.314 210.059 374.576 210.059C346.187 210.059 341.001 210.234 338.716 211.465ZM405.074 239.941V254.883H375.191H345.308V239.941V225H375.191H405.074V239.941Z" fill="#FBE91D"/>
<path d="M77.5932 182.285C74.4291 184.922 74.1654 189.844 77.0658 192.744C78.9994 194.678 79.5268 194.678 103.433 194.941C118.902 195.117 128.746 194.853 130.328 194.326C133.404 193.096 135.601 188.174 134.458 185.098C132.613 180.352 131.734 180.176 104.751 180.176H79.9662L77.5932 182.285Z" fill="#FBE91D"/>
</symbol><symbol id="sportarten" viewBox="0 0 640 602">
<path d="M516.933 1.13804C453.867 11.8047 396.533 74.3381 381.333 149.405C367.333 218.071 393.867 282.338 444.933 303.005C473.2 314.605 504.667 312.338 536.667 296.471C586.133 272.071 623.067 221.805 636.267 160.605C640.4 141.405 640.4 107.271 636.267 89.4047C625.333 42.0714 596 10.4714 554.933 1.8047C545.333 -0.328629 527.333 -0.595296 516.933 1.13804ZM552.533 24.6047C583.467 32.0714 607.733 57.9381 617.333 93.8047C621.067 107.271 622.4 136.071 620 151.938C614.8 187.538 596.933 223.138 571.467 248.605C545.733 274.338 516.667 287.805 486.8 287.805C471.6 287.805 460.267 285.271 448.933 279.671C425.2 267.671 409.333 247.538 400.533 217.805C395.867 202.071 394.667 173.405 397.867 155.005C403.733 121.138 419.733 89.0047 442.8 64.6047C475.6 29.9381 515.2 15.538 552.533 24.6047Z" fill="#0E79BF"/>
<path d="M520.8 35.6715C514.667 36.6048 510.667 39.5381 510.667 43.0048C510.667 44.0715 535.067 56.2048 544.133 59.5381C545.067 59.9381 554.667 41.1381 554.667 39.1381C554.667 38.3381 541.733 35.8048 534.667 35.2715C530.667 35.0048 524.4 35.1381 520.8 35.6715Z" fill="#0E79BF"/>
<path d="M562 55.4046C559.467 61.0046 557.467 65.6713 557.733 65.9379C558.4 66.7379 590.933 81.1379 591.867 81.1379C592.4 81.1379 593.6 79.6713 594.4 77.9379C596 74.4713 594 70.2046 585.6 60.0713C581.467 55.0046 569.467 45.1379 567.467 45.1379C567.067 45.1379 564.667 49.6713 562 55.4046Z" fill="#0E79BF"/>
<path d="M476.533 53.0047C467.467 59.0047 457.333 67.5381 457.333 69.0047C457.333 69.5381 462.133 72.2047 468 74.8714L478.8 79.6714L485.467 65.4047C491.6 52.2047 492 51.0047 489.867 49.5381C486.4 47.0047 485.067 47.2714 476.533 53.0047Z" fill="#0E79BF"/>
<path d="M497.6 70.7379L490.8 85.2713L499.067 89.1379C521.867 99.5379 525.6 101.138 526 101.138C526.133 101.138 529.2 94.8713 532.667 87.1379C536.533 78.6046 538.667 72.6046 537.867 71.9379C537.2 71.2713 529.333 67.4046 520.533 63.4046L504.4 56.2046L497.6 70.7379Z" fill="#0E79BF"/>
<path d="M544.8 92.6048C541.333 100.338 538.667 106.871 538.933 107.138C540 108.205 571.467 122.471 572.667 122.471C573.867 122.471 587.2 94.4714 586.4 93.8048C585.333 93.0048 552.933 78.4714 552.133 78.4714C551.6 78.4714 548.4 84.8714 544.8 92.6048Z" fill="#0E79BF"/>
<path d="M444.267 82.8714C440.4 87.138 429.333 104.071 429.333 105.671C429.333 106.471 436.133 110.205 444.4 113.938C456.667 119.538 459.467 120.471 460.4 118.871C461.067 117.805 464.267 111.271 467.467 104.338L473.333 91.6714L462.933 87.0047C446.667 79.538 447.333 79.6714 444.267 82.8714Z" fill="#0E79BF"/>
<path d="M482 104.471C480.133 108.471 477.2 115.138 475.333 119.138L472 126.471L475.733 128.338C482.667 131.938 506.933 142.605 507.333 142.205C508.933 140.205 520 114.071 519.467 113.538C519.067 113.138 511.2 109.271 502 105.005L485.2 97.2713L482 104.471Z" fill="#0E79BF"/>
<path d="M596.8 104.071C595.733 106.471 592.8 113.005 590.267 118.605L585.467 128.871L596 133.671C601.867 136.338 606.933 138.471 607.467 138.471C608 138.471 608.133 130.871 607.733 121.538C607.067 106.071 606.8 104.471 604 102.205C599.867 98.8714 598.933 99.1381 596.8 104.071Z" fill="#0E79BF"/>
<path d="M421.067 122.205C417.2 131.938 412.267 148.605 413.067 149.405C413.6 149.805 420 152.871 427.333 156.205L440.667 162.205L446.4 150.071C455.067 131.538 455.733 133.538 438 125.538L422.533 118.605L421.067 122.205Z" fill="#0E79BF"/>
<path d="M526.133 133.138C522.8 140.471 520 147.005 520 147.538C520 148.605 551.6 163.805 553.6 163.805C554.8 163.805 566.667 138.871 566.667 136.471C566.667 135.138 536.133 119.805 533.333 119.805C532.8 119.805 529.6 125.805 526.133 133.138Z" fill="#0E79BF"/>
<path d="M460 152.071C456.933 158.871 454.133 165.271 453.733 166.071C453.333 167.271 459.067 170.605 470 175.805C479.333 180.205 487.2 183.805 487.467 183.805C488.267 183.805 501.467 155.538 500.933 155.005C499.733 153.805 468.8 139.805 467.467 139.805C466.533 139.805 463.2 145.405 460 152.071Z" fill="#0E79BF"/>
<path d="M573.2 155.405C569.6 163.138 566.933 169.805 567.2 170.205C568.267 171.138 596.133 183.805 597.333 183.805C598.133 183.805 604.133 165.271 605.867 156.738C606.667 153.271 606.267 152.871 596.4 148.338C578.133 139.938 580.8 139.138 573.2 155.405Z" fill="#0E79BF"/>
<path d="M506.667 175.405C502.933 183.138 500.133 189.671 500.267 189.805C504.667 192.205 534.8 205.405 535.2 205.005C536.133 204.071 548 178.205 548 177.138C548 176.205 516.133 161.138 514.133 161.138C513.733 161.138 510.267 167.538 506.667 175.405Z" fill="#0E79BF"/>
<path d="M409.333 180.871V197.938L415.333 200.871L421.467 203.805L428 189.671C431.733 181.938 434.667 175.271 434.667 174.871C434.667 174.071 412.667 163.805 410.8 163.805C409.867 163.805 409.333 169.271 409.333 180.871Z" fill="#0E79BF"/>
<path d="M440.8 193.671C437.467 201.005 434.667 207.671 434.667 208.471C434.8 209.805 468 225.538 468.8 224.738C469.067 224.471 472.267 218.071 475.867 210.338L482.4 196.471L470.267 190.605C463.467 187.405 455.6 183.671 452.533 182.471L447.067 180.071L440.8 193.671Z" fill="#0E79BF"/>
<path d="M554.267 196.338C550.8 203.938 548 210.471 548 210.871C548 211.671 568.533 221.671 573.2 223.138C575.333 223.805 576.933 222.338 581.067 216.205C586.533 208.071 592.533 197.138 591.733 196.471C591.2 195.938 561.6 182.471 560.933 182.471C560.8 182.471 557.733 188.738 554.267 196.338Z" fill="#0E79BF"/>
<path d="M487.6 216.605C484.133 224.471 481.333 231.005 481.6 231.138C482.8 232.205 516.133 246.738 516.4 246.338C517.6 244.605 529.467 218.071 529.067 217.805C528.267 217.005 496 202.471 495.067 202.471C494.533 202.471 491.067 208.871 487.6 216.605Z" fill="#0E79BF"/>
<path d="M413.333 215.805C413.333 216.472 414 217.138 414.8 217.138C415.467 217.138 415.733 216.472 415.333 215.805C414.933 215.005 414.267 214.472 413.867 214.472C413.6 214.472 413.333 215.005 413.333 215.805Z" fill="#0E79BF"/>
<path d="M426.667 224.471C426 226.338 424.533 229.538 423.467 231.671C421.6 235.271 421.6 235.805 425.467 241.538C429.867 248.338 440.4 258.871 446.533 262.738L450.533 265.271L455.867 253.938C464 236.338 464.133 237.671 454.4 233.271C449.733 231.138 441.867 227.538 436.933 225.271L427.867 221.271L426.667 224.471Z" fill="#0E79BF"/>
<path d="M539.467 228.072C538.4 230.472 535.467 237.005 532.933 242.605L528.267 252.738L532.8 255.005C535.333 256.205 538.4 257.138 539.467 257.138C542 257.138 554.8 247.405 561.733 240.205L566.8 234.872L554.667 229.405C548 226.338 542.267 223.805 542 223.805C541.6 223.805 540.533 225.805 539.467 228.072Z" fill="#0E79BF"/>
<path d="M469.333 256.071C466.267 262.871 463.467 269.138 463.067 270.071C462.667 271.005 465.067 272.071 469.333 273.005C476.8 274.605 498.4 275.005 502 273.538C503.867 272.871 511.2 259.805 510.267 259.005C509.333 258.205 476.933 243.805 476.133 243.805C475.467 243.805 472.533 249.405 469.333 256.071Z" fill="#0E79BF"/>
<path d="M522 266.471C521.6 267.271 522.133 267.405 523.2 267.005C525.6 266.071 526 265.138 524.133 265.138C523.333 265.138 522.4 265.671 522 266.471Z" fill="#0E79BF"/>
<path d="M114.133 40.3379C106.933 43.0046 99.9999 49.0046 95.3333 56.4713C91.7333 62.3379 91.3333 63.9379 91.3333 74.3379C91.3333 84.2046 91.8666 86.6046 94.6666 91.4046C96.5333 94.4713 123.2 133.671 154 178.338C208.533 257.538 210.133 259.671 216 261.938C238.133 270.338 259.067 283.938 276 301.005C296.267 321.538 310.4 344.605 318.133 369.938L321.867 382.071L329.6 377.005C334 374.205 339.333 371.538 341.733 371.138C344.133 370.605 346.4 369.938 346.933 369.671C347.333 369.405 345.867 365.405 343.6 360.871C339.867 353.138 339.467 351.138 338.667 334.871C337.867 318.338 337.6 316.871 333.867 310.871C324.8 296.471 156.667 53.4046 152.8 49.4046C150.533 46.8713 146.267 43.6713 143.333 42.2046C136.4 38.6046 121.333 37.6713 114.133 40.3379ZM120.533 72.4713C123.6 77.1379 123.2 80.7379 119.467 83.1379C116.933 84.8713 115.6 85.0046 113.467 83.8046C108.133 81.0046 106.533 74.8713 110.133 71.2713C113.2 68.0713 118 68.6046 120.533 72.4713ZM163.467 137.005C188.533 174.738 193.467 182.871 192.8 185.671C191.867 189.271 188.133 191.138 184.4 189.805C182.133 189.138 125.2 104.871 123.2 99.4046C122 96.3379 126.133 91.8046 130.267 91.8046C132.8 91.8046 138.133 99.0046 163.467 137.005Z" fill="#0E79BF"/>
<path d="M142 265.138C112.133 267.805 81.7332 280.072 58.5332 298.872L50.3999 305.538L103.2 358.338L156 411.138L176.533 390.605L196.933 370.205L190.267 361.272C181.867 350.338 172.8 331.405 169.333 317.672C166 305.005 164.667 283.272 166.4 272.738C167.467 266.205 167.333 265.138 165.467 265.138C164.267 265.138 161.2 264.872 158.667 264.605C156.133 264.338 148.667 264.605 142 265.138Z" fill="#0E79BF"/>
<path d="M180.8 267.671C179.067 270.471 178.4 293.138 179.867 302.071C182.933 321.671 192.133 343.271 203.2 356.471L206.533 360.471L234.267 332.871L262 305.138L256.8 300.871C238.667 285.671 218 275.271 194.133 269.138C182 266.071 181.733 266.071 180.8 267.671Z" fill="#0E79BF"/>
<path d="M419.467 317.538C417.067 322.738 410.4 337.271 404.667 349.538C399.067 361.938 394.933 372.471 395.467 373.138C397.333 374.871 408.133 376.471 414.8 376.071L421.067 375.671L433.867 347.805C440.933 332.471 446.667 319.405 446.667 318.605C446.667 317.805 445.867 317.138 444.933 317.138C444 317.138 438.933 315.005 433.6 312.471L423.867 307.805L419.467 317.538Z" fill="#0E79BF"/>
<path d="M34.9333 322.071C13.3333 348.071 0 385.404 0 420.338C0 429.804 0.4 431.938 1.86667 431.404C6.66667 429.538 25.8667 429.004 37.3333 430.338C50.5333 431.938 68.6667 437.404 79.6 443.004C83.2 444.738 90.5333 449.538 96.1333 453.538L106.4 460.871L126.533 440.604L146.667 420.471L94.2667 368.071C65.6 339.404 41.6 315.804 41.0667 315.804C40.6667 315.804 37.8667 318.604 34.9333 322.071Z" fill="#0E79BF"/>
<path d="M242.933 342.871L215.733 370.071L220.933 374.071C237.733 387.005 255.733 394.471 276.933 397.138C287.467 398.605 306.267 397.671 309.467 395.805C312.267 393.938 305.067 369.405 296.667 352.338C289.467 337.405 274.533 315.805 271.6 315.805C270.667 315.805 257.733 328.071 242.933 342.871Z" fill="#0E79BF"/>
<path d="M186.267 399.538C175.467 410.338 166.667 419.805 166.667 420.471C166.667 421.671 256.8 511.938 267.733 521.805L272.133 525.671L275.467 521.805C296.133 497.005 308.933 466.205 312 433.405C313.6 416.071 312.8 408.738 309.467 409.671C303.333 411.405 287.2 411.805 276.133 410.471C254.133 407.938 231.733 398.871 214.533 385.671C210.267 382.471 206.667 379.805 206.4 379.805C206.133 379.805 197.067 388.605 186.267 399.538Z" fill="#0E79BF"/>
<path d="M484 384.738C445.467 387.405 413.6 389.938 413.2 390.738C411.6 393.405 406.533 420.205 407.6 421.138C409.6 422.871 562.267 433.271 566 431.805C569.467 430.471 604.667 408.605 607.733 405.805C609.067 404.605 606.533 402.071 595.467 393.938C587.733 388.338 579.333 382.871 576.8 381.805C570.667 379.138 566.533 379.271 484 384.738Z" fill="#0E79BF"/>
<path d="M348 383.272C338.933 385.672 331.467 390.472 327.867 396.205C325.6 399.805 325.2 402.072 325.733 411.138C326.533 426.205 324.533 446.472 320.933 461.138L317.733 473.672L321.733 477.405C326.133 481.405 335.6 485.138 341.333 485.138H344.8L355.733 434.072C361.733 406.072 366.667 382.738 366.667 382.072C366.667 380.472 355.867 381.138 348 383.272Z" fill="#0E79BF"/>
<path d="M380 384.738C380 384.871 375.2 407.671 369.2 435.271C363.333 462.871 358.8 486.205 359.067 487.138C359.867 489.138 376 492.471 377.333 490.871C377.867 490.338 382.933 467.538 388.667 440.471C394.4 413.271 399.333 390.471 399.6 389.671C399.867 388.738 396.133 387.405 390.133 386.205C384.533 385.138 380 384.471 380 384.738Z" fill="#0E79BF"/>
<path d="M135.467 450.338L115.733 470.205L121.067 477.271C133.333 493.805 140.8 510.071 144.667 528.471C146.8 539.138 147.6 565.538 146 572.205L145.067 575.805H159.733C194.533 575.805 230.133 562.605 258 539.138L262 535.805L209.333 483.138C180.4 454.205 156.4 430.471 156 430.471C155.6 430.471 146.4 439.405 135.467 450.338Z" fill="#0E79BF"/>
<path d="M403.467 435.538C402 438.071 399.867 452.204 400.933 453.138C402.933 455.004 547.2 506.871 550 506.871C551.467 506.738 564.267 501.804 578.4 495.671L604.267 484.738L585.333 465.804L566.4 446.871L555.6 446.071C549.6 445.538 515.867 443.138 480.667 440.471C445.467 437.938 413.867 435.538 410.4 435.271C406.933 434.871 403.867 435.004 403.467 435.538Z" fill="#0E79BF"/>
<path d="M8.66658 443.671C1.73325 444.738 1.46658 447.005 5.99991 462.871C11.8666 483.405 24.2666 506.871 36.3999 520.471L41.1999 525.805L68.9333 498.071L96.6666 470.471L92.6666 467.138C71.1999 449.138 36.3999 439.405 8.66658 443.671Z" fill="#0E79BF"/>
<path d="M393.333 481.271C391.6 489.671 390.8 496.471 391.467 497.138C392.133 497.671 423.333 514.738 460.8 535.005C538.8 577.138 531.2 574.605 557.333 567.805C565.733 565.538 573.467 563.405 574.267 563.138C576.267 562.471 549.467 523.671 544.933 520.738C542.667 519.271 398.667 466.471 396.933 466.471C396.667 466.471 395.067 473.138 393.333 481.271Z" fill="#0E79BF"/>
<path d="M78.1332 507.671L50.3999 535.405L58.5332 542.071C68.9332 550.471 84.5332 559.671 97.5999 565.005C108 569.138 130.4 575.138 131.6 573.938C133.067 572.605 134.667 553.271 134 546.471C132.667 534.605 129.467 520.471 125.733 511.538C122.8 503.938 109.333 482.205 106.8 480.605C106.267 480.205 93.3332 492.471 78.1332 507.671Z" fill="#0E79BF"/>
<path d="M327.6 513.138C316 516.071 304.533 524.471 298.267 534.605C297.2 536.471 295.2 541.538 293.867 545.805C288 566.071 298.8 588.871 318.667 598.338C324.8 601.271 327.867 601.805 337.333 601.805C346.8 601.805 349.867 601.271 356.133 598.338C365.733 593.805 374 585.538 378.533 575.938C381.467 569.671 382 566.605 382 557.138C382 547.405 381.467 544.738 378.267 538.205C373.6 528.738 362.4 518.205 353.733 515.271C345.6 512.471 334.133 511.538 327.6 513.138Z" fill="#0E79BF"/>
<path d="M430 541.938C443.867 562.072 442.4 561.138 451.2 554.738C460 548.472 461.333 550.205 436.8 537.138L420.933 528.738L430 541.938Z" fill="#0E79BF"/>
<path d="M453.6 569.271C441.467 577.538 436 582.071 436 583.805C436 587.138 444 593.138 450.667 594.605C454.4 595.405 457.467 595.271 461.2 593.938C467.333 591.938 487.6 578.471 492.667 573.005L496.267 569.405L484.933 563.271C478.8 559.938 473.2 557.138 472.533 557.138C471.867 557.138 463.333 562.605 453.6 569.271Z" fill="#0E79BF"/>
</symbol><symbol id="standort-ph" viewBox="0 0 211 281">
<path d="M96.2731 0.181827C84.7249 1.65955 76.6795 3.46566 67.9774 6.7495C40.6121 16.9294 17.7894 39.5331 7.28115 66.6795C1.42498 81.7851 -1.09263 99.4631 0.439828 113.967C4.87301 155.124 35.8505 208.815 88.6655 266.665C98.517 277.447 100.597 279.363 103.06 279.855C108.095 280.786 109.354 279.855 121.394 266.665C135.898 250.738 144.929 239.957 155.875 225.398C193.365 175.539 211.481 133.779 209.948 100.831C208.69 73.8492 198.072 49.6583 179.19 30.7762C163.537 15.178 144.436 5.27177 122.544 1.44063C116.469 0.400749 100.761 -0.365479 96.2731 0.181827ZM115.046 53.5441C125.609 55.6786 134.42 60.3855 142.028 67.9383C149.581 75.5458 154.287 84.3575 156.422 94.9205C157.9 101.926 157.9 107.946 156.422 114.952C154.287 125.515 149.581 134.326 142.028 141.934C134.42 149.487 125.609 154.194 115.046 156.328C108.04 157.806 102.02 157.806 95.0143 156.328C84.4513 154.194 75.6396 149.487 68.0321 141.934C60.4793 134.326 55.7724 125.515 53.638 114.952C52.1602 107.946 52.1602 101.926 53.638 94.9205C55.7724 84.3575 60.4793 75.5458 68.0321 67.9383C80.6201 55.405 98.0245 50.0414 115.046 53.5441Z" fill="#0E79BF"/>
</symbol><symbol id="telephone-ph" viewBox="0 0 290 290">
<path d="M61.0852 0.59186C51.437 4.27024 33.4672 21.9988 16.7638 44.1897C10.1306 53.054 4.94471 61.0138 2.23115 66.6821L0 71.1444L0.723616 77.2348C6.27134 125.174 46.1908 187.827 99.7384 232.571C137.547 264.109 178.311 284.551 211.899 288.651C217.447 289.375 217.748 289.315 221.246 287.928C235.477 282.078 269.125 255.063 281.848 239.204C289.929 229.134 291.135 224.249 287.396 216.651C284.863 211.466 282.15 209.114 267.798 199.466C238.673 179.807 217.808 169.194 208.462 169.194C201.527 169.194 197.607 172.089 186.271 185.415C182.291 190.059 178.673 193.918 178.251 193.918C176.924 193.918 167.155 189.938 161.306 187.044C140.623 176.611 123.256 161.295 110.472 142.059C105.708 134.943 98.9545 121.617 96.7836 115.164L95.3364 110.883L97.6881 108.772C98.9545 107.627 102.874 104.25 106.372 101.235C117.165 92.0689 119.698 88.5112 120.12 81.878C120.301 79.1042 120.06 77.0539 119.035 73.8579C117.165 68.1293 110.653 54.863 104.562 44.6721C97.6881 33.0943 82.854 10.7828 79.4771 7.0441C74.5927 1.61698 66.1505 -1.33778 61.0852 0.59186Z" fill="#0E79BF"/>
</symbol><symbol id="twitter-blue" viewBox="0 0 56 56">
<path d="M42.7614 4.4425H50.6328L33.4361 24.0973L53.6667 50.8431H37.8263L25.4195 34.6219L11.2233 50.8431H3.34705L21.7407 29.8201L2.33337 4.4425H18.576L29.7906 19.2693L42.7614 4.4425ZM39.9988 46.1317H44.3604L16.206 8.90648H11.5255L39.9988 46.1317Z" fill="#0E79BF"/>
</symbol><symbol id="twitter" viewBox="0 0 300.000000 300.000000">
<metadata>
Created by potrace 1.10, written by Peter Selinger 2001-2011
</metadata>
<g transform="translate(0.000000,300.000000) scale(0.100000,-0.100000)" fill="#000000" stroke="none">
<path d="M40 2994 c0 -5 986 -1443 1096 -1600 l43 -61 -571 -664 -572 -664
129 -3 c70 -1 129 -1 130 0 14 20 987 1148 993 1152 5 3 188 -255 407 -574
l399 -580 433 0 c238 0 433 3 433 6 0 3 -28 47 -63 98 -35 50 -301 436 -591
858 l-527 768 523 607 c288 334 534 620 546 635 l24 28 -130 0 -129 0 -449
-522 c-247 -287 -461 -536 -475 -552 l-25 -29 -336 489 c-184 269 -355 517
-379 552 l-43 62 -433 0 c-238 0 -433 -3 -433 -6z m742 -197 c9 -6 409 -574
888 -1262 480 -687 888 -1271 907 -1297 l35 -48 -200 0 -199 0 -911 1302
c-500 717 -908 1306 -906 1309 8 13 370 9 386 -4z"/>
</g>
</symbol><symbol id="unterstuetzung" viewBox="0 0 400 387">
<path d="M188 20V40H200H212V20V-2.08616e-06H200H188V20Z" fill="#0E79BF"/>
<path d="M138.4 11.0664C133.333 14.1331 129.333 17.1998 129.333 17.7331C129.333 18.3998 134.267 26.9331 140.133 36.7998C150.533 53.9998 151.2 54.6664 153.867 52.9331C155.467 51.8664 159.867 49.0664 163.733 46.6664C167.6 44.2664 170.667 41.9998 170.4 41.4664C168.8 37.9998 148.533 5.33309 148 5.46642C147.6 5.46642 143.333 7.99975 138.4 11.0664Z" fill="#0E79BF"/>
<path d="M240.667 22.7999C234.8 32.5332 229.867 40.7999 229.6 41.3332C229.333 41.8666 233.733 45.0666 239.067 48.3999L249.067 54.3999L259.867 36.6666C265.867 26.9332 270.667 18.3999 270.667 17.7332C270.667 16.7999 253.333 5.33324 251.867 5.33324C251.6 5.33324 246.533 13.1999 240.667 22.7999Z" fill="#0E79BF"/>
<path d="M52.2667 95.0665L0 147.333L19.7333 167.066L39.4667 186.8L41.7333 196.266C44.6667 208.4 50.9333 223.866 56.8 233.466C59.2 237.6 61.3333 241.6 61.3333 242.266C61.3333 243.066 60 244.666 58.5333 246.133C50.9333 252.933 48.2667 270 53.2 280.8C56.8 288.8 64.5333 295.6 72.8 298.266C78.2667 300 80 301.066 80 303.066C80 304.533 81.6 308.533 83.6 312.133C87.2 318.8 96 326 102.667 327.6C107.467 328.667 108.933 330.133 109.867 334.8C111.733 344.4 125.867 357.333 134.4 357.333C136.4 357.333 137.333 358.667 138.4 362.933C142 377.067 154.8 386.667 170 386.667C179.067 386.667 184.667 384.4 191.733 378.133L197.067 373.2L203.333 377.2C214.267 384.133 227.467 385.067 237.867 379.733C245.467 375.867 252.933 366.133 254.533 358C255.333 354.533 256.4 353.733 262 352C271.333 349.2 280.8 340 284 330.667C286.267 323.867 286.8 323.333 292.8 321.333C304.4 317.467 315.867 304.4 316 294.933C316 293.333 316.8 292 317.733 292C326.533 292 339.733 282.4 344.133 272.666C347.733 264.933 347.467 253.066 343.467 244.533L340.267 237.733L349.333 217.333L358.4 196.933L379.2 176.133L400 155.333L344.267 99.5998L288.667 43.9998L268.533 64.1332L248.267 84.3998L222.133 89.5998L195.867 94.7998L186.533 91.3332C181.333 89.4665 169.867 86.5332 160.933 84.6665L144.8 81.4665L125.333 61.9998C114.667 51.3332 105.733 42.6665 105.333 42.6665C104.933 42.6665 81.0667 66.2665 52.2667 95.0665ZM113.6 83.5998C117.867 87.8665 121.333 91.8665 121.333 92.6665C121.333 93.3332 105.467 109.866 86 129.333L50.6667 164.666L42 156L33.3333 147.333L68.9333 111.6C88.4 91.9998 104.8 75.9998 105.2 75.9998C105.6 75.9998 109.333 79.4665 113.6 83.5998ZM328.267 116.133L367.067 154.933L358.133 163.733L349.333 172.666L310.4 133.733L271.333 94.6665L280 85.9998C284.667 81.1998 288.8 77.3332 289.067 77.3332C289.333 77.3332 306.933 94.7998 328.267 116.133ZM157.867 108C164.4 109.466 170.133 110.933 170.533 111.333C170.933 111.733 156.4 126.933 138.267 145.066L105.2 178.133L117.6 190.133C124.4 196.666 132.267 203.066 134.933 204.4C146.4 209.733 159.6 209.733 170.267 204.133C173.067 202.666 183.067 193.733 192.667 184.133L210 166.666H222.667H235.333L278.933 210.266C302.8 234.4 322.8 255.333 323.2 256.8C325.333 263.733 316.667 271.066 310.267 267.866C308.667 267.066 295.733 254.933 281.733 240.933L256 215.333L247.733 223.6L239.333 232L266.4 259.066C281.2 274 293.333 287.2 293.333 288.533C293.333 291.333 290.8 296.266 288.8 297.6C288 298.133 285.333 298.666 282.8 298.666C278.533 298.666 275.867 296.4 251.733 272.4L225.333 246L217.2 254.133L209.067 262.266L235.867 289.066C257.6 310.8 262.667 316.533 262.667 319.467C262.667 324.533 257.867 329.333 252.8 329.333C249.333 329.333 246 326.667 231.733 312.4L214.667 295.333L206.4 303.6L198.133 312L215.067 329.067C233.467 347.733 234.933 350.667 229.067 356.933C224.667 361.733 219.333 360.933 213.2 354.8C209.067 350.667 208 348.667 208 344.8C208 339.467 204 330.533 199.467 325.6C198 323.867 193.867 320.933 190.4 319.2C184.533 316.267 184 315.467 184 311.333C184 298.666 172.4 285.6 158.4 282.133C155.867 281.6 154.667 280.4 154.667 278.533C154.667 274.533 150.133 266.533 145.067 261.866C139.467 256.4 134.133 253.866 126.667 252.8C121.2 252 120.4 251.333 117.067 245.333C114.933 241.733 110.933 236.933 108 234.8C102 230.533 91.0667 227.466 85.8667 228.8C81.8667 229.866 80.4 228.266 74.1333 216C69.3333 206.8 64 190.933 64 186.266C64 182.8 140.667 105.333 144 105.333C145.067 105.333 151.333 106.533 157.867 108ZM293.2 149.866L334.933 191.6L328.667 206L322.267 220.266L283.467 181.466L244.667 142.666H222.667H200.667L180 163.333C164.133 179.2 158.4 184.133 154.933 184.8C150.133 185.733 144 183.733 140.8 180.133C138.933 178.133 141.2 175.466 168.667 148L198.667 118L223.067 113.066C236.4 110.4 248.267 108.266 249.333 108.133C250.4 108 270.133 126.8 293.2 149.866ZM94.6667 254.666C99.0667 259.066 98.1333 264 91.6 270.4C85.2 276.666 80.2667 277.6 76 273.333C71.8667 269.2 72.8 265.866 79.4667 258.666C86.4 251.333 90.2667 250.266 94.6667 254.666ZM128.933 278.933C134 283.733 132.933 287.466 123.6 296.933C114.267 306.133 110.133 307.466 105.333 302.666C100.533 297.866 101.867 293.733 111.067 284.4C120.4 275.2 123.867 274.133 128.933 278.933ZM158.533 308.8C160.133 310.8 161.333 313.6 161.333 314.933C161.333 318.4 145.067 334.667 141.6 334.667C140.267 334.667 137.467 333.467 135.467 331.867C129.733 327.333 130.8 323.333 140.267 313.733C149.867 304.133 154 302.933 158.533 308.8ZM183.6 343.467C186.533 348 184.933 352.133 177.867 358.533C172.8 363.2 171.2 364.133 168.267 363.333C160.667 361.6 159.067 353.867 165.067 347.067C172.267 338.667 179.467 337.333 183.6 343.467Z" fill="#0E79BF"/>
<path d="M21.6 317.733L8 331.333L16.4 339.733L24.6667 348L38.4 334.267C45.8667 326.8 52 320 52 319.067C52 317.6 37.8667 304 36.2667 304C35.7333 304 29.2 310.133 21.6 317.733Z" fill="#0E79BF"/>
<path d="M344.667 312L336.8 320L350 333.866C357.333 341.466 363.6 347.733 364 347.733C364.4 347.866 368.4 344.4 372.933 340.133L381.333 332.533L367.867 318.266C360.4 310.4 354 304 353.467 304C352.933 304 349.067 307.6 344.667 312Z" fill="#0E79BF"/>
<path d="M55.2 351.467L42.1333 365.467L50.4 373.6L58.5333 381.867L72.5333 367.2L86.5333 352.667L78.6666 344.933C74.2666 340.8 70.1333 337.333 69.4666 337.333C68.8 337.333 62.4 343.733 55.2 351.467Z" fill="#0E79BF"/>
<path d="M311.6 345.067C307.467 349.333 304 353.333 304 354C304 354.8 310 361.333 317.333 368.533L330.533 381.867L337.6 375.333C341.467 371.733 345.2 367.867 345.867 366.933C346.667 365.467 343.333 361.333 333.2 351.2L319.333 337.333L311.6 345.067Z" fill="#0E79BF"/>
</symbol></svg>