<?xml version="1.0" standalone="no"?>
<!DOCTYPE svg PUBLIC "-//W3C//DTD SVG 20010904//EN"
 "http://www.w3.org/TR/2001/REC-SVG-20010904/DTD/svg10.dtd">
<svg version="1.0" xmlns="http://www.w3.org/2000/svg"
 width="249.000000pt" height="209.000000pt" viewBox="0 0 249.000000 209.000000"
 preserveAspectRatio="xMidYMid meet">
<metadata>
Created by potrace 1.10, written by Peter Selinger 2001-2011
</metadata>
<g transform="translate(0.000000,209.000000) scale(0.050000,-0.050000)"
fill="#000000" stroke="none">
<path d="M400 3993 c-256 -119 -240 10 -240 -1893 0 -1845 -10 -1732 164
-1853 l83 -57 2061 -6 c1501 -4 2085 1 2145 17 96 27 201 120 240 213 40 96
40 3276 0 3372 -35 82 -134 177 -218 207 -93 34 -4163 34 -4235 0z m4158 -300
c16 -20 21 -333 17 -1133 l-5 -1106 -307 245 c-478 382 -583 395 -932 113 -77
-61 -147 -112 -156 -112 -8 0 -238 185 -510 412 -576 479 -572 477 -745 477
-178 0 -168 7 -850 -591 l-600 -525 -5 1096 c-4 793 1 1104 17 1124 34 40
4042 40 4076 0z m-2111 -1786 c260 -216 473 -399 473 -407 0 -9 -65 -68 -145
-133 -207 -167 -249 -254 -160 -331 105 -90 115 -84 624 323 536 429 442 427
951 21 l389 -310 1 -271 c0 -185 -8 -279 -24 -295 -35 -35 -4037 -35 -4072 0
-16 16 -24 111 -24 296 l0 273 703 613 c552 483 714 614 757 614 41 0 168 -95
527 -393z"/>
<path d="M3486 3387 c-385 -136 -497 -672 -200 -963 380 -372 998 -111 996
421 -1 406 -404 681 -796 542z m297 -268 c287 -79 262 -515 -31 -570 -349 -65
-480 469 -140 570 79 24 87 24 171 0z"/>
</g>
</svg>
