<svg xmlns="http://www.w3.org/2000/svg" width="180" height="58.395" viewBox="0 0 180 58.395"><path fill="none" d="M0 0h180v58.395H0z"/><path fill="#006678" d="M83.975 17.27h4.113v4.302h-4.113zM102.08 49.347V46.02c-3.313 0-4.8-1.5-4.8-3.84v-12.8h4.8v-3.55h-4.8v-8.55H93.2v24.855c0 5.07 4.273 7.212 8.88 7.212M88.046 49V25.878h-4.08V49zM75.162 37.37c0 7.912-2.832 8.8-6 8.8-3.12 0-5.474-1.54-5.474-6.61v-8.44c.962-1.31 3.025-2.308 5.762-2.308 3.41 0 5.713 1.96 5.713 8.558m4.37-.175c0-9.483-5.138-11.71-9.458-11.71a9.357 9.357 0 0 0-6.387 2.1V17.24h-4.08v22.01c0 8.128 5.09 10.1 9.555 10.1 4.56 0 10.37-2.1 10.37-12.152M51.35 35.58H40.213c.433-4.896 2.5-6.767 5.953-6.767 3.5 0 4.9 2.09 5.186 6.766m4.178 3.32v-2.577c0-7.473-4.225-10.882-9.363-10.882-5.377 0-10.37 3.54-10.37 12.15 0 8.566 5.377 11.8 11.138 11.8a10.18 10.18 0 0 0 7.6-3.223l-1.74-2.416a8.254 8.254 0 0 1-5.81 2.417c-3.792 0-6.72-1.717-6.817-7.267zm-21.3-13.067H30.2l-4.753 15.82-.72 2.884h-.144l-.72-2.884-4.753-15.82h-3.843l-4.752 15.82-.715 2.885h-.15L8.93 41.7 4.177 25.834H0L7.778 49h3.888l4.56-14.247.865-3.06h.193l.864 3.06L22.71 49h3.936zm73.288-8.61h4.08V40.34h-4.08zm-.123 27.998h4.113v4.302h-4.113z"/><path d="M173.326 10.643c-.008-.01-25.735-2.082-25.735-2.082l-21.646 5.477 25.942 2.053zM121.848 32.33l28.966 1.27s29.034-7.383 29.032-7.39L151.1 24.922zm.45-8.722h-.04v.014z" fill="#4eb1c8"/><path d="M154.06 49.987l-17.735 4.5a29.073 29.073 0 0 0 21.746 3 28.776 28.776 0 0 0 11.836-6.215zM150.827 33.6l-26.9 6.823 25.894 2.03 29.617-7.538-28.61-1.315m1.048-17.508s-29.657 7.518-29.66 7.528l28.9 1.3 26.708-6.79c0-.01-25.943-2.033-25.943-2.033m-4.3-7.532L165.548 4a29.05 29.05 0 0 0-33.962 3.314l15.987 1.25" fill="#a2bc4d"/><path d="M151.873 16.094l25.957 2.033a29.028 29.028 0 0 0-4.507-7.482zM147.5 8.587l-16-1.252a26.923 26.923 0 0 0-5.648 6.727h.024zm2.315 33.865l-25.9-2.028a29.247 29.247 0 0 0 4.52 7.454zm4.225 7.53l15.86 1.292a29.24 29.24 0 0 0 5.78-6.787zM150.806 33.6l28.63 1.314a29.252 29.252 0 0 0 .408-8.707zm.28-8.68l-28.9-1.3a28.76 28.76 0 0 0-.367 8.707z" fill="#006678"/><path d="M128.44 47.882l25.606 2.1 21.644-5.495c.006-.01-25.87-2.03-25.87-2.03z" fill="#4eb1c8"/><path fill="none" d="M0 0h180v58.395H0z"/></svg>