<?xml version="1.0" standalone="no"?>
<!DOCTYPE svg PUBLIC "-//W3C//DTD SVG 20010904//EN"
 "http://www.w3.org/TR/2001/REC-SVG-20010904/DTD/svg10.dtd">
<svg version="1.0" xmlns="http://www.w3.org/2000/svg"
 width="300.000000pt" height="214.000000pt" viewBox="0 0 300.000000 214.000000"
 preserveAspectRatio="xMidYMid meet">
<metadata>
Created by potrace 1.10, written by Peter Selinger 2001-2011
</metadata>
<g transform="translate(0.000000,214.000000) scale(0.100000,-0.100000)"
fill="#000000" stroke="none">
<path d="M779 1938 c-94 -147 -167 -376 -176 -558 -9 -175 30 -317 125 -456
49 -73 167 -187 247 -240 112 -76 116 -69 5 8 -121 84 -239 227 -300 362 -32
69 -60 210 -60 297 0 125 62 365 130 499 21 42 45 82 54 89 14 12 16 5 18 -65
l1 -79 7 100 c3 55 9 106 14 113 4 6 3 12 -2 12 -6 0 -34 -37 -63 -82z"/>
<path d="M1100 1478 c0 -5 4 -8 9 -8 5 0 -2 -33 -15 -74 -18 -51 -31 -76 -47
-83 -19 -9 -15 -11 26 -14 27 -2 51 -1 53 3 3 5 -2 8 -10 8 -21 0 -20 3 7 86
21 60 27 69 50 72 21 3 27 -1 27 -15 0 -24 -19 -43 -42 -43 -10 0 -18 -4 -18
-10 0 -18 49 -11 70 10 25 25 26 56 2 69 -21 11 -112 10 -112 -1z"/>
<path d="M1268 1473 c-9 -10 -25 -48 -38 -85 -12 -38 -29 -72 -38 -78 -12 -7
2 -9 51 -10 58 0 67 2 67 18 0 10 11 52 25 92 14 40 25 75 25 77 0 2 -17 3
-38 3 -25 0 -45 -7 -54 -17z m60 -15 c-3 -7 -15 -43 -27 -80 -17 -50 -27 -68
-40 -68 -27 0 -30 8 -16 53 31 98 36 107 62 107 16 0 23 -5 21 -12z"/>
<path d="M1822 1460 c-1 -40 -7 -48 -34 -43 -48 9 -106 -69 -77 -103 8 -10 34
-14 84 -14 l73 0 7 40 c4 22 11 42 16 46 14 8 11 24 -5 24 -8 0 -18 -19 -25
-45 -11 -44 -30 -63 -50 -51 -8 5 13 83 44 159 5 13 2 17 -12 17 -15 0 -20 -7
-21 -30z m-22 -70 c0 -6 -7 -27 -15 -46 -10 -25 -20 -35 -32 -32 -24 4 -29 51
-8 72 18 18 55 22 55 6z"/>
<path d="M1893 1478 c2 -7 10 -13 17 -13 7 0 15 6 18 13 2 7 -5 12 -18 12 -13
0 -20 -5 -17 -12z"/>
<path d="M2306 1431 c-16 -17 -33 -68 -39 -111 -1 -10 8 -16 26 -18 16 -2 27
2 27 8 0 7 -7 10 -15 6 -18 -7 -19 4 -3 56 7 25 16 37 24 34 8 -3 16 -1 19 4
4 6 -1 10 -9 10 -10 0 -13 6 -10 15 8 20 1 19 -20 -4z"/>
<path d="M1430 1405 c0 -12 -4 -13 -19 -5 -39 20 -87 -52 -56 -84 19 -19 56
-21 73 -4 8 8 15 8 26 -2 24 -19 46 -5 46 29 0 42 9 61 31 61 19 0 19 -1 -2
-41 -15 -30 -18 -44 -10 -52 16 -16 14 -23 -15 -36 -22 -10 -30 -9 -45 5 -11
10 -22 14 -27 10 -4 -4 3 -16 15 -26 26 -21 64 -16 89 12 15 16 16 23 6 38
-10 16 -8 26 9 55 12 19 25 35 30 35 5 0 9 4 9 9 0 5 -19 8 -41 7 -47 -3 -69
-24 -69 -66 0 -23 -4 -27 -27 -27 -16 -1 -36 -2 -47 -4 -22 -5 -42 22 -33 45
5 11 19 16 52 16 43 0 44 1 33 20 -15 24 -28 26 -28 5z"/>
<path d="M1663 1413 c4 -3 2 -12 -4 -20 -9 -10 -6 -13 15 -13 14 0 26 4 26 8
0 11 -22 32 -34 32 -5 0 -6 -3 -3 -7z"/>
<path d="M1996 1404 c-7 -18 0 -34 15 -34 12 0 12 37 0 44 -5 3 -12 -1 -15
-10z"/>
<path d="M2058 1410 c0 -3 -2 -9 -3 -15 -7 -42 -18 -75 -26 -75 -5 0 -9 -4 -9
-10 0 -5 15 -10 33 -10 21 0 27 3 19 9 -11 6 -11 17 -2 50 9 34 15 41 35 41
29 0 32 -21 10 -64 -19 -36 -19 -38 1 -34 16 3 49 97 38 107 -6 6 -94 7 -96 1z"/>
<path d="M2232 1409 c2 -7 10 -15 17 -17 8 -3 12 1 9 9 -2 7 -10 15 -17 17 -8
3 -12 -1 -9 -9z"/>
<path d="M1606 1394 c-23 -22 -30 -62 -16 -79 14 -17 57 -20 80 -5 22 14 5 23
-19 10 -28 -15 -41 -5 -41 31 0 19 5 29 15 29 8 0 15 7 15 15 0 19 -14 19 -34
-1z"/>
<path d="M1930 1388 c-26 -28 -26 -63 1 -81 23 -16 70 -9 77 11 3 10 -2 10
-22 0 -22 -9 -29 -9 -41 3 -19 18 -9 56 16 62 10 3 19 10 19 16 0 18 -28 12
-50 -11z"/>
<path d="M2197 1403 c-13 -12 -7 -44 8 -49 17 -7 20 -30 5 -39 -6 -4 -17 -2
-24 4 -13 11 -26 5 -26 -11 0 -18 59 -7 74 14 14 20 14 24 -5 44 -12 13 -18
27 -14 33 7 12 -7 15 -18 4z"/>
<path d="M515 1273 c-55 -129 -75 -323 -46 -443 15 -65 57 -153 96 -204 l27
-36 277 -1 c152 -1 354 -4 449 -8 94 -3 172 -4 172 -1 0 3 -23 20 -50 39 -73
49 -224 194 -292 280 -33 41 -77 109 -99 152 -38 77 -58 104 -39 55 47 -124
131 -242 277 -389 l118 -119 -130 6 c-125 5 -179 11 -197 22 -4 3 -8 1 -8 -4
0 -12 -457 -9 -468 3 -65 76 -111 183 -121 282 -10 101 3 235 32 326 27 82 27
101 2 40z"/>
<path d="M1251 1174 c-39 -32 -39 -57 -1 -86 34 -25 37 -39 14 -62 -23 -24
-53 -20 -64 9 -13 33 -20 32 -20 -4 0 -25 5 -30 31 -36 38 -9 79 18 94 59 8
25 6 31 -24 55 -30 24 -32 30 -22 49 15 28 47 28 54 1 6 -22 27 -18 27 5 0 10
-39 36 -55 36 -2 0 -17 -12 -34 -26z"/>
<path d="M1483 1169 c-1 -11 -12 -50 -23 -85 l-22 -65 -46 3 c-41 3 -47 6 -44
23 2 11 12 29 23 40 16 16 22 18 39 8 13 -9 21 -9 26 -2 7 13 -13 29 -36 29
-25 0 -56 -27 -70 -61 -12 -28 -11 -33 4 -44 22 -16 132 -14 129 2 -2 7 9 41
22 78 14 36 25 72 25 80 0 23 -26 18 -27 -6z"/>
<path d="M1790 1174 c0 -17 22 -14 28 4 2 7 -3 12 -12 12 -9 0 -16 -7 -16 -16z"/>
<path d="M1974 1181 c3 -5 -5 -42 -18 -82 l-24 -74 -48 -3 c-48 -3 -67 8 -57
35 3 8 21 13 43 13 45 0 61 17 35 37 -26 18 -40 16 -69 -9 -62 -57 -38 -98 55
-95 l62 2 13 50 c7 28 20 69 28 93 15 40 14 42 -5 42 -11 0 -18 -4 -15 -9z
m-74 -91 c0 -5 -14 -10 -31 -10 -17 0 -28 4 -24 10 3 6 17 10 31 10 13 0 24
-4 24 -10z"/>
<path d="M2290 1173 c0 -10 -10 -48 -22 -85 l-22 -68 -43 0 c-38 0 -43 3 -43
23 1 39 25 60 59 52 18 -4 31 -3 31 3 0 5 -12 12 -27 15 -36 8 -74 -19 -85
-58 -11 -42 5 -54 70 -53 l57 1 28 86 c32 101 32 101 12 101 -8 0 -15 -8 -15
-17z"/>
<path d="M1510 1110 c0 -5 7 -10 16 -10 17 0 12 -29 -12 -67 -18 -29 -18 -33
4 -33 24 0 50 99 30 112 -18 11 -38 10 -38 -2z"/>
<path d="M1590 1064 c0 -40 3 -54 13 -51 7 2 11 18 9 40 -1 19 2 38 8 42 13 8
3 25 -16 25 -10 0 -14 -14 -14 -56z"/>
<path d="M1658 1114 c-4 -3 -2 -18 2 -34 5 -16 6 -39 3 -51 -4 -16 -2 -20 8
-17 8 3 14 19 14 40 0 20 3 40 8 44 13 13 8 24 -11 24 -10 0 -21 -3 -24 -6z"/>
<path d="M1727 1114 c-15 -15 -6 -24 17 -18 24 6 24 5 13 -31 -6 -21 -17 -39
-24 -42 -22 -9 -14 -23 12 -23 20 0 25 5 25 24 0 14 5 37 10 52 6 15 9 28 8
30 -8 8 -55 14 -61 8z"/>
<path d="M2041 1106 c-21 -12 -50 -50 -51 -68 0 -15 33 -38 54 -38 35 0 76 37
76 69 0 48 -32 63 -79 37z m59 -24 c0 -29 -29 -62 -56 -62 -29 0 -33 33 -7 62
21 24 63 24 63 0z"/>
<path d="M2412 1108 c-18 -18 -15 -42 8 -56 26 -16 15 -35 -16 -29 -14 2 -27
0 -30 -4 -8 -13 22 -22 51 -15 29 7 35 46 10 66 -24 20 -18 33 11 26 19 -5 25
-3 22 6 -6 18 -40 22 -56 6z"/>
<path d="M2522 1113 c-16 -6 -42 -56 -42 -82 0 -25 42 -38 73 -23 20 10 18 11
-15 11 -43 1 -48 16 -22 56 16 24 54 35 54 15 0 -5 -10 -10 -22 -10 -14 0 -19
-3 -12 -10 14 -14 54 0 54 20 0 25 -34 37 -68 23z"/>
<path d="M2634 1098 c-40 -47 -45 -64 -24 -83 14 -13 28 -16 54 -11 50 10 57
28 8 20 -41 -6 -56 3 -46 29 3 9 19 15 41 15 46 0 65 18 39 38 -28 20 -50 17
-72 -8z m56 -8 c0 -5 -12 -10 -26 -10 -14 0 -23 4 -19 10 3 6 15 10 26 10 10
0 19 -4 19 -10z"/>
<path d="M2328 1103 c26 -5 26 -2 7 -47 -8 -20 -21 -36 -27 -36 -9 0 -9 -3 -1
-11 19 -19 40 -3 47 36 4 20 10 43 13 51 4 10 -3 14 -28 13 -24 -1 -27 -3 -11
-6z"/>
<path d="M480 550 c1 -19 183 -121 195 -108 2 2 -24 23 -58 46 l-61 42 54 1
c410 6 832 7 858 2 l33 -5 -3 -59 c-2 -54 -8 -64 -31 -60 -5 1 -6 -3 -2 -9 3
-5 17 -10 30 -10 16 0 23 -5 19 -13 -3 -8 -39 -18 -90 -25 -81 -12 -86 -12
-115 9 -17 12 -41 22 -55 22 -13 0 -21 3 -18 8 3 5 53 10 112 10 l107 2 -75 7
c-41 5 -235 11 -430 14 -357 5 -623 19 -735 36 -64 10 -121 13 -114 5 9 -9
285 -67 414 -87 104 -16 195 -21 458 -25 239 -4 327 -8 324 -17 -4 -13 -61
-21 -272 -36 -282 -20 -356 -35 -323 -65 34 -32 86 -39 328 -43 352 -6 1012
27 1037 52 14 13 -7 14 -132 6 -206 -15 -958 -17 -962 -4 -5 14 20 20 112 29
137 13 391 46 463 61 144 30 159 48 50 61 l-73 8 0 75 0 75 -522 0 c-288 0
-523 -2 -523 -5z m445 -150 c57 -6 43 -7 -80 -8 -82 0 -159 3 -170 8 -24 11
148 11 250 0z m15 -155 c0 -16 -62 -21 -97 -8 -15 6 -13 9 12 14 55 12 85 10
85 -6z"/>
</g>
</svg>
