<svg width="450" height="450" viewBox="0 0 450 450" fill="none" xmlns="http://www.w3.org/2000/svg">
<path d="M270.953 1.66973C268.931 2.54864 266.382 4.65801 265.24 6.24005L263.13 9.22833L262.867 41.9237L262.603 74.7069H205.298C172.339 74.7069 144.654 75.0584 140.083 75.5858C118.99 77.9588 101.411 86.4842 86.3821 101.426C74.5169 113.291 66.6946 126.914 62.9153 142.295L60.9817 150.293H39.009C17.0364 150.293 16.9485 150.293 12.3782 152.578C7.01685 155.215 3.14966 159.609 1.21607 165.146C-0.80542 171.035 -0.80542 278.965 1.21607 284.853C3.14966 290.391 7.01685 294.785 12.3782 297.422L16.9485 299.707H120.923H224.898V368.262C224.898 428.027 225.074 437.256 226.216 440.068C228.062 444.463 229.908 446.396 234.126 448.33C237.378 449.824 240.542 450 273.677 450C306.812 450 309.976 449.824 313.228 448.33C317.447 446.396 319.292 444.463 321.138 440.068C322.281 437.256 322.456 428.027 322.456 368.35V299.707L381.607 299.531L440.669 299.268L443.658 297.158C445.24 296.016 447.349 293.467 448.228 291.445C449.81 288.018 449.898 284.326 449.898 223.506C449.898 155.566 449.634 150.908 445.767 138.428C435.044 104.15 405.337 79.7166 369.478 75.5858C365.171 75.1463 342.671 74.7069 319.644 74.7069H277.632V67.2362V59.8534L310.415 59.5897L343.111 59.326L346.099 57.2166C351.636 53.2616 352.339 50.1854 352.339 29.7947C352.339 12.5682 352.251 11.5135 350.318 7.90997C348.912 5.27325 347.066 3.42755 344.429 2.02129C340.65 -0.000190735 340.386 -0.000190735 307.603 -0.000190735C277.281 -0.000190735 274.292 0.175591 270.953 1.66973ZM337.398 29.8826V44.824H307.515H277.632V29.8826V14.9412H307.515H337.398V29.8826ZM167.769 92.3729C196.333 98.9647 219.273 124.014 224.019 153.808C224.546 157.324 224.898 183.691 224.898 222.1V284.766H217.251H209.517L209.781 228.34C209.956 189.404 209.781 170.42 209.077 167.432C207.759 161.191 203.189 155.391 197.564 152.578L192.906 150.293H134.634H76.3626L76.8899 147.832C81.7239 126.738 95.9622 108.457 115.562 98.3495C131.734 89.9998 148.96 87.9784 167.769 92.3729ZM377.828 92.1092C404.019 99.0526 423.794 118.125 432.056 144.58L434.517 152.49L434.781 218.584L435.044 284.766H337.398H239.839V222.012C239.839 181.758 239.488 156.797 238.872 152.402C235.708 129.375 223.404 108.721 203.365 92.4608L199.849 89.6483L285.103 89.912C370.093 90.1756 370.357 90.1756 377.828 92.1092ZM186.226 165.586C186.226 166.553 108.531 231.68 106.861 232.119C105.806 232.383 104.048 232.383 102.993 232.119C101.324 231.68 23.6282 166.641 23.6282 165.586C23.6282 165.41 60.1907 165.234 104.927 165.234C149.663 165.234 186.226 165.41 186.226 165.586ZM45.1614 203.906C59.6634 216.123 71.7923 226.406 72.2317 226.758C72.7591 227.197 22.9251 270.264 16.4211 274.922C14.927 276.064 14.8391 274.219 14.8391 227.109V178.154L16.8606 179.912C17.9153 180.879 30.6594 191.689 45.1614 203.906ZM194.839 251.367L194.576 276.064L166.275 252.07C150.718 238.887 137.886 227.725 137.886 227.373C137.798 227.021 150.542 215.859 166.187 202.676L194.576 178.594L194.839 202.588C194.927 215.859 194.927 237.744 194.839 251.367ZM89.9856 241.699C95.8743 246.182 99.4778 247.412 106.158 247.236C111.255 247.06 114.507 245.654 120.484 241.084L125.581 237.217L153.355 260.771L181.128 284.326L142.72 284.59C121.626 284.678 87.3489 284.678 66.5188 284.59L28.7258 284.326L56.3235 260.859C71.4407 247.939 83.9212 237.392 84.097 237.392C84.1849 237.305 86.9095 239.238 89.9856 241.699ZM262.691 358.418C263.13 415.459 263.13 416.777 264.888 418.008C269.195 421.172 274.204 420.205 276.49 415.723C277.369 414.053 277.632 400.342 277.632 356.572V299.707H292.574H307.515V367.383V435.059H273.677H239.839V367.383V299.619L251.089 299.883L262.251 300.146L262.691 358.418Z" fill="#FBE91D"/>
<path d="M338.716 211.465C335.201 213.311 333.091 215.244 331.333 218.408C330.191 220.605 329.927 224.033 329.927 239.941C329.927 260.244 330.191 261.65 334.937 266.045C338.804 269.648 340.65 269.824 375.367 269.824C407.447 269.824 408.941 269.736 412.017 267.979C413.775 267.012 416.236 264.814 417.378 263.057C419.488 259.98 419.576 259.277 419.839 243.105C420.191 222.451 419.839 219.727 416.236 215.596C411.402 210.059 411.314 210.059 374.576 210.059C346.187 210.059 341.001 210.234 338.716 211.465ZM405.074 239.941V254.883H375.191H345.308V239.941V225H375.191H405.074V239.941Z" fill="#FBE91D"/>
<path d="M77.5932 182.285C74.4291 184.922 74.1654 189.844 77.0658 192.744C78.9994 194.678 79.5268 194.678 103.433 194.941C118.902 195.117 128.746 194.853 130.328 194.326C133.404 193.096 135.601 188.174 134.458 185.098C132.613 180.352 131.734 180.176 104.751 180.176H79.9662L77.5932 182.285Z" fill="#FBE91D"/>
</svg>
