<svg width="400" height="387" viewBox="0 0 400 387" fill="none" xmlns="http://www.w3.org/2000/svg">
<path d="M188 20V40H200H212V20V-2.08616e-06H200H188V20Z" fill="#0E79BF"/>
<path d="M138.4 11.0664C133.333 14.1331 129.333 17.1998 129.333 17.7331C129.333 18.3998 134.267 26.9331 140.133 36.7998C150.533 53.9998 151.2 54.6664 153.867 52.9331C155.467 51.8664 159.867 49.0664 163.733 46.6664C167.6 44.2664 170.667 41.9998 170.4 41.4664C168.8 37.9998 148.533 5.33309 148 5.46642C147.6 5.46642 143.333 7.99975 138.4 11.0664Z" fill="#0E79BF"/>
<path d="M240.667 22.7999C234.8 32.5332 229.867 40.7999 229.6 41.3332C229.333 41.8666 233.733 45.0666 239.067 48.3999L249.067 54.3999L259.867 36.6666C265.867 26.9332 270.667 18.3999 270.667 17.7332C270.667 16.7999 253.333 5.33324 251.867 5.33324C251.6 5.33324 246.533 13.1999 240.667 22.7999Z" fill="#0E79BF"/>
<path d="M52.2667 95.0665L0 147.333L19.7333 167.066L39.4667 186.8L41.7333 196.266C44.6667 208.4 50.9333 223.866 56.8 233.466C59.2 237.6 61.3333 241.6 61.3333 242.266C61.3333 243.066 60 244.666 58.5333 246.133C50.9333 252.933 48.2667 270 53.2 280.8C56.8 288.8 64.5333 295.6 72.8 298.266C78.2667 300 80 301.066 80 303.066C80 304.533 81.6 308.533 83.6 312.133C87.2 318.8 96 326 102.667 327.6C107.467 328.667 108.933 330.133 109.867 334.8C111.733 344.4 125.867 357.333 134.4 357.333C136.4 357.333 137.333 358.667 138.4 362.933C142 377.067 154.8 386.667 170 386.667C179.067 386.667 184.667 384.4 191.733 378.133L197.067 373.2L203.333 377.2C214.267 384.133 227.467 385.067 237.867 379.733C245.467 375.867 252.933 366.133 254.533 358C255.333 354.533 256.4 353.733 262 352C271.333 349.2 280.8 340 284 330.667C286.267 323.867 286.8 323.333 292.8 321.333C304.4 317.467 315.867 304.4 316 294.933C316 293.333 316.8 292 317.733 292C326.533 292 339.733 282.4 344.133 272.666C347.733 264.933 347.467 253.066 343.467 244.533L340.267 237.733L349.333 217.333L358.4 196.933L379.2 176.133L400 155.333L344.267 99.5998L288.667 43.9998L268.533 64.1332L248.267 84.3998L222.133 89.5998L195.867 94.7998L186.533 91.3332C181.333 89.4665 169.867 86.5332 160.933 84.6665L144.8 81.4665L125.333 61.9998C114.667 51.3332 105.733 42.6665 105.333 42.6665C104.933 42.6665 81.0667 66.2665 52.2667 95.0665ZM113.6 83.5998C117.867 87.8665 121.333 91.8665 121.333 92.6665C121.333 93.3332 105.467 109.866 86 129.333L50.6667 164.666L42 156L33.3333 147.333L68.9333 111.6C88.4 91.9998 104.8 75.9998 105.2 75.9998C105.6 75.9998 109.333 79.4665 113.6 83.5998ZM328.267 116.133L367.067 154.933L358.133 163.733L349.333 172.666L310.4 133.733L271.333 94.6665L280 85.9998C284.667 81.1998 288.8 77.3332 289.067 77.3332C289.333 77.3332 306.933 94.7998 328.267 116.133ZM157.867 108C164.4 109.466 170.133 110.933 170.533 111.333C170.933 111.733 156.4 126.933 138.267 145.066L105.2 178.133L117.6 190.133C124.4 196.666 132.267 203.066 134.933 204.4C146.4 209.733 159.6 209.733 170.267 204.133C173.067 202.666 183.067 193.733 192.667 184.133L210 166.666H222.667H235.333L278.933 210.266C302.8 234.4 322.8 255.333 323.2 256.8C325.333 263.733 316.667 271.066 310.267 267.866C308.667 267.066 295.733 254.933 281.733 240.933L256 215.333L247.733 223.6L239.333 232L266.4 259.066C281.2 274 293.333 287.2 293.333 288.533C293.333 291.333 290.8 296.266 288.8 297.6C288 298.133 285.333 298.666 282.8 298.666C278.533 298.666 275.867 296.4 251.733 272.4L225.333 246L217.2 254.133L209.067 262.266L235.867 289.066C257.6 310.8 262.667 316.533 262.667 319.467C262.667 324.533 257.867 329.333 252.8 329.333C249.333 329.333 246 326.667 231.733 312.4L214.667 295.333L206.4 303.6L198.133 312L215.067 329.067C233.467 347.733 234.933 350.667 229.067 356.933C224.667 361.733 219.333 360.933 213.2 354.8C209.067 350.667 208 348.667 208 344.8C208 339.467 204 330.533 199.467 325.6C198 323.867 193.867 320.933 190.4 319.2C184.533 316.267 184 315.467 184 311.333C184 298.666 172.4 285.6 158.4 282.133C155.867 281.6 154.667 280.4 154.667 278.533C154.667 274.533 150.133 266.533 145.067 261.866C139.467 256.4 134.133 253.866 126.667 252.8C121.2 252 120.4 251.333 117.067 245.333C114.933 241.733 110.933 236.933 108 234.8C102 230.533 91.0667 227.466 85.8667 228.8C81.8667 229.866 80.4 228.266 74.1333 216C69.3333 206.8 64 190.933 64 186.266C64 182.8 140.667 105.333 144 105.333C145.067 105.333 151.333 106.533 157.867 108ZM293.2 149.866L334.933 191.6L328.667 206L322.267 220.266L283.467 181.466L244.667 142.666H222.667H200.667L180 163.333C164.133 179.2 158.4 184.133 154.933 184.8C150.133 185.733 144 183.733 140.8 180.133C138.933 178.133 141.2 175.466 168.667 148L198.667 118L223.067 113.066C236.4 110.4 248.267 108.266 249.333 108.133C250.4 108 270.133 126.8 293.2 149.866ZM94.6667 254.666C99.0667 259.066 98.1333 264 91.6 270.4C85.2 276.666 80.2667 277.6 76 273.333C71.8667 269.2 72.8 265.866 79.4667 258.666C86.4 251.333 90.2667 250.266 94.6667 254.666ZM128.933 278.933C134 283.733 132.933 287.466 123.6 296.933C114.267 306.133 110.133 307.466 105.333 302.666C100.533 297.866 101.867 293.733 111.067 284.4C120.4 275.2 123.867 274.133 128.933 278.933ZM158.533 308.8C160.133 310.8 161.333 313.6 161.333 314.933C161.333 318.4 145.067 334.667 141.6 334.667C140.267 334.667 137.467 333.467 135.467 331.867C129.733 327.333 130.8 323.333 140.267 313.733C149.867 304.133 154 302.933 158.533 308.8ZM183.6 343.467C186.533 348 184.933 352.133 177.867 358.533C172.8 363.2 171.2 364.133 168.267 363.333C160.667 361.6 159.067 353.867 165.067 347.067C172.267 338.667 179.467 337.333 183.6 343.467Z" fill="#0E79BF"/>
<path d="M21.6 317.733L8 331.333L16.4 339.733L24.6667 348L38.4 334.267C45.8667 326.8 52 320 52 319.067C52 317.6 37.8667 304 36.2667 304C35.7333 304 29.2 310.133 21.6 317.733Z" fill="#0E79BF"/>
<path d="M344.667 312L336.8 320L350 333.866C357.333 341.466 363.6 347.733 364 347.733C364.4 347.866 368.4 344.4 372.933 340.133L381.333 332.533L367.867 318.266C360.4 310.4 354 304 353.467 304C352.933 304 349.067 307.6 344.667 312Z" fill="#0E79BF"/>
<path d="M55.2 351.467L42.1333 365.467L50.4 373.6L58.5333 381.867L72.5333 367.2L86.5333 352.667L78.6666 344.933C74.2666 340.8 70.1333 337.333 69.4666 337.333C68.8 337.333 62.4 343.733 55.2 351.467Z" fill="#0E79BF"/>
<path d="M311.6 345.067C307.467 349.333 304 353.333 304 354C304 354.8 310 361.333 317.333 368.533L330.533 381.867L337.6 375.333C341.467 371.733 345.2 367.867 345.867 366.933C346.667 365.467 343.333 361.333 333.2 351.2L319.333 337.333L311.6 345.067Z" fill="#0E79BF"/>
</svg>
