<?xml version="1.0" standalone="no"?>
<!DOCTYPE svg PUBLIC "-//W3C//DTD SVG 20010904//EN"
 "http://www.w3.org/TR/2001/REC-SVG-20010904/DTD/svg10.dtd">
<svg version="1.0" xmlns="http://www.w3.org/2000/svg"
 width="219.000000pt" height="208.000000pt" viewBox="0 0 219.000000 208.000000"
 preserveAspectRatio="xMidYMid meet">
<metadata>
Created by potrace 1.10, written by Peter Selinger 2001-2011
</metadata>
<g transform="translate(0.000000,208.000000) scale(0.100000,-0.100000)"
fill="#000000" stroke="none">
<path d="M658 1701 c-189 -62 -298 -214 -298 -416 0 -131 51 -259 145 -362
107 -119 211 -169 404 -198 140 -20 239 -48 339 -96 77 -37 99 -55 280 -235
108 -106 200 -194 203 -194 7 0 149 141 149 149 0 3 -87 93 -193 200 -159 162
-199 208 -229 266 -49 95 -84 210 -103 341 -21 143 -30 176 -71 254 -66 126
-183 229 -319 280 -85 32 -229 37 -307 11z m297 -41 c136 -52 243 -148 306
-275 83 -168 77 -326 -17 -462 -39 -57 -130 -125 -192 -143 -170 -51 -364 4
-502 140 -261 258 -192 662 130 756 66 20 201 11 275 -16z m403 -662 c20 -88
62 -187 106 -253 l42 -62 -58 -57 -58 -57 -23 21 c-36 34 -188 106 -266 126
-73 19 -88 30 -48 36 29 5 134 -33 226 -83 l75 -40 49 49 49 49 -32 51 c-48
79 -99 212 -93 245 8 40 17 33 31 -25z m23 -208 l32 -61 -32 -33 -33 -34 -56
35 c-31 18 -84 43 -116 55 -51 19 -57 23 -41 32 55 33 104 77 134 124 l35 52
22 -54 c12 -30 37 -82 55 -116z m177 -153 l22 -23 -58 -57 -58 -57 -24 25 -24
25 54 55 c30 30 57 55 60 55 4 0 16 -10 28 -23z m63 -63 c11 -13 4 -23 -44
-72 -54 -54 -58 -56 -74 -39 -16 16 -14 20 37 72 30 30 57 55 61 55 4 0 12 -7
20 -16z m17 -131 c-55 -55 -58 -56 -76 -40 -19 17 -18 19 37 76 55 58 56 58
76 40 19 -19 19 -20 -37 -76z m55 -55 c-54 -54 -58 -57 -75 -41 -18 16 -16 19
39 75 54 54 58 57 75 41 18 -16 16 -19 -39 -75z m100 14 c16 -17 13 -22 -41
-75 -57 -57 -59 -57 -76 -38 -17 19 -16 21 36 75 29 30 56 55 59 55 3 1 13 -7
22 -17z m47 -50 c0 -4 -27 -34 -60 -67 -33 -33 -60 -53 -60 -45 0 8 23 38 52
67 50 50 68 63 68 45z"/>
<path d="M650 1609 c-34 -14 -73 -41 -106 -73 -171 -171 -112 -486 120 -640
109 -72 271 -99 374 -62 151 55 229 180 220 355 -4 78 -9 99 -42 166 -51 102
-129 180 -232 231 -72 36 -84 39 -178 41 -84 3 -110 -1 -156 -18z m170 -34
c12 -14 8 -22 -31 -61 l-45 -45 -51 51 c-32 32 -46 53 -39 57 22 14 121 30
137 22 9 -4 22 -15 29 -24z m145 -12 c30 -15 55 -30 55 -33 0 -4 -13 -18 -28
-33 l-28 -27 -44 45 c-37 37 -41 46 -30 60 16 19 10 20 75 -12z m-295 -67 l52
-49 -46 -46 -46 -45 -50 49 c-27 27 -50 54 -50 60 0 14 71 86 81 83 4 -2 30
-25 59 -52z m226 -94 c-25 -26 -47 -44 -48 -41 -2 2 -21 23 -43 47 l-39 42 43
44 44 45 44 -46 45 -46 -46 -45z m203 64 l42 -43 -32 -32 -32 -33 -45 45 -45
45 29 31 c16 17 31 31 34 31 3 0 25 -20 49 -44z m-536 -84 l47 -48 -45 -44
-45 -44 -24 23 c-20 19 -24 30 -19 55 10 61 24 106 31 106 4 0 29 -22 55 -48z
m487 -46 c0 -4 -81 -86 -85 -86 -4 0 -85 82 -85 86 0 2 19 24 42 48 l42 44 43
-45 c24 -24 43 -45 43 -47z m-260 40 l43 -38 -47 -46 -46 -46 -45 44 -45 44
42 43 c23 24 45 42 49 41 4 -2 26 -20 49 -42z m401 -37 c28 -56 29 -63 15 -78
-15 -14 -20 -12 -62 30 l-46 46 29 30 c15 17 29 31 30 32 2 0 17 -27 34 -60z
m-513 -72 l42 -43 -45 -44 -45 -44 -45 44 -45 44 42 43 c23 24 45 43 48 43 3
0 25 -19 48 -43z m222 -2 c24 -24 42 -46 39 -47 -2 -2 -23 -21 -47 -43 l-42
-39 -40 39 c-22 21 -40 43 -40 47 0 9 72 88 80 88 3 0 26 -20 50 -45z m220 5
c22 -22 40 -43 40 -47 0 -9 -72 -83 -81 -83 -4 0 -25 19 -48 42 l-42 41 43 44
c23 23 43 43 45 43 2 0 21 -18 43 -40z m-553 -112 l42 -43 -29 -32 -30 -33
-14 23 c-32 48 -48 98 -35 113 17 20 20 19 66 -28z m223 -3 c24 -24 42 -46 39
-47 -2 -2 -23 -21 -47 -43 l-42 -39 -44 43 -45 44 42 43 c23 24 44 44 47 44 3
0 26 -20 50 -45z m220 -90 l-44 -45 -45 45 -45 45 44 45 44 45 45 -45 45 -45
-44 -45z m205 115 c19 -21 18 -89 -3 -142 l-11 -26 -51 51 -51 51 43 43 c23
24 45 43 49 43 3 0 14 -9 24 -20z m-536 -134 l42 -43 -31 -32 -32 -32 -34 26
c-55 42 -61 62 -28 96 15 16 30 29 34 29 3 0 25 -20 49 -44z m221 -1 l44 -45
-44 -45 -44 -45 -45 44 -45 45 40 45 c21 24 41 45 44 45 3 1 26 -19 50 -44z
m234 -12 l50 -54 -45 -45 -44 -44 -55 55 -54 55 44 45 c24 25 47 45 50 44 3
-1 27 -26 54 -56z m-344 -98 c40 -41 43 -47 29 -60 -14 -14 -20 -14 -64 5 -74
32 -77 36 -46 69 14 16 28 29 31 30 3 0 26 -19 50 -44z m270 -56 c0 -3 -19
-11 -42 -17 -83 -21 -96 -20 -120 5 l-22 23 44 45 44 45 48 -47 c26 -26 48
-50 48 -54z"/>
<path d="M1494 1696 c-157 -73 -195 -284 -73 -405 50 -49 103 -71 177 -71 76
0 124 19 176 68 53 51 76 104 76 177 0 188 -187 310 -356 231z m70 -48 c18
-115 129 -218 233 -218 21 0 23 -4 18 -22 -17 -55 -64 -112 -117 -139 -44 -22
-58 -24 -58 -6 0 7 -7 36 -15 64 -28 95 -118 169 -213 176 -30 2 -32 4 -27 27
11 46 60 105 110 132 28 15 53 28 56 28 4 0 9 -19 13 -42z m155 5 c51 -31 101
-113 101 -165 0 -32 -11 -34 -71 -16 -78 23 -138 94 -155 182 l-7 39 43 -6
c23 -3 63 -18 89 -34z m-231 -205 c51 -24 89 -71 108 -134 24 -81 23 -82 -74
-52 -73 22 -141 112 -142 186 0 33 1 33 33 27 17 -4 51 -16 75 -27z"/>
</g>
</svg>
