<?xml version="1.0" standalone="no"?>
<!DOCTYPE svg PUBLIC "-//W3C//DTD SVG 20010904//EN"
 "http://www.w3.org/TR/2001/REC-SVG-20010904/DTD/svg10.dtd">
<svg version="1.0" xmlns="http://www.w3.org/2000/svg"
 width="125.000000pt" height="100.000000pt" viewBox="0 0 125.000000 100.000000"
 preserveAspectRatio="xMidYMid meet">
<metadata>
Created by potrace 1.10, written by Peter Selinger 2001-2011
</metadata>
<g transform="translate(0.000000,100.000000) scale(0.100000,-0.100000)"
fill="#000000" stroke="none">
<path d="M595 803 c-154 -18 -290 -35 -302 -38 -13 -3 -30 -16 -39 -30 -15
-23 -14 -41 11 -256 23 -186 32 -235 48 -255 14 -18 23 -22 30 -15 7 7 6 16
-5 28 -11 13 -23 83 -42 240 -25 220 -26 247 -3 256 7 2 142 19 300 38 210 24
293 30 305 23 9 -6 18 -25 20 -43 4 -42 32 -42 32 0 0 17 -4 39 -10 49 -20 37
-54 37 -345 3z"/>
<path d="M381 674 c-20 -25 -21 -39 -21 -259 0 -220 1 -234 21 -259 l20 -26
314 0 c293 0 314 1 336 19 l24 19 0 247 0 247 -24 19 c-22 18 -43 19 -336 19
l-314 0 -20 -26z m649 -14 c12 -7 16 -42 18 -185 2 -96 1 -175 -1 -175 -3 0
-40 36 -83 80 -42 44 -82 80 -88 80 -6 0 -53 -43 -105 -95 l-95 -96 -38 38
-38 37 -94 -93 c-88 -87 -95 -92 -105 -73 -14 27 -15 446 -1 473 10 18 24 19
313 19 172 0 308 -4 317 -10z m20 -435 c0 -11 -7 -31 -16 -43 -14 -21 -23 -22
-132 -22 l-116 0 -43 42 -43 42 87 88 88 88 87 -87 c54 -53 88 -96 88 -108z
m-378 8 c38 -37 68 -70 68 -73 0 -3 -63 -5 -140 -5 -77 0 -140 2 -140 5 0 6
133 140 139 140 3 0 36 -30 73 -67z"/>
<path d="M491 574 c-12 -15 -21 -33 -21 -41 0 -21 46 -63 70 -63 53 0 81 84
38 114 -33 23 -64 19 -87 -10z m67 -13 c18 -11 12 -41 -11 -55 -25 -15 -51 18
-36 45 10 20 26 24 47 10z"/>
</g>
</svg>
