<?xml version="1.0" standalone="no"?>
<!DOCTYPE svg PUBLIC "-//W3C//DTD SVG 20010904//EN"
 "http://www.w3.org/TR/2001/REC-SVG-20010904/DTD/svg10.dtd">
<svg version="1.0" xmlns="http://www.w3.org/2000/svg"
 width="900.000000pt" height="900.000000pt" viewBox="0 0 900.000000 900.000000"
 preserveAspectRatio="xMidYMid meet">
<metadata>
Created by potrace 1.10, written by Peter Selinger 2001-2011
</metadata>
<g transform="translate(0.000000,900.000000) scale(0.100000,-0.100000)"
fill="#000000" stroke="none">
<path d="M701 7350 c-45 -10 -97 -24 -115 -30 -294 -113 -507 -351 -572 -640
-21 -98 -21 -4282 0 -4380 46 -204 164 -383 341 -514 114 -84 205 -124 354
-156 93 -20 134 -20 3781 -20 3593 0 3689 0 3776 19 109 23 141 34 224 74 172
84 327 239 406 407 48 102 56 121 68 180 7 33 16 54 24 52 9 -1 12 465 12
2148 0 1648 -3 2149 -12 2148 -7 -2 -17 20 -24 50 -15 65 -27 97 -68 182 -97
204 -262 352 -499 448 -15 7 -71 21 -124 32 -95 20 -124 20 -3792 19 -3529 -1
-3700 -2 -3780 -19z m7604 -374 c39 -16 74 -32 79 -37 12 -11 -39 -60 -199
-194 -66 -55 -127 -107 -136 -115 -9 -8 -65 -55 -124 -105 -156 -130 -322
-270 -380 -319 -27 -24 -82 -70 -120 -102 -104 -87 -223 -187 -349 -294 -62
-52 -135 -113 -162 -135 -27 -22 -64 -54 -84 -71 -19 -17 -93 -79 -165 -139
-71 -60 -141 -119 -155 -131 -36 -31 -109 -93 -165 -139 -27 -22 -99 -82 -159
-134 -61 -51 -133 -112 -160 -135 -109 -91 -144 -120 -200 -170 -33 -28 -71
-60 -86 -71 -14 -11 -79 -65 -144 -120 -276 -234 -345 -292 -391 -330 -26 -22
-80 -67 -119 -100 -39 -33 -114 -96 -166 -140 -52 -43 -97 -81 -100 -85 -3 -3
-30 -25 -60 -50 -93 -76 -101 -83 -174 -147 -47 -41 -80 -63 -96 -63 -16 0
-49 22 -96 63 -81 71 -102 89 -250 212 -59 50 -155 131 -214 180 -58 50 -128
108 -155 130 -26 22 -98 83 -160 135 -62 52 -176 149 -255 215 -79 66 -167
140 -195 165 -29 25 -114 97 -190 160 -76 63 -188 158 -250 210 -61 52 -133
113 -160 135 -27 22 -97 81 -155 130 -87 74 -269 227 -350 295 -40 33 -310
261 -414 348 -61 52 -138 117 -170 145 -33 29 -71 61 -85 72 -14 11 -74 60
-132 110 -59 49 -155 131 -214 180 -59 50 -113 95 -119 100 -6 6 -38 33 -71
60 -154 128 -253 217 -259 230 -6 16 -3 18 109 61 l60 23 3735 -2 3735 -2 70
-29z m-7885 -375 c9 -9 66 -56 125 -106 60 -49 156 -130 215 -180 58 -49 128
-108 154 -130 27 -22 58 -48 70 -58 11 -10 83 -71 160 -135 218 -184 297 -250
360 -306 33 -28 74 -62 92 -76 28 -22 298 -249 364 -306 37 -32 110 -93 165
-139 27 -22 99 -82 159 -134 61 -51 133 -112 160 -135 27 -22 68 -57 91 -76
22 -19 63 -53 89 -75 27 -22 63 -52 80 -68 17 -15 70 -60 118 -100 49 -39 88
-79 88 -87 0 -8 -39 -48 -88 -87 -48 -40 -101 -85 -118 -100 -17 -16 -53 -46
-80 -68 -26 -22 -67 -56 -89 -75 -23 -19 -64 -54 -91 -76 -27 -23 -99 -84
-160 -135 -60 -52 -132 -112 -159 -134 -55 -46 -128 -107 -165 -139 -69 -60
-336 -284 -365 -306 -18 -15 -53 -44 -78 -65 -24 -22 -92 -80 -152 -130 -149
-125 -380 -320 -440 -370 -128 -109 -281 -238 -380 -320 -59 -49 -116 -97
-125 -106 -27 -25 -47 -29 -62 -12 -19 24 -19 4222 0 4246 15 17 35 13 62 -12z
m8218 -2034 c1 -1118 -1 -2070 -5 -2117 -7 -76 -10 -85 -29 -88 -11 -2 -34 8
-50 22 -27 23 -190 161 -308 260 -26 23 -56 48 -66 56 -10 8 -68 58 -131 110
-62 52 -161 136 -219 185 -59 50 -129 108 -155 130 -59 48 -131 110 -165 139
-23 19 -85 72 -375 316 -49 41 -97 82 -106 90 -9 8 -65 56 -124 105 -60 50
-157 131 -215 180 -59 50 -129 108 -155 130 -54 46 -69 58 -221 186 -60 52
-140 119 -177 149 -37 30 -67 62 -67 70 0 8 30 40 67 70 37 30 117 97 177 149
152 128 167 140 221 186 26 22 96 81 155 130 58 50 155 131 215 180 59 50 115
97 124 105 17 15 88 76 326 275 72 60 162 136 201 169 38 34 92 79 119 101 26
22 80 67 119 100 39 34 141 119 226 190 85 72 160 134 166 140 6 5 33 28 60
51 56 47 265 224 307 259 37 32 49 35 67 18 13 -12 15 -255 18 -2046z m-5303
-422 c69 -58 180 -151 248 -208 67 -57 207 -175 310 -262 104 -88 205 -172
225 -187 19 -15 51 -42 71 -60 70 -63 156 -135 200 -166 37 -27 53 -32 101
-32 48 0 64 5 101 32 39 28 200 161 240 198 9 8 65 56 124 105 60 50 156 131
215 180 58 50 128 108 155 130 26 22 53 45 59 50 128 114 387 325 398 325 7 0
24 -10 38 -22 14 -13 57 -49 95 -82 135 -112 161 -134 271 -227 60 -52 132
-112 159 -134 26 -22 112 -94 190 -160 115 -98 264 -224 385 -325 218 -182
312 -261 404 -340 129 -109 166 -141 227 -192 24 -20 94 -78 155 -130 61 -51
159 -133 219 -183 59 -49 115 -97 124 -105 9 -8 43 -37 76 -65 254 -212 283
-244 238 -258 -10 -3 -49 -17 -87 -31 l-69 -26 -3731 2 -3731 3 -72 30 c-50
20 -73 35 -73 46 0 15 79 87 255 234 33 27 65 54 71 60 6 5 60 51 119 100 59
50 158 133 220 185 62 52 134 113 160 135 27 22 53 45 59 50 6 6 43 36 81 68
39 33 81 68 95 80 14 12 81 68 150 126 69 57 143 120 165 140 23 20 56 48 74
63 35 28 181 150 361 303 58 50 128 108 155 130 27 22 99 83 160 135 62 52
174 147 250 210 76 63 154 130 174 147 20 18 42 33 49 33 7 0 69 -47 137 -105z"/>
</g>
</svg>
