<svg width="683" height="683" viewBox="0 0 683 683" fill="none" xmlns="http://www.w3.org/2000/svg">
<path d="M55.3333 151.2C49.8666 153.6 44.2666 160.4 43.3333 165.733C42.9333 168.133 42.8 248.667 42.9333 344.933C43.3333 519.2 43.3333 519.867 46.1333 523.467C47.6 525.467 50.5333 528.4 52.5333 529.867L56.1333 532.667H341.333H626.533L630.133 529.867C632.133 528.4 635.067 525.467 636.533 523.467C639.333 519.867 639.333 519.467 639.333 341.333C639.333 163.2 639.333 162.8 636.533 159.2C635.067 157.2 632.133 154.267 630.133 152.8L626.533 150L342.933 149.733C109.2 149.467 58.6666 149.733 55.3333 151.2ZM320 225.067V258.267L311.067 261.733C290.8 269.733 275.067 284 265.467 303.067C242.667 348.267 263.467 402.267 310.8 420.8L320 424.4V457.6V490.667H202.667H85.3333V469.333V448H99.7333C118 448 129.867 445.467 144 438.533C166.533 427.467 184.933 403.867 190 379.333C192.667 366.4 192.667 316.267 190 303.333C184.933 278.8 166.533 255.2 144 244.133C129.867 237.2 118 234.667 99.7333 234.667H85.3333V213.333V192H202.667H320V225.067ZM597.333 213.333V234.667H583.067C564.667 234.667 552.8 237.2 538.667 244.133C516.133 255.2 497.733 278.8 492.667 303.333C490 316.267 490 366.4 492.667 379.333C497.733 403.867 516.133 427.467 538.667 438.533C552.8 445.467 564.667 448 583.067 448H597.333V469.333V490.667H480H362.667V457.467V424.267L368.8 422.133C386.533 416.133 405.333 400.533 415.067 384C434.267 351.067 428.933 309.067 402.133 282C392.533 272.267 380.4 264.4 368.8 260.533L362.667 258.4V225.2V192H480H597.333V213.333ZM122.933 280.933C131.733 284.933 140.667 293.733 144.933 302.533L148.667 310V341.333V372.667L144.933 380.133C140.667 389.067 131.6 397.733 122.933 401.733C118.133 403.867 113.067 404.667 101.067 405.067L85.3333 405.6V341.333V277.067L101.067 277.6C113.333 278 118 278.667 122.933 280.933ZM597.333 341.467V405.6L581.733 405.067C569.6 404.667 564.533 403.867 559.733 401.733C551.067 397.733 542 389.067 537.733 380.133C534 372.8 534 372.133 533.6 344.4C533.067 312.267 534.267 305.6 541.733 295.867C552.267 282.133 562.8 277.467 583.733 277.333H597.333V341.467ZM320 341.333C320 361.067 319.6 377.333 318.933 377.333C316.133 377.333 308 368.533 303.867 361.067C299.733 353.333 299.333 351.733 299.467 341.333C299.467 332.133 300.133 328.8 302.667 323.333C305.867 316.667 316 305.333 318.667 305.333C319.6 305.333 320 317.6 320 341.333ZM369.467 309.2C372 311.333 376.267 316.933 378.8 321.6C382.933 329.333 383.333 330.933 383.333 341.333C383.333 351.733 382.933 353.333 378.8 361.067C374.667 368.533 366.533 377.333 363.733 377.333C363.067 377.333 362.667 361.067 362.667 341.333C362.667 321.467 363.067 305.333 363.733 305.333C364.267 305.333 366.8 307.067 369.467 309.2Z" fill="#0E79BF"/>
</svg>
