<svg width="657" height="440" viewBox="0 0 657 440" fill="none" xmlns="http://www.w3.org/2000/svg">
<path d="M149.467 0.950485C121.6 4.15048 94.2667 19.3505 76.6667 41.3505C42.1334 84.6838 44.5334 146.15 82.4 186.15C113.6 219.217 160.533 229.617 203.467 212.95C208.933 210.817 216.4 207.217 220.133 204.817L226.8 200.55L224.133 196.95C210.8 179.75 202.133 162.95 197.2 144.817C194.533 134.817 194.133 130.55 194.267 109.484C194.267 87.2171 194.533 84.6838 198 73.4838C202.667 58.0171 210.667 42.0171 219.467 30.2838C227.333 20.0172 227.467 20.6838 216.8 14.5505C197.467 3.35048 172.667 -1.71618 149.467 0.950485Z" fill="#0E79BF"/>
<path d="M313.733 0.817225C242.4 10.6839 199.333 83.8839 225.333 150.817C238.533 184.951 269.733 211.217 305.733 218.684C366.8 231.351 426.133 190.684 436.933 128.684C441.867 100.417 434.933 70.5506 418.133 46.8172C411.6 37.6172 398.4 24.6839 389.067 18.2839C368.933 4.55056 338.267 -2.51611 313.733 0.817225Z" fill="#0E79BF"/>
<path d="M480.133 0.817257C464.133 2.68392 445.2 9.75059 430.933 19.3506C429.467 20.2839 430.667 22.4173 436.133 29.6173C444.933 41.3506 455.2 62.2839 459.067 76.8173C461.733 86.5506 462.133 91.3506 462.133 110.817C462.133 130.417 461.733 135.084 459.067 144.817C454 163.084 444 182.684 433.2 195.217C431.067 197.617 429.733 200.151 430.133 200.817C431.6 203.084 447.733 211.484 457.067 214.817C462.133 216.551 470.4 218.684 475.333 219.617C488.4 221.884 514.133 220.417 526.8 216.817C563.067 206.417 592.4 176.817 603.067 139.884C605.733 131.084 606.133 126.417 606 109.484C606 90.5506 605.733 88.8173 601.6 76.8173C591.467 46.9506 573.067 25.6173 546.133 12.1506C526.133 2.15059 503.2 -1.84941 480.133 0.817257Z" fill="#0E79BF"/>
<path d="M63.4667 220.417C51.2 228.684 31.6 248.284 23.4667 260.684C15.6 272.551 8.26667 289.484 4 304.817C1.06667 315.751 0.933333 318.284 0.4 377.884L0 439.484L70.4 439.217L140.8 438.817L141.467 374.817L142.267 310.817L145.733 298.151C150 282.951 156.933 266.151 163.467 255.084C166.133 250.684 168 246.951 167.867 246.817C167.6 246.684 160.533 245.884 152.133 245.084C143.733 244.151 132.267 242.284 126.8 240.817C114.4 237.351 92.4 226.684 83.0667 219.617C79.2 216.551 75.3333 214.151 74.4 214.151C73.6 214.151 68.6667 217.084 63.4667 220.417Z" fill="#0E79BF"/>
<path d="M228.667 220.951C216.267 229.084 198.933 246.017 190.933 257.751C178.4 276.551 169.867 298.417 166.933 320.017C166.133 326.017 165.467 353.351 165.467 384.951V439.484H328.267H490.933L490.533 378.417L490 317.484L486.4 304.417C479.467 278.417 463.733 252.017 445.333 234.951C437.067 227.217 418.667 214.151 416.267 214.151C415.467 214.151 411.733 216.551 407.867 219.617C398.533 226.684 376.667 237.351 364.4 240.684C331.867 249.617 299.333 246.417 268.8 231.484C261.467 227.884 252.267 222.551 248.4 219.617C244.533 216.551 240.933 214.151 240.267 214.151C239.6 214.151 234.4 217.217 228.667 220.951Z" fill="#0E79BF"/>
<path d="M573.333 219.617C554.8 233.484 526.4 243.751 501.067 245.617C493.867 246.151 488.133 246.684 488.133 246.951C488.133 247.217 490.267 250.951 492.8 255.351C498.267 264.684 501.867 272.684 506.4 285.484C513.733 306.684 513.867 307.751 514.667 375.484L515.467 438.817L585.867 439.217L656.133 439.484V384.284C656.133 352.551 655.467 324.551 654.667 318.551C650.533 288.151 633.867 256.551 610.4 234.684C602.267 227.084 584.267 214.151 581.867 214.151C581.2 214.151 577.333 216.551 573.333 219.617Z" fill="#0E79BF"/>
</svg>
