<svg width="682" height="638" viewBox="0 0 682 638" fill="none" xmlns="http://www.w3.org/2000/svg">
<path d="M187.035 0.681103C106.635 11.2144 42.768 60.0144 13.8346 133.348C-6.83205 185.748 -4.16538 250.281 20.6346 299.748L27.0346 312.414L77.7013 312.814L128.368 313.081L181.035 221.881C209.968 171.614 234.101 130.948 234.501 131.481C234.901 132.014 250.501 178.814 269.168 235.481C295.035 314.414 303.301 338.014 304.368 336.548C305.168 335.481 322.635 304.814 343.035 268.414C375.168 211.481 380.501 202.681 381.968 204.548C382.901 205.881 397.568 230.681 414.635 259.881L445.568 312.948L480.368 313.348C518.768 313.748 520.501 314.148 526.501 322.681C531.168 329.214 531.701 341.614 527.435 347.614C525.835 350.148 522.635 353.481 520.635 354.948C516.901 357.614 515.435 357.748 468.101 357.748H419.435L400.635 326.014C390.368 308.681 381.435 294.814 380.901 295.348C380.235 296.014 360.101 331.081 335.835 373.481L291.968 450.548L257.035 345.614C234.501 278.281 221.568 241.348 220.901 242.548C220.368 243.614 205.168 269.881 187.301 301.081L154.768 357.748L108.501 358.414L62.368 359.081L201.701 498.414L341.035 637.748L488.101 490.414C629.435 348.814 635.568 342.548 645.301 327.748C656.635 310.548 664.235 295.881 669.568 281.081C697.701 202.948 677.168 115.081 617.568 58.4144C556.501 0.414436 468.101 -15.7189 390.235 16.9478C377.568 22.2811 358.635 33.0811 348.768 40.5478L341.301 46.4144L332.901 40.1478C297.035 13.7478 252.901 -0.518897 208.368 0.0144361C198.901 0.0144361 189.301 0.414436 187.035 0.681103Z" fill="#0E79BF"/>
</svg>
