<svg width="640" height="602" viewBox="0 0 640 602" fill="none" xmlns="http://www.w3.org/2000/svg">
<path d="M516.933 1.13804C453.867 11.8047 396.533 74.3381 381.333 149.405C367.333 218.071 393.867 282.338 444.933 303.005C473.2 314.605 504.667 312.338 536.667 296.471C586.133 272.071 623.067 221.805 636.267 160.605C640.4 141.405 640.4 107.271 636.267 89.4047C625.333 42.0714 596 10.4714 554.933 1.8047C545.333 -0.328629 527.333 -0.595296 516.933 1.13804ZM552.533 24.6047C583.467 32.0714 607.733 57.9381 617.333 93.8047C621.067 107.271 622.4 136.071 620 151.938C614.8 187.538 596.933 223.138 571.467 248.605C545.733 274.338 516.667 287.805 486.8 287.805C471.6 287.805 460.267 285.271 448.933 279.671C425.2 267.671 409.333 247.538 400.533 217.805C395.867 202.071 394.667 173.405 397.867 155.005C403.733 121.138 419.733 89.0047 442.8 64.6047C475.6 29.9381 515.2 15.538 552.533 24.6047Z" fill="#0E79BF"/>
<path d="M520.8 35.6715C514.667 36.6048 510.667 39.5381 510.667 43.0048C510.667 44.0715 535.067 56.2048 544.133 59.5381C545.067 59.9381 554.667 41.1381 554.667 39.1381C554.667 38.3381 541.733 35.8048 534.667 35.2715C530.667 35.0048 524.4 35.1381 520.8 35.6715Z" fill="#0E79BF"/>
<path d="M562 55.4046C559.467 61.0046 557.467 65.6713 557.733 65.9379C558.4 66.7379 590.933 81.1379 591.867 81.1379C592.4 81.1379 593.6 79.6713 594.4 77.9379C596 74.4713 594 70.2046 585.6 60.0713C581.467 55.0046 569.467 45.1379 567.467 45.1379C567.067 45.1379 564.667 49.6713 562 55.4046Z" fill="#0E79BF"/>
<path d="M476.533 53.0047C467.467 59.0047 457.333 67.5381 457.333 69.0047C457.333 69.5381 462.133 72.2047 468 74.8714L478.8 79.6714L485.467 65.4047C491.6 52.2047 492 51.0047 489.867 49.5381C486.4 47.0047 485.067 47.2714 476.533 53.0047Z" fill="#0E79BF"/>
<path d="M497.6 70.7379L490.8 85.2713L499.067 89.1379C521.867 99.5379 525.6 101.138 526 101.138C526.133 101.138 529.2 94.8713 532.667 87.1379C536.533 78.6046 538.667 72.6046 537.867 71.9379C537.2 71.2713 529.333 67.4046 520.533 63.4046L504.4 56.2046L497.6 70.7379Z" fill="#0E79BF"/>
<path d="M544.8 92.6048C541.333 100.338 538.667 106.871 538.933 107.138C540 108.205 571.467 122.471 572.667 122.471C573.867 122.471 587.2 94.4714 586.4 93.8048C585.333 93.0048 552.933 78.4714 552.133 78.4714C551.6 78.4714 548.4 84.8714 544.8 92.6048Z" fill="#0E79BF"/>
<path d="M444.267 82.8714C440.4 87.138 429.333 104.071 429.333 105.671C429.333 106.471 436.133 110.205 444.4 113.938C456.667 119.538 459.467 120.471 460.4 118.871C461.067 117.805 464.267 111.271 467.467 104.338L473.333 91.6714L462.933 87.0047C446.667 79.538 447.333 79.6714 444.267 82.8714Z" fill="#0E79BF"/>
<path d="M482 104.471C480.133 108.471 477.2 115.138 475.333 119.138L472 126.471L475.733 128.338C482.667 131.938 506.933 142.605 507.333 142.205C508.933 140.205 520 114.071 519.467 113.538C519.067 113.138 511.2 109.271 502 105.005L485.2 97.2713L482 104.471Z" fill="#0E79BF"/>
<path d="M596.8 104.071C595.733 106.471 592.8 113.005 590.267 118.605L585.467 128.871L596 133.671C601.867 136.338 606.933 138.471 607.467 138.471C608 138.471 608.133 130.871 607.733 121.538C607.067 106.071 606.8 104.471 604 102.205C599.867 98.8714 598.933 99.1381 596.8 104.071Z" fill="#0E79BF"/>
<path d="M421.067 122.205C417.2 131.938 412.267 148.605 413.067 149.405C413.6 149.805 420 152.871 427.333 156.205L440.667 162.205L446.4 150.071C455.067 131.538 455.733 133.538 438 125.538L422.533 118.605L421.067 122.205Z" fill="#0E79BF"/>
<path d="M526.133 133.138C522.8 140.471 520 147.005 520 147.538C520 148.605 551.6 163.805 553.6 163.805C554.8 163.805 566.667 138.871 566.667 136.471C566.667 135.138 536.133 119.805 533.333 119.805C532.8 119.805 529.6 125.805 526.133 133.138Z" fill="#0E79BF"/>
<path d="M460 152.071C456.933 158.871 454.133 165.271 453.733 166.071C453.333 167.271 459.067 170.605 470 175.805C479.333 180.205 487.2 183.805 487.467 183.805C488.267 183.805 501.467 155.538 500.933 155.005C499.733 153.805 468.8 139.805 467.467 139.805C466.533 139.805 463.2 145.405 460 152.071Z" fill="#0E79BF"/>
<path d="M573.2 155.405C569.6 163.138 566.933 169.805 567.2 170.205C568.267 171.138 596.133 183.805 597.333 183.805C598.133 183.805 604.133 165.271 605.867 156.738C606.667 153.271 606.267 152.871 596.4 148.338C578.133 139.938 580.8 139.138 573.2 155.405Z" fill="#0E79BF"/>
<path d="M506.667 175.405C502.933 183.138 500.133 189.671 500.267 189.805C504.667 192.205 534.8 205.405 535.2 205.005C536.133 204.071 548 178.205 548 177.138C548 176.205 516.133 161.138 514.133 161.138C513.733 161.138 510.267 167.538 506.667 175.405Z" fill="#0E79BF"/>
<path d="M409.333 180.871V197.938L415.333 200.871L421.467 203.805L428 189.671C431.733 181.938 434.667 175.271 434.667 174.871C434.667 174.071 412.667 163.805 410.8 163.805C409.867 163.805 409.333 169.271 409.333 180.871Z" fill="#0E79BF"/>
<path d="M440.8 193.671C437.467 201.005 434.667 207.671 434.667 208.471C434.8 209.805 468 225.538 468.8 224.738C469.067 224.471 472.267 218.071 475.867 210.338L482.4 196.471L470.267 190.605C463.467 187.405 455.6 183.671 452.533 182.471L447.067 180.071L440.8 193.671Z" fill="#0E79BF"/>
<path d="M554.267 196.338C550.8 203.938 548 210.471 548 210.871C548 211.671 568.533 221.671 573.2 223.138C575.333 223.805 576.933 222.338 581.067 216.205C586.533 208.071 592.533 197.138 591.733 196.471C591.2 195.938 561.6 182.471 560.933 182.471C560.8 182.471 557.733 188.738 554.267 196.338Z" fill="#0E79BF"/>
<path d="M487.6 216.605C484.133 224.471 481.333 231.005 481.6 231.138C482.8 232.205 516.133 246.738 516.4 246.338C517.6 244.605 529.467 218.071 529.067 217.805C528.267 217.005 496 202.471 495.067 202.471C494.533 202.471 491.067 208.871 487.6 216.605Z" fill="#0E79BF"/>
<path d="M413.333 215.805C413.333 216.472 414 217.138 414.8 217.138C415.467 217.138 415.733 216.472 415.333 215.805C414.933 215.005 414.267 214.472 413.867 214.472C413.6 214.472 413.333 215.005 413.333 215.805Z" fill="#0E79BF"/>
<path d="M426.667 224.471C426 226.338 424.533 229.538 423.467 231.671C421.6 235.271 421.6 235.805 425.467 241.538C429.867 248.338 440.4 258.871 446.533 262.738L450.533 265.271L455.867 253.938C464 236.338 464.133 237.671 454.4 233.271C449.733 231.138 441.867 227.538 436.933 225.271L427.867 221.271L426.667 224.471Z" fill="#0E79BF"/>
<path d="M539.467 228.072C538.4 230.472 535.467 237.005 532.933 242.605L528.267 252.738L532.8 255.005C535.333 256.205 538.4 257.138 539.467 257.138C542 257.138 554.8 247.405 561.733 240.205L566.8 234.872L554.667 229.405C548 226.338 542.267 223.805 542 223.805C541.6 223.805 540.533 225.805 539.467 228.072Z" fill="#0E79BF"/>
<path d="M469.333 256.071C466.267 262.871 463.467 269.138 463.067 270.071C462.667 271.005 465.067 272.071 469.333 273.005C476.8 274.605 498.4 275.005 502 273.538C503.867 272.871 511.2 259.805 510.267 259.005C509.333 258.205 476.933 243.805 476.133 243.805C475.467 243.805 472.533 249.405 469.333 256.071Z" fill="#0E79BF"/>
<path d="M522 266.471C521.6 267.271 522.133 267.405 523.2 267.005C525.6 266.071 526 265.138 524.133 265.138C523.333 265.138 522.4 265.671 522 266.471Z" fill="#0E79BF"/>
<path d="M114.133 40.3379C106.933 43.0046 99.9999 49.0046 95.3333 56.4713C91.7333 62.3379 91.3333 63.9379 91.3333 74.3379C91.3333 84.2046 91.8666 86.6046 94.6666 91.4046C96.5333 94.4713 123.2 133.671 154 178.338C208.533 257.538 210.133 259.671 216 261.938C238.133 270.338 259.067 283.938 276 301.005C296.267 321.538 310.4 344.605 318.133 369.938L321.867 382.071L329.6 377.005C334 374.205 339.333 371.538 341.733 371.138C344.133 370.605 346.4 369.938 346.933 369.671C347.333 369.405 345.867 365.405 343.6 360.871C339.867 353.138 339.467 351.138 338.667 334.871C337.867 318.338 337.6 316.871 333.867 310.871C324.8 296.471 156.667 53.4046 152.8 49.4046C150.533 46.8713 146.267 43.6713 143.333 42.2046C136.4 38.6046 121.333 37.6713 114.133 40.3379ZM120.533 72.4713C123.6 77.1379 123.2 80.7379 119.467 83.1379C116.933 84.8713 115.6 85.0046 113.467 83.8046C108.133 81.0046 106.533 74.8713 110.133 71.2713C113.2 68.0713 118 68.6046 120.533 72.4713ZM163.467 137.005C188.533 174.738 193.467 182.871 192.8 185.671C191.867 189.271 188.133 191.138 184.4 189.805C182.133 189.138 125.2 104.871 123.2 99.4046C122 96.3379 126.133 91.8046 130.267 91.8046C132.8 91.8046 138.133 99.0046 163.467 137.005Z" fill="#0E79BF"/>
<path d="M142 265.138C112.133 267.805 81.7332 280.072 58.5332 298.872L50.3999 305.538L103.2 358.338L156 411.138L176.533 390.605L196.933 370.205L190.267 361.272C181.867 350.338 172.8 331.405 169.333 317.672C166 305.005 164.667 283.272 166.4 272.738C167.467 266.205 167.333 265.138 165.467 265.138C164.267 265.138 161.2 264.872 158.667 264.605C156.133 264.338 148.667 264.605 142 265.138Z" fill="#0E79BF"/>
<path d="M180.8 267.671C179.067 270.471 178.4 293.138 179.867 302.071C182.933 321.671 192.133 343.271 203.2 356.471L206.533 360.471L234.267 332.871L262 305.138L256.8 300.871C238.667 285.671 218 275.271 194.133 269.138C182 266.071 181.733 266.071 180.8 267.671Z" fill="#0E79BF"/>
<path d="M419.467 317.538C417.067 322.738 410.4 337.271 404.667 349.538C399.067 361.938 394.933 372.471 395.467 373.138C397.333 374.871 408.133 376.471 414.8 376.071L421.067 375.671L433.867 347.805C440.933 332.471 446.667 319.405 446.667 318.605C446.667 317.805 445.867 317.138 444.933 317.138C444 317.138 438.933 315.005 433.6 312.471L423.867 307.805L419.467 317.538Z" fill="#0E79BF"/>
<path d="M34.9333 322.071C13.3333 348.071 0 385.404 0 420.338C0 429.804 0.4 431.938 1.86667 431.404C6.66667 429.538 25.8667 429.004 37.3333 430.338C50.5333 431.938 68.6667 437.404 79.6 443.004C83.2 444.738 90.5333 449.538 96.1333 453.538L106.4 460.871L126.533 440.604L146.667 420.471L94.2667 368.071C65.6 339.404 41.6 315.804 41.0667 315.804C40.6667 315.804 37.8667 318.604 34.9333 322.071Z" fill="#0E79BF"/>
<path d="M242.933 342.871L215.733 370.071L220.933 374.071C237.733 387.005 255.733 394.471 276.933 397.138C287.467 398.605 306.267 397.671 309.467 395.805C312.267 393.938 305.067 369.405 296.667 352.338C289.467 337.405 274.533 315.805 271.6 315.805C270.667 315.805 257.733 328.071 242.933 342.871Z" fill="#0E79BF"/>
<path d="M186.267 399.538C175.467 410.338 166.667 419.805 166.667 420.471C166.667 421.671 256.8 511.938 267.733 521.805L272.133 525.671L275.467 521.805C296.133 497.005 308.933 466.205 312 433.405C313.6 416.071 312.8 408.738 309.467 409.671C303.333 411.405 287.2 411.805 276.133 410.471C254.133 407.938 231.733 398.871 214.533 385.671C210.267 382.471 206.667 379.805 206.4 379.805C206.133 379.805 197.067 388.605 186.267 399.538Z" fill="#0E79BF"/>
<path d="M484 384.738C445.467 387.405 413.6 389.938 413.2 390.738C411.6 393.405 406.533 420.205 407.6 421.138C409.6 422.871 562.267 433.271 566 431.805C569.467 430.471 604.667 408.605 607.733 405.805C609.067 404.605 606.533 402.071 595.467 393.938C587.733 388.338 579.333 382.871 576.8 381.805C570.667 379.138 566.533 379.271 484 384.738Z" fill="#0E79BF"/>
<path d="M348 383.272C338.933 385.672 331.467 390.472 327.867 396.205C325.6 399.805 325.2 402.072 325.733 411.138C326.533 426.205 324.533 446.472 320.933 461.138L317.733 473.672L321.733 477.405C326.133 481.405 335.6 485.138 341.333 485.138H344.8L355.733 434.072C361.733 406.072 366.667 382.738 366.667 382.072C366.667 380.472 355.867 381.138 348 383.272Z" fill="#0E79BF"/>
<path d="M380 384.738C380 384.871 375.2 407.671 369.2 435.271C363.333 462.871 358.8 486.205 359.067 487.138C359.867 489.138 376 492.471 377.333 490.871C377.867 490.338 382.933 467.538 388.667 440.471C394.4 413.271 399.333 390.471 399.6 389.671C399.867 388.738 396.133 387.405 390.133 386.205C384.533 385.138 380 384.471 380 384.738Z" fill="#0E79BF"/>
<path d="M135.467 450.338L115.733 470.205L121.067 477.271C133.333 493.805 140.8 510.071 144.667 528.471C146.8 539.138 147.6 565.538 146 572.205L145.067 575.805H159.733C194.533 575.805 230.133 562.605 258 539.138L262 535.805L209.333 483.138C180.4 454.205 156.4 430.471 156 430.471C155.6 430.471 146.4 439.405 135.467 450.338Z" fill="#0E79BF"/>
<path d="M403.467 435.538C402 438.071 399.867 452.204 400.933 453.138C402.933 455.004 547.2 506.871 550 506.871C551.467 506.738 564.267 501.804 578.4 495.671L604.267 484.738L585.333 465.804L566.4 446.871L555.6 446.071C549.6 445.538 515.867 443.138 480.667 440.471C445.467 437.938 413.867 435.538 410.4 435.271C406.933 434.871 403.867 435.004 403.467 435.538Z" fill="#0E79BF"/>
<path d="M8.66658 443.671C1.73325 444.738 1.46658 447.005 5.99991 462.871C11.8666 483.405 24.2666 506.871 36.3999 520.471L41.1999 525.805L68.9333 498.071L96.6666 470.471L92.6666 467.138C71.1999 449.138 36.3999 439.405 8.66658 443.671Z" fill="#0E79BF"/>
<path d="M393.333 481.271C391.6 489.671 390.8 496.471 391.467 497.138C392.133 497.671 423.333 514.738 460.8 535.005C538.8 577.138 531.2 574.605 557.333 567.805C565.733 565.538 573.467 563.405 574.267 563.138C576.267 562.471 549.467 523.671 544.933 520.738C542.667 519.271 398.667 466.471 396.933 466.471C396.667 466.471 395.067 473.138 393.333 481.271Z" fill="#0E79BF"/>
<path d="M78.1332 507.671L50.3999 535.405L58.5332 542.071C68.9332 550.471 84.5332 559.671 97.5999 565.005C108 569.138 130.4 575.138 131.6 573.938C133.067 572.605 134.667 553.271 134 546.471C132.667 534.605 129.467 520.471 125.733 511.538C122.8 503.938 109.333 482.205 106.8 480.605C106.267 480.205 93.3332 492.471 78.1332 507.671Z" fill="#0E79BF"/>
<path d="M327.6 513.138C316 516.071 304.533 524.471 298.267 534.605C297.2 536.471 295.2 541.538 293.867 545.805C288 566.071 298.8 588.871 318.667 598.338C324.8 601.271 327.867 601.805 337.333 601.805C346.8 601.805 349.867 601.271 356.133 598.338C365.733 593.805 374 585.538 378.533 575.938C381.467 569.671 382 566.605 382 557.138C382 547.405 381.467 544.738 378.267 538.205C373.6 528.738 362.4 518.205 353.733 515.271C345.6 512.471 334.133 511.538 327.6 513.138Z" fill="#0E79BF"/>
<path d="M430 541.938C443.867 562.072 442.4 561.138 451.2 554.738C460 548.472 461.333 550.205 436.8 537.138L420.933 528.738L430 541.938Z" fill="#0E79BF"/>
<path d="M453.6 569.271C441.467 577.538 436 582.071 436 583.805C436 587.138 444 593.138 450.667 594.605C454.4 595.405 457.467 595.271 461.2 593.938C467.333 591.938 487.6 578.471 492.667 573.005L496.267 569.405L484.933 563.271C478.8 559.938 473.2 557.138 472.533 557.138C471.867 557.138 463.333 562.605 453.6 569.271Z" fill="#0E79BF"/>
</svg>
