<?xml version="1.0" standalone="no"?>
<!DOCTYPE svg PUBLIC "-//W3C//DTD SVG 20010904//EN"
 "http://www.w3.org/TR/2001/REC-SVG-20010904/DTD/svg10.dtd">
<svg version="1.0" xmlns="http://www.w3.org/2000/svg"
 width="900.000000pt" height="462.000000pt" viewBox="0 0 900.000000 462.000000"
 preserveAspectRatio="xMidYMid meet">
<metadata>
Created by potrace 1.10, written by Peter Selinger 2001-2011
</metadata>
<g transform="translate(0.000000,462.000000) scale(0.100000,-0.100000)"
fill="#000000" stroke="none">
<path d="M513 4613 c11 -10 -14 -33 -35 -33 -11 0 -32 -6 -46 -13 -15 -8 -42
-21 -60 -30 -19 -9 -40 -17 -49 -17 -8 0 -27 -9 -41 -20 -56 -43 -170 -163
-185 -193 -44 -92 -71 -156 -81 -187 -14 -48 -20 -3570 -6 -3584 5 -5 10 -20
10 -33 0 -21 32 -99 78 -192 15 -31 150 -165 199 -198 26 -17 106 -48 193 -74
64 -19 145 -19 3986 -19 3535 0 3927 2 3975 16 30 8 67 22 82 30 16 8 36 14
45 14 33 0 128 74 205 159 79 87 103 122 118 176 54 192 50 14 48 1870 -1
1016 -5 1716 -11 1755 -23 159 -72 260 -177 366 -43 44 -94 87 -112 96 -78 38
-166 76 -194 85 -16 5 -29 15 -27 21 1 9 -925 12 -3960 12 -2179 0 -3958 -3
-3955 -7z m7889 -237 c37 -9 84 -24 105 -32 45 -19 161 -135 194 -195 l24 -44
0 -1790 0 -1790 -23 -40 c-65 -115 -184 -214 -280 -233 -90 -18 -7819 -18
-7901 0 -94 20 -240 148 -269 234 -41 121 -41 99 -42 1836 0 1496 1 1674 16
1737 8 39 20 73 25 76 5 4 9 13 9 21 0 27 61 103 117 144 104 79 125 82 533
89 195 3 1946 6 3890 5 3284 -1 3540 -2 3602 -18z"/>
<path d="M6780 3969 c-19 -5 -55 -13 -80 -18 -78 -15 -211 -70 -327 -135 -142
-80 -290 -234 -367 -382 -45 -87 -106 -237 -106 -259 0 -13 -7 -42 -16 -66
-14 -36 -18 -96 -21 -319 -6 -341 3 -416 69 -595 56 -150 129 -285 193 -354
33 -37 67 -76 75 -87 14 -19 51 -47 196 -146 23 -15 47 -28 52 -28 6 0 23 -6
39 -14 65 -32 106 -46 136 -46 18 0 55 -7 82 -16 73 -22 398 -22 503 0 118 26
181 47 252 84 60 31 156 97 189 129 27 28 43 7 61 -78 19 -99 7 -94 252 -93
117 0 221 3 231 7 16 6 17 49 17 647 0 601 -1 641 -17 648 -25 9 -951 9 -985
-1 l-28 -7 0 -233 c0 -168 3 -236 12 -245 8 -8 57 -12 155 -12 181 0 180 0
122 -125 -33 -72 -142 -144 -259 -171 -146 -34 -287 -8 -401 73 -85 60 -129
138 -169 298 -20 79 -23 115 -23 286 0 154 4 213 18 270 37 156 91 276 144
320 53 44 52 43 116 75 56 27 68 29 180 29 106 0 125 -3 168 -24 69 -34 167
-134 203 -206 l29 -60 348 -3 c319 -2 348 -1 354 15 8 20 -24 184 -45 233 -29
66 -53 115 -73 145 -10 17 -22 37 -26 45 -35 73 -161 203 -255 263 -101 64
-213 112 -347 147 -66 18 -106 20 -345 19 -149 -1 -287 -5 -306 -10z"/>
<path d="M830 3921 l-95 -6 -2 -1170 c-2 -668 1 -1176 6 -1184 8 -12 116 -14
688 -13 431 1 705 6 753 13 197 28 205 31 345 100 50 25 107 63 138 93 58 55
117 128 117 144 0 5 13 40 29 78 57 138 76 301 47 412 -9 35 -16 69 -16 77 0
12 -26 70 -58 131 -10 17 -29 45 -44 62 -29 34 -142 116 -175 126 -11 4 -28
14 -36 24 -15 16 -10 23 69 91 87 77 133 141 166 236 24 67 25 285 2 347 -36
98 -50 126 -90 178 -103 135 -209 198 -407 240 -80 17 -149 19 -715 23 -345 2
-670 1 -722 -2z m1060 -535 c82 -14 124 -32 155 -66 17 -19 20 -36 20 -131 -1
-101 -2 -110 -25 -135 -14 -14 -43 -36 -65 -47 -37 -20 -59 -22 -263 -25 -165
-3 -226 -1 -237 8 -12 10 -15 47 -15 199 0 132 4 191 12 199 17 17 321 16 418
-2z m-65 -839 c138 -3 177 -7 205 -22 85 -43 120 -102 120 -205 0 -124 -57
-184 -194 -206 -106 -18 -467 -19 -484 -2 -9 9 -12 70 -12 214 0 242 -5 233
117 228 43 -2 155 -5 248 -7z"/>
<path d="M3260 3818 c1 -57 -1 -587 -2 -1180 -2 -592 1 -1080 5 -1085 9 -9
723 -7 738 3 5 3 9 193 9 453 0 334 3 450 12 459 17 17 679 17 696 0 9 -9 12
-125 12 -459 0 -320 3 -450 11 -455 14 -8 545 -14 657 -7 l82 6 -2 1181 -3
1181 -370 0 -370 0 -3 -390 c-2 -313 -5 -392 -16 -400 -14 -11 -684 -10 -695
1 -3 3 -8 182 -11 397 l-5 392 -372 3 -373 2 0 -102z"/>
<path d="M6360 1077 c-42 -20 -65 -40 -98 -86 -30 -41 -32 -50 -32 -128 0
-126 40 -188 145 -229 40 -15 52 -16 93 -4 26 7 76 14 112 15 36 1 71 2 78 3
9 1 12 32 12 112 0 129 -1 130 -108 130 -77 0 -96 -11 -90 -56 2 -22 13 -34
46 -51 2 -1 -1 -11 -8 -22 -14 -28 -89 -30 -113 -3 -26 28 -24 182 1 205 27
25 81 21 125 -9 29 -19 48 -24 80 -22 37 3 42 6 45 30 4 30 -43 90 -89 114
-34 17 -162 18 -199 1z"/>
<path d="M737 1074 c-4 -4 -7 -98 -7 -209 0 -230 -1 -228 77 -223 l48 3 5 75
5 74 38 9 c26 6 47 6 63 -2 22 -10 24 -17 24 -74 0 -36 5 -68 12 -75 13 -13
106 -16 126 -4 9 7 12 57 10 218 l-3 209 -49 3 c-87 6 -96 0 -96 -61 0 -29 -5
-58 -12 -65 -13 -13 -86 -16 -105 -4 -6 4 -13 34 -15 67 l-3 60 -55 3 c-31 2
-59 0 -63 -4z"/>
<path d="M2292 1067 c-6 -7 -12 -33 -14 -57 -3 -41 -5 -45 -28 -42 -87 11
-108 7 -147 -24 l-38 -31 -3 -102 -3 -102 34 -34 c18 -18 51 -38 73 -45 36
-11 45 -10 79 9 27 14 43 17 56 11 25 -14 93 -12 107 2 9 9 12 69 12 210 0
185 -1 198 -19 208 -27 14 -96 13 -109 -3z m-21 -218 c6 -12 9 -40 6 -61 -6
-45 -5 -43 -34 -52 -27 -9 -63 27 -63 64 0 60 66 95 91 49z"/>
<path d="M2913 1068 c-4 -7 -9 -99 -11 -204 -4 -168 -2 -192 13 -207 19 -20
85 -23 103 -5 17 17 17 399 0 416 -16 16 -95 15 -105 0z"/>
<path d="M7392 1068 c-9 -9 -12 -69 -12 -208 0 -139 3 -199 12 -208 14 -14 76
-16 97 -3 8 5 32 0 63 -13 l50 -21 36 22 c20 11 51 38 67 58 27 34 30 43 30
111 -1 88 -18 117 -88 152 -41 21 -51 22 -82 12 -52 -17 -65 -8 -65 43 0 24
-5 48 -12 55 -16 16 -80 16 -96 0z m199 -208 c24 -14 27 -91 3 -114 -53 -54
-123 38 -78 102 16 24 44 28 75 12z"/>
<path d="M7816 1064 c-12 -31 -7 -399 6 -412 7 -7 34 -12 60 -12 43 0 50 3 58
26 6 14 10 50 10 79 0 54 0 54 34 60 37 7 77 -1 88 -19 4 -6 8 -36 8 -67 0
-69 12 -81 77 -77 l48 3 3 209 c2 161 -1 211 -10 218 -20 12 -93 9 -106 -4 -7
-7 -12 -33 -12 -58 0 -56 -12 -70 -61 -70 -61 0 -69 7 -69 57 0 70 -12 83 -74
83 -40 0 -55 -4 -60 -16z"/>
<path d="M4700 1060 c-20 -5 -26 -13 -28 -42 -2 -20 -10 -42 -18 -48 -18 -16
-18 -64 1 -80 11 -9 15 -35 15 -104 0 -71 4 -95 18 -112 38 -46 134 -60 167
-24 24 26 13 67 -25 88 -34 20 -38 31 -32 95 4 43 8 50 32 59 50 17 49 58 0
78 -22 9 -30 20 -35 51 -4 21 -10 40 -13 40 -23 5 -61 4 -82 -1z"/>
<path d="M1280 957 c-29 -14 -59 -46 -60 -65 0 -15 41 -32 76 -32 14 0 38 10
54 21 31 24 80 20 80 -6 0 -20 -28 -33 -91 -41 -30 -3 -69 -15 -86 -26 -31
-19 -33 -23 -33 -79 0 -56 2 -60 33 -79 47 -30 77 -35 111 -20 18 8 67 14 116
15 l85 0 3 59 c2 32 -1 95 -7 140 -8 68 -14 84 -36 103 -23 21 -36 23 -123 22
-53 0 -108 -6 -122 -12z m150 -201 c0 -31 -22 -48 -57 -44 -36 4 -38 37 -3 55
40 20 60 16 60 -11z"/>
<path d="M1662 958 c-8 -8 -12 -57 -12 -155 0 -157 2 -163 67 -163 45 0 53 16
53 105 0 89 15 125 54 125 39 0 46 -18 46 -115 0 -57 4 -95 12 -103 14 -14 86
-16 106 -3 11 6 13 37 10 135 l-3 128 -33 29 c-26 24 -41 29 -82 29 -27 0 -61
-5 -75 -12 -21 -9 -31 -9 -46 0 -24 15 -82 15 -97 0z"/>
<path d="M2551 952 c-58 -29 -76 -63 -76 -145 0 -91 23 -128 103 -164 61 -29
121 -27 175 5 37 21 72 66 63 81 -11 17 -91 13 -123 -6 -19 -10 -39 -14 -55
-10 -27 7 -45 38 -33 57 4 6 53 10 115 10 l110 0 6 27 c9 36 -30 110 -75 140
-43 29 -157 32 -210 5z m137 -61 c8 -5 12 -17 10 -27 -5 -27 -82 -33 -92 -7
-13 32 47 57 82 34z"/>
<path d="M3155 959 c-11 -6 -26 -19 -32 -27 -14 -17 -17 -90 -5 -109 10 -16
98 -53 127 -53 26 0 58 -26 52 -44 -6 -18 -62 -19 -77 -2 -14 18 -105 22 -115
6 -4 -6 2 -25 12 -43 23 -39 98 -69 158 -63 94 8 175 79 154 134 -11 28 -56
71 -75 72 -7 0 -25 7 -40 15 -16 8 -39 15 -50 15 -23 0 -34 16 -27 38 6 17 27
15 68 -8 39 -22 93 -18 102 7 3 8 -6 27 -21 41 -24 25 -34 27 -119 30 -56 1
-100 -2 -112 -9z"/>
<path d="M3870 944 c-17 -15 -37 -39 -45 -55 -18 -34 -20 -128 -3 -166 36 -83
134 -121 227 -87 54 19 118 75 107 93 -10 16 -99 13 -122 -4 -30 -23 -69 -19
-88 10 -15 23 -15 25 3 35 11 5 62 10 114 10 106 0 113 4 101 69 -15 82 -74
120 -186 121 -68 0 -80 -3 -108 -26z m160 -59 c21 -26 4 -45 -40 -45 -27 0
-43 5 -46 15 -9 22 14 45 46 45 15 0 33 -7 40 -15z"/>
<path d="M4248 959 c-16 -9 -18 -28 -18 -158 0 -164 -1 -161 65 -161 62 0 65
4 65 94 0 113 31 164 74 121 12 -13 16 -37 16 -104 0 -104 7 -114 77 -109 l48
3 3 110 c2 61 0 125 -3 143 -11 61 -99 90 -182 60 -27 -10 -38 -10 -53 0 -24
15 -69 15 -92 1z"/>
<path d="M4942 958 c-8 -8 -12 -58 -12 -159 0 -161 -1 -159 64 -159 46 0 56
15 56 90 0 76 12 99 61 115 32 11 34 15 37 63 4 62 -9 71 -69 52 -30 -10 -42
-11 -51 -2 -16 16 -71 15 -86 0z"/>
<path d="M5262 950 c-18 -11 -41 -34 -52 -52 -34 -56 -23 -178 20 -220 27 -26
106 -58 142 -58 69 0 183 77 163 110 -10 15 -99 12 -121 -5 -29 -22 -70 -19
-88 7 -24 34 -6 43 112 48 l107 5 -2 47 c-1 52 -31 101 -75 124 -42 22 -166
18 -206 -6z m146 -59 c8 -5 12 -17 10 -27 -4 -26 -85 -33 -94 -9 -13 34 47 60
84 36z"/>
<path d="M5632 958 c-8 -8 -12 -57 -12 -153 0 -155 3 -165 56 -165 60 0 64 5
64 85 0 103 8 134 35 141 13 3 32 1 44 -5 18 -10 21 -22 23 -114 l3 -102 52
-3 c72 -4 78 9 69 151 -4 60 -11 118 -17 128 -23 44 -107 62 -176 37 -27 -10
-38 -10 -53 0 -25 15 -73 15 -88 0z"/>
<path d="M6751 956 c-8 -9 -11 -61 -9 -162 l3 -149 50 -3 c73 -3 77 2 79 106
1 104 16 134 55 113 19 -11 21 -20 21 -101 0 -104 10 -120 73 -120 23 0 47 4
53 8 7 4 13 46 15 104 4 105 13 124 52 114 33 -8 39 -26 38 -120 0 -44 4 -86
10 -93 7 -7 26 -13 44 -13 65 0 65 0 65 137 0 167 -14 192 -108 193 -30 0 -67
-7 -84 -16 -29 -15 -34 -15 -65 0 -40 19 -102 21 -138 4 -21 -9 -31 -9 -46 0
-26 16 -94 15 -108 -2z"/>
<path d="M3482 948 c-18 -18 -14 -56 7 -68 11 -5 33 -10 50 -10 51 0 47 -20
-13 -75 -56 -52 -57 -54 -54 -102 l3 -48 134 -3 c151 -3 164 1 159 57 l-3 36
-55 3 c-30 2 -59 7 -64 12 -4 4 19 37 53 74 46 49 61 73 61 95 0 17 -6 31 -16
35 -30 12 -249 7 -262 -6z"/>
</g>
</svg>
